<svg width="65" height="22" viewBox="0 0 65 22" fill="none" xmlns="http://www.w3.org/2000/svg">
<mask id="mask0_614_668" style="mask-type:luminance" maskUnits="userSpaceOnUse" x="0" y="0" width="65" height="22">
<path d="M0 0H65V21.5385H0V0Z" fill="white"/>
</mask>
<g mask="url(#mask0_614_668)">
<path d="M35.246 10.2523C39.351 8.28473 39.959 1.86304 34.119 1.86304H27.355L24.855 7.04196H26.032L23.042 19.418H30.884C36.604 19.4697 39.177 12.3512 35.246 10.2523ZM30.884 14.9132H28.924L29.659 12.1164H31.521C33.726 12.5827 32.354 15.0166 30.884 14.9132ZM32.06 8.9578H30.394L30.884 6.52396H32.746C34.546 6.99027 32.991 9.06119 32.06 8.9578Z" fill="#005FAF"/>
<path d="M51.2999 8.47763L53.8679 3.68855L50.3939 1.77271L49.9409 2.36501C48.0669 1.31609 38.2519 2.76347 37.6379 12.9932C38.0049 21.5741 47.1059 20.0309 47.9979 19.487L50.5009 14.0195C48.0499 15.7253 43.0309 16.5438 42.8179 11.4187C43.2579 7.19286 47.9799 5.61409 51.2999 8.47763ZM64.1139 1.86317H56.2199L53.7099 6.88594H54.9999L49.0499 19.4181H54.8079L55.9899 16.3962H59.5249L59.6129 19.4181H64.9129L64.1119 1.86424L64.1139 1.86317ZM57.5939 12.3255L59.5259 7.45024L59.6149 12.3255H57.5939ZM14.8209 18.5802L15.1279 18.4865L14.7919 17.9955L14.8209 18.5802ZM9.78694 18.4962L9.72794 18.9356C9.88094 18.9205 10.0679 19.0595 10.1429 18.7472C10.1379 18.5049 9.96294 18.4919 9.78694 18.4962ZM12.2299 18.4855C12.2049 18.367 12.1099 18.2787 11.8739 18.3605L11.9539 18.8107C12.1469 18.7644 12.2469 18.6427 12.2299 18.4855ZM6.71194 18.1193L6.61694 18.5178C6.76894 18.5242 6.94694 18.6545 7.04694 18.4176C7.05394 18.2701 7.05994 18.1225 6.71194 18.1193ZM12.0219 19.1445L12.0919 19.6044C12.2539 19.6087 12.4019 19.5064 12.3589 19.2921C12.3179 19.0842 12.1519 19.1176 12.0219 19.1445Z" fill="#005FAF"/>
<path d="M18.454 2.10004C13.217 -0.718273 6.96296 -0.640734 1.97396 1.97727C-0.600039 6.76311 -0.683038 13.4616 1.97296 19.3911C7.46896 22.3311 13.549 22.1373 18.492 19.5139C20.815 14.4782 21.199 8.41942 18.453 2.10004H18.454ZM9.60996 16.3908L9.29996 16.3951C9.22196 15.4894 9.01696 14.727 8.57696 14.1443C6.55996 11.4714 2.43696 13.4842 3.49696 8.94281C4.04696 6.61988 10.331 5.24896 9.60996 16.3908ZM3.50396 11.9054C3.94396 12.8531 6.70396 13.0082 7.66196 13.733C9.18196 14.8831 8.96296 16.3962 8.96296 16.3962H8.60496C7.89896 14.111 5.91896 15.9202 4.33396 15.3053C3.33796 14.9305 2.61496 13.3087 3.50396 11.9054ZM8.53196 19.3534L8.67996 18.1107L8.94696 18.1322L8.82796 19.4999C8.70796 20.103 7.85796 20.0222 7.74996 19.4482L7.88896 18.0267L8.20496 18.0794L8.06696 19.2705C8.08396 19.6647 8.45796 19.641 8.53196 19.3534ZM7.11096 19.6937L6.80596 19.6162C6.84196 19.3502 7.13996 18.8085 6.55096 18.8085L6.38696 19.516L6.05096 19.4493L6.40696 17.7531C7.27996 17.8533 7.35596 18.1096 7.37296 18.3853C7.33896 18.5985 7.28496 18.7471 7.11096 18.7837C7.31496 18.9797 7.11296 19.389 7.11096 19.6937ZM5.17696 17.793C5.09396 17.9114 4.92596 18.3207 4.90096 18.6491C4.87496 18.9959 5.19096 18.9227 5.26896 18.8817C5.33296 18.8494 5.37896 18.5705 5.37896 18.5705L5.15896 18.493L5.23296 18.2603L5.72996 18.4348L5.48996 19.3103L5.28796 19.2522L5.30596 19.1154C5.05896 19.235 4.60496 19.1456 4.55196 18.843C4.49796 18.6007 4.65996 17.8651 4.91996 17.5205C5.17296 17.1867 5.78796 17.513 5.80296 17.7143C5.81796 17.9168 5.74296 18.143 5.74296 18.143L5.51096 18.0967C5.51096 18.0967 5.52596 18.0245 5.54596 17.9093C5.56696 17.7887 5.26696 17.667 5.17696 17.793ZM9.69996 19.2177L9.63996 19.9705L9.39296 19.9597L9.48196 18.172C10.099 18.186 10.453 18.2765 10.442 18.7374C10.405 19.3663 9.92196 19.2253 9.69996 19.2177ZM10.315 16.3962H9.89996C9.86396 14.8487 10.145 12.0174 9.37596 9.93465C8.79296 8.35588 7.31696 7.64511 6.98996 6.37004C6.47296 4.35081 7.35396 2.16573 10.314 1.99773C12.88 2.27557 13.669 4.36911 13.231 6.31834C12.479 8.26758 11.726 7.98757 10.789 9.92819C10.023 12.0099 10.316 14.7356 10.315 16.3962ZM14.902 19.2597L14.615 19.3642L14.525 17.5668L14.862 17.4731L15.692 18.9571L15.465 19.1133L15.188 18.6954L14.872 18.8214L14.902 19.2597ZM11.556 16.3951H11.225C11.497 12.4213 16.224 13.285 16.655 11.9054C17.403 13.2731 17.135 14.4254 16.355 15.0177C14.415 16.4856 12.557 13.93 11.555 16.3962L11.556 16.3951ZM13.309 18.4025L13.458 19.2285C13.55 19.4191 13.613 19.3836 13.754 19.3642C13.919 19.2393 13.884 19.1165 13.854 18.9571L14.14 18.9151C14.215 19.5128 13.946 19.5742 13.745 19.6151C13.313 19.6474 13.228 19.5591 13.112 18.9679C13.044 18.4617 12.926 17.9265 13.329 17.8285C13.991 17.7208 13.952 18.0363 14.012 18.2571L13.725 18.3088C13.679 18.1193 13.613 18.045 13.468 18.059C13.335 18.1236 13.281 18.227 13.309 18.4036V18.4025ZM12.706 19.2597C12.72 19.5203 12.636 19.6927 12.479 19.7508L11.806 19.8973L11.539 18.1731C11.677 18.1494 12.354 17.8877 12.519 18.3616C12.599 18.6502 12.515 18.7547 12.419 18.8839C12.601 18.9453 12.663 19.095 12.706 19.2597ZM10.979 10.6067C12.477 6.14927 15.906 6.93758 16.666 8.94173C17.708 12.9651 14.353 11.8613 12.205 13.5111C11.393 14.2574 10.965 15.1136 10.959 16.4123H10.591C10.569 13.7976 10.529 11.9463 10.979 10.6077V10.6067Z" fill="#005FAF"/>
</g>
</svg>
