<svg width="65" height="21" viewBox="0 0 65 21" fill="none" xmlns="http://www.w3.org/2000/svg">
<path fill-rule="evenodd" clip-rule="evenodd" d="M0.97998 7.10222L6.33398 14.3747L0.97998 19.1508V7.10222ZM3.13498 19.1508L7.16298 15.5216L9.94798 19.1508H3.13498ZM0.97998 3.21022L2.37798 5.11314L8.12198 12.8433L9.98298 11.2462C9.98298 11.2462 8.43798 9.28622 7.39998 7.10006C5.37198 2.82683 6.80798 0.164678 6.80798 0.164678H0.97998V3.21022ZM8.93998 14.0354L10.836 12.3501C10.836 12.3501 12.646 14.9164 14.746 15.5227C17.497 16.3164 18.716 14.3747 18.716 14.3747V19.1508H12.673L14.035 17.8822C14.035 17.8822 13.325 18.3927 11.585 17.0961C10.56 16.3314 8.94098 14.0365 8.94098 14.0365L8.93998 14.0354ZM9.11498 0.152832C9.11498 0.152832 8.50998 1.04022 8.94098 3.21129C9.40098 5.53099 11.231 7.98637 11.226 7.93145C11.226 7.93145 11.344 5.49329 12.673 4.06206C15.505 1.01222 18.715 2.82791 18.715 2.82791V0.166832L9.11498 0.152832Z" fill="#F15A23"/>
<path fill-rule="evenodd" clip-rule="evenodd" d="M18.7149 6.04262C18.7149 6.04262 16.9249 4.39062 15.3669 4.39062C13.3749 4.39062 12.2869 6.24293 12.2869 7.58586C12.2869 9.54262 13.1599 10.6303 14.0349 11.5726C15.2929 12.9274 16.8239 14.3888 18.7149 13.2128V6.04262Z" fill="#F15A23"/>
<path fill-rule="evenodd" clip-rule="evenodd" d="M39.1129 0.352051H43.3399C43.3399 0.352051 47.0839 6.45713 48.9239 8.9782C50.2166 10.7607 51.49 12.5593 52.7439 14.3736V1.72082C52.7439 1.17374 51.4119 0.353128 51.4119 0.353128H56.2859C56.2859 0.353128 54.6859 1.06067 54.6859 1.72082V20.1308C54.6859 20.1308 53.1519 19.2144 51.4119 17.0368C49.4569 14.59 42.5019 4.71359 42.5019 4.71359V17.5064C42.5019 18.1611 43.8339 19.153 43.8339 19.153H39.1129C39.1129 19.153 40.4079 18.1536 40.4079 17.5053V1.71974C40.4079 1.1382 39.1129 0.352051 39.1129 0.352051ZM59.0149 0.352051H64.4399C64.4399 0.352051 62.9829 1.09513 62.9829 1.71974V17.5053C62.9829 18.187 64.4399 19.1519 64.4399 19.1519H59.0149C59.0149 19.1519 60.3709 18.1654 60.3709 17.5042V1.71974C60.3709 1.1199 59.0149 0.352051 59.0149 0.352051ZM23.1539 0.352051C23.1539 0.352051 24.5599 1.1059 24.5599 1.71974V17.5053C24.5599 18.1762 23.1539 19.1519 23.1539 19.1519H31.1899C31.6919 19.1519 37.3179 18.1611 37.3179 13.4905C37.3179 8.8199 32.9479 8.38267 32.9479 8.38267C32.9479 8.38267 35.6099 7.58574 35.6099 4.39051C35.6099 0.946512 31.6919 0.352051 31.1899 0.352051H23.1539ZM27.4229 8.07359V2.19574H30.6879C31.1899 2.19574 32.9479 2.8279 32.9479 5.1702C32.9479 7.1022 31.1899 8.07359 30.6879 8.07359H27.4229ZM27.4229 9.61467H31.1899C31.6919 9.61467 34.6559 10.4439 34.6559 13.2116C34.6559 16.0353 31.6919 17.0347 31.1899 17.0347H27.4229V9.61467Z" fill="#005E6A"/>
</svg>
