<svg width="65" height="17" viewBox="0 0 65 17" fill="none" xmlns="http://www.w3.org/2000/svg">
<mask id="mask0_614_662" style="mask-type:luminance" maskUnits="userSpaceOnUse" x="0" y="0" width="65" height="17">
<path d="M0 0H65V16.4769H0V0Z" fill="white"/>
</mask>
<g mask="url(#mask0_614_662)">
<path d="M17.587 4.13538H21.09C22.509 4.13538 23.566 4.80523 23.566 6.21492C23.566 7.24877 23.076 7.82385 22.224 8.12969V8.15338C23.239 8.37738 23.763 8.96431 23.763 9.96262C23.763 11.9248 22.159 12.3362 20.795 12.3362H17.587V4.13538ZM19.617 7.37908H20.184C20.849 7.37908 21.538 7.20246 21.538 6.50892C21.538 5.75723 20.882 5.68615 20.205 5.68615H19.617V7.37908ZM19.617 10.7854H20.217C20.959 10.7854 21.734 10.6669 21.734 9.83338C21.734 8.94061 20.937 8.85877 20.238 8.85877H19.617V10.7854ZM26.427 4.13538H28.915L31.85 12.3362H29.624L29.056 10.5862H26.198L25.598 12.3362H23.535L26.427 4.13538ZM27.671 5.82723H27.649L26.667 9.03538H28.577L27.67 5.82615L27.671 5.82723ZM32.132 4.13538H34.718L37.293 9.70415H37.315L37.283 4.13538H39.138V12.3362H36.616L33.955 6.73077H33.933L33.998 12.3351H32.132V4.13538ZM39.826 4.13538H41.856V7.48461H41.878L44.168 4.13538H46.613L43.798 7.95308L46.831 12.3362H44.245L41.878 8.61215H41.856V12.3362H39.826V4.13538ZM49.348 4.13538H52.851C54.269 4.13538 55.328 4.80523 55.328 6.21492C55.328 7.24877 54.837 7.82385 53.986 8.12969V8.15338C55.001 8.37738 55.524 8.96431 55.524 9.96262C55.524 11.9248 53.92 12.3362 52.556 12.3362H49.348V4.13538ZM51.378 7.37908H51.945C52.611 7.37908 53.298 7.20246 53.298 6.50892C53.298 5.75723 52.644 5.68615 51.967 5.68615H51.377L51.378 7.37908ZM51.378 10.7854H51.978C52.719 10.7854 53.494 10.6669 53.494 9.83338C53.494 8.94061 52.698 8.85877 52 8.85877H51.377V10.7865L51.378 10.7854ZM55.974 4.13538H59.597C60.949 4.13538 62.051 4.79338 62.051 6.20308C62.051 7.29615 61.571 8.02415 60.59 8.27077V8.29446C61.243 8.48292 61.287 9.10538 61.67 10.1037L62.411 12.3362H60.295L59.858 10.8565C59.444 9.44569 59.181 9.09246 58.428 9.09246H58.003V12.3362H55.973L55.974 4.13538ZM58.004 7.54277H58.538C59.193 7.54277 60.022 7.51908 60.022 6.59077C60.022 5.82723 59.312 5.68615 58.538 5.68615H58.003V7.54277H58.004ZM62.97 4.13538H65V12.3362H62.97V4.13538ZM12.956 0H2.335C1.045 0 0 1.15231 0 2.576V13.902C0 15.3106 1.026 16.4565 2.299 16.4769H12.95C14.24 16.4769 15.286 15.3246 15.286 13.902L15.29 2.576C15.29 1.15231 14.246 0 12.956 0ZM3.596 15.1566L3.018 15.1642C2.316 15.1642 1.748 14.5428 1.748 13.7771L1.744 13.6694V3.20923L1.748 2.64492C1.775 1.904 2.298 1.30954 2.982 1.30954H4.16C5.228 1.30954 6.093 2.30892 6.093 3.48708C6.09461 4.04475 5.8953 4.58136 5.537 4.984L2.532 8.26861L5.349 11.3572C5.712 11.76 5.931 12.2898 5.931 12.8692C5.931 14.1325 4.886 15.1566 3.596 15.1566ZM12.258 15.1458L7.006 15.1448C7.006 15.1448 7.612 13.7318 7.612 12.8563C7.612 11.7902 7.282 10.8371 6.763 10.2071L4.967 8.23308L6.8 6.19446C7.346 5.64308 7.708 4.662 7.708 3.54523C7.708 2.66108 7.481 1.87708 7.116 1.30846H8.388C9.456 1.30846 10.322 2.30892 10.322 3.48708C10.3236 4.04475 10.1243 4.58136 9.766 4.984L6.818 8.23415L12.941 14.9574C12.734 15.0874 12.4976 15.1519 12.258 15.1458ZM13.54 13.048L9.152 8.232L11.242 5.94462C11.667 5.37169 11.937 4.50908 11.937 3.54523C11.937 2.65462 11.707 1.85123 11.338 1.28369L12.273 1.31385C12.975 1.31385 13.543 1.93415 13.543 2.69985L13.54 13.048Z" fill="#00529C"/>
</g>
</svg>
