<svg width="65" height="11" viewBox="0 0 65 11" fill="none" xmlns="http://www.w3.org/2000/svg">
<path d="M0 0H9.909V10.7197H0V0ZM1.32 2.01277C2.09 3.12954 2.873 4.23662 3.648 5.35123C2.88 6.46908 2.093 7.57185 1.323 8.68969C3.083 8.69831 4.84 8.68969 6.599 8.694C7.39 7.58585 8.153 6.454 8.95 5.34908L8.935 5.35015C8.159 4.23662 7.378 3.12523 6.603 2.01169C4.842 2.01169 3.081 2.01062 1.32 2.01277ZM13.267 3.13277C13.5636 2.73556 13.9337 2.40914 14.3538 2.17425C14.7738 1.93935 15.2347 1.80111 15.707 1.76831C16.1541 1.73502 16.6028 1.79776 17.0272 1.95287C17.4516 2.10798 17.8431 2.35237 18.179 2.67185C17.876 3.00138 17.573 3.32985 17.268 3.65723C16.751 3.20492 16.034 3.02615 15.391 3.22538C15.0335 3.33376 14.7098 3.54404 14.4541 3.83405C14.1984 4.12405 14.0201 4.48302 13.938 4.87308C13.743 5.72062 14.025 6.68446 14.67 7.22077C15.406 7.87338 16.549 7.84 17.272 7.182C17.576 7.51046 17.886 7.83354 18.182 8.17169C17.5798 8.74214 16.8098 9.06519 16.008 9.08385C15.5054 9.09546 15.0065 8.98783 14.5468 8.76859C14.0871 8.54935 13.6778 8.22387 13.348 7.81523C12.8868 7.24564 12.6023 6.53521 12.534 5.78308C12.4445 4.83014 12.7079 3.87769 13.267 3.13277ZM19.383 1.96215H20.687V8.88785H19.383V1.96215ZM22.246 1.946C22.669 1.94492 23.092 1.94923 23.516 1.94385C24.269 3.41062 25.003 4.89139 25.766 6.35277C26.506 4.88169 27.257 3.41708 27.997 1.946H29.277C29.275 4.256 29.281 6.56492 29.273 8.87385C28.839 8.86738 28.406 8.876 27.972 8.86954C27.975 7.50185 27.972 6.13631 27.973 4.77077C27.226 6.15138 26.513 7.55569 25.753 8.92769C25.026 7.53846 24.279 6.16 23.549 4.77077C23.552 6.13846 23.549 7.50508 23.551 8.87169H22.247C22.245 6.56385 22.247 4.25492 22.247 1.94708L22.246 1.946ZM30.762 1.96215H33.402C33.809 1.97077 34.227 2.06338 34.575 2.30354C35.415 2.85815 35.608 4.30015 34.906 5.06477C34.816 5.16815 34.71 5.25431 34.603 5.33723C35.003 5.56446 35.31 5.98769 35.385 6.47339C35.493 7.13031 35.355 7.88415 34.885 8.34723C34.509 8.736 33.975 8.876 33.469 8.88354C32.567 8.89431 31.663 8.88569 30.761 8.88785L30.762 1.96215ZM32.065 3.22754V4.73523C32.449 4.73523 32.833 4.73738 33.218 4.73523C33.441 4.73092 33.683 4.68031 33.847 4.50154C34.079 4.23446 34.085 3.78323 33.879 3.49677C33.719 3.29 33.457 3.22538 33.219 3.22754H32.065ZM32.065 6.00169V7.60631L33.337 7.60739C33.5397 7.6202 33.7391 7.54759 33.893 7.40492C34.189 7.09692 34.195 6.52185 33.893 6.21492C33.729 6.048 33.495 6.00385 33.279 6.00062L32.065 6.00169ZM38.091 1.94708C38.309 1.94923 38.526 1.93846 38.744 1.95031C38.844 2.03431 38.899 2.16569 38.979 2.27015C40.173 4.03523 41.359 5.80785 42.559 7.56862V1.94708H43.233V8.85554L42.553 8.85662C41.291 6.97954 40.03 5.10138 38.766 3.22431V8.85446C38.539 8.85446 38.313 8.85985 38.087 8.84908C38.097 6.54877 38.089 4.24954 38.091 1.94708ZM44.912 1.946H45.587V8.85446C45.362 8.85662 45.137 8.85446 44.913 8.85446C44.911 6.552 44.912 4.24954 44.912 1.946ZM46.626 8.90185C47.403 6.59831 48.182 4.29477 48.965 1.99338C49.276 1.99662 49.588 1.99338 49.899 1.99446C50.641 4.28185 51.382 6.57031 52.126 8.85446C51.861 8.85446 51.596 8.85662 51.331 8.85446C51.134 8.24237 50.9339 7.63139 50.731 7.02154L48.089 7.02262C47.892 7.64831 47.704 8.27831 47.506 8.90508C47.212 8.90185 46.919 8.90508 46.626 8.90185ZM48.359 6.19446C49.06 6.19769 49.762 6.19446 50.462 6.19554C50.112 5.08738 49.765 3.97708 49.419 2.86785C49.067 3.97708 48.708 5.08308 48.359 6.19446ZM53.623 3.12523C54.156 2.53292 54.868 2.10646 55.636 2.03C56.583 1.92662 57.526 2.30677 58.291 2.89046C58.142 3.09938 57.985 3.30185 57.837 3.51185C57.582 3.11985 57.13 2.97338 56.723 2.85492C56.015 2.64385 55.212 2.758 54.613 3.23292C54.073 3.67446 53.713 4.34431 53.569 5.05508C53.489 5.78954 53.555 6.59077 53.959 7.21323C54.097 7.448 54.318 7.59877 54.506 7.78077C54.907 8.13508 55.432 8.29446 55.944 8.29015C56.574 8.29662 57.198 8.12215 57.774 7.854C57.774 7.14323 57.776 6.43462 57.774 5.72492H56.275V5.07877C56.985 5.07338 57.694 5.07877 58.404 5.07554V8.36769C57.727 8.77692 56.951 8.94815 56.187 9.03108C55.378 9.04831 54.533 8.82431 53.904 8.25246C53.289 7.70539 52.929 6.874 52.824 6.02969C52.743 5.00338 52.983 3.91031 53.623 3.12523ZM59.486 8.89539C60.267 6.59615 61.045 4.29692 61.82 1.99554C62.132 1.99338 62.444 1.99769 62.756 1.99231C63.473 4.17523 64.173 6.36462 64.887 8.54969C64.921 8.64662 64.939 8.75 64.947 8.85446L64.196 8.85554C63.993 8.246 63.795 7.63431 63.594 7.02369C62.7107 7.02154 61.8273 7.02154 60.944 7.02369C60.754 7.65154 60.557 8.27615 60.367 8.90292C60.073 8.90077 59.779 8.91369 59.486 8.89539ZM62.276 2.87215C61.929 3.98138 61.566 5.08631 61.221 6.19769C61.92 6.19339 62.619 6.19662 63.317 6.19662C62.977 5.08523 62.624 3.97923 62.276 2.87215Z" fill="#790008"/>
<path d="M1.32007 2.01265C3.08007 2.00942 4.84207 2.01265 6.60307 2.0105C7.37807 3.12511 8.15907 4.2365 8.93507 5.35004C7.17307 5.35434 5.41007 5.35219 3.64807 5.35004C2.87307 4.2365 2.09107 3.1305 1.32007 2.01265Z" fill="white"/>
<path d="M3.64797 5.35127C5.41097 5.35127 7.17298 5.35451 8.93498 5.35127L8.94997 5.34912C8.15297 6.45404 7.38997 7.58589 6.59997 8.69404C4.84097 8.68974 3.08297 8.69835 1.32397 8.68974C2.09397 7.57189 2.87997 6.46912 3.64797 5.35127Z" fill="#ED3024"/>
</svg>
