<svg width="66" height="18" viewBox="0 0 66 18" fill="none" xmlns="http://www.w3.org/2000/svg">
<path d="M1.55696 11.2964H2.26096C2.66196 11.2964 2.98596 11.3319 3.34396 11.7778C3.59696 12.0858 3.87496 12.7664 3.87496 13.8681C3.87496 14.2644 3.87796 14.6553 3.80796 15.0581C3.69796 15.6934 3.42596 16.7101 1.87396 16.7101C1.45896 16.7101 1.55696 16.6993 1.55696 16.6993V11.2964ZM2.35496 17.6502C4.44296 17.6502 5.37796 16.6433 5.37796 13.895C5.37796 13.1681 5.17996 11.9511 4.55396 11.2081C3.90596 10.4456 3.06796 10.3508 2.35996 10.3508H0.032959V17.6491H2.35496V17.6502ZM8.94496 15.7591C8.94496 16.0004 8.93896 16.3256 8.70096 16.5582C8.50196 16.7467 8.22096 16.7618 8.11496 16.7618C7.84996 16.7618 7.61196 16.6573 7.51096 16.3041C7.48713 16.1954 7.47538 16.084 7.47596 15.9724C7.47596 15.4393 7.80296 15.2142 8.16696 15.1184C8.35796 15.071 8.48696 15.0624 8.94496 15.0214V15.7591ZM8.94496 14.3624L8.18496 14.4431C7.36496 14.5454 7.05096 14.6262 6.69996 14.8771C6.13396 15.2939 6.12696 15.9013 6.12696 16.1016C6.12696 16.6002 6.26696 16.975 6.45696 17.1914C6.70896 17.5081 7.10796 17.6244 7.49296 17.6244C8.43696 17.6244 8.88696 17.1613 8.88696 17.1613L8.89396 17.4908H10.166V14.0371C10.166 13.6494 10.176 13.1024 9.76196 12.7158C9.56874 12.5266 9.32463 12.4085 9.06496 12.3787C8.77496 12.3216 8.67396 12.299 8.38996 12.299C7.53196 12.299 6.88396 12.4627 6.51496 13.1713C6.35696 13.4793 6.36496 13.7873 6.36496 14.0231H7.53196C7.54196 13.8185 7.55196 13.5331 7.69996 13.335C7.77496 13.223 7.95196 13.0625 8.27796 13.0625C8.38496 13.0625 8.69396 13.0625 8.85096 13.3404C8.93896 13.5051 8.94596 13.7184 8.94596 13.9607V14.3624H8.94496ZM19.078 15.7591C19.078 16.0004 19.072 16.3256 18.833 16.5582C18.639 16.7467 18.357 16.7618 18.243 16.7618C17.98 16.7618 17.746 16.6573 17.643 16.3041C17.6198 16.1953 17.6091 16.0839 17.611 15.9724C17.611 15.4393 17.936 15.2142 18.302 15.1184C18.493 15.071 18.62 15.0624 19.078 15.0214V15.7591ZM19.078 14.3624L18.321 14.4431C17.496 14.5454 17.187 14.6262 16.834 14.8771C16.27 15.2939 16.262 15.9013 16.262 16.1016C16.262 16.6002 16.398 16.975 16.587 17.1914C16.842 17.5081 17.243 17.6244 17.627 17.6244C18.573 17.6244 19.022 17.1613 19.022 17.1613L19.029 17.4908H20.297V14.0371C20.297 13.6494 20.307 13.1024 19.897 12.7158C19.7034 12.5272 19.4594 12.4092 19.2 12.3787C18.908 12.3216 18.808 12.299 18.523 12.299C17.665 12.299 17.019 12.4627 16.648 13.1713C16.491 13.4793 16.502 13.7873 16.502 14.0231H17.665C17.676 13.8185 17.685 13.5331 17.834 13.335C17.908 13.223 18.084 13.0625 18.412 13.0625C18.518 13.0625 18.827 13.0625 18.988 13.3404C19.072 13.5051 19.079 13.7184 19.079 13.9607V14.3624H19.078ZM38.253 17.4908H36.925V14.4001C36.925 14.203 36.925 14.0371 36.91 13.8691C36.897 13.7076 36.854 13.1831 36.275 13.1831C36.1494 13.1833 36.025 13.21 35.909 13.2618C35.517 13.4556 35.507 13.7991 35.498 14.0716V17.4908H34.167V12.4336H35.497V13.0087C35.832 12.6856 36.134 12.3313 36.881 12.3313C37.508 12.3313 37.819 12.5941 37.947 12.7567C38.242 13.1153 38.242 13.5805 38.254 13.9424V17.4908H38.253ZM15.285 17.4908H13.957V14.4001C13.957 14.203 13.957 14.0371 13.936 13.8691C13.927 13.7076 13.882 13.1831 13.299 13.1831C13.175 13.1837 13.0524 13.2104 12.938 13.2618C12.545 13.4556 12.534 13.7991 12.523 14.0716V17.4908H11.193V12.4336H12.523V13.0087C12.863 12.6856 13.163 12.3313 13.908 12.3313C14.538 12.3313 14.844 12.5941 14.976 12.7567C15.274 13.1153 15.274 13.5805 15.285 13.9424V17.4908ZM21.273 12.4304H22.602V13.0194C22.857 12.7728 23.308 12.327 24.106 12.327C25.019 12.327 25.273 12.9161 25.336 13.1099C25.879 12.5424 26.236 12.327 26.758 12.327C27.013 12.327 27.188 12.3722 27.358 12.439C28.073 12.7362 28.088 13.4233 28.102 13.8691V17.4876H26.749V14.1922C26.743 13.8336 26.732 13.6311 26.646 13.4718C26.5987 13.3787 26.528 13.3018 26.4421 13.25C26.3561 13.1982 26.2583 13.1735 26.16 13.1788C26.047 13.1788 25.83 13.209 25.728 13.2693C25.356 13.461 25.342 13.7948 25.335 14.0662V17.4876H24.017V14.2138C24.017 13.8239 24.022 13.1799 23.421 13.1799C23.286 13.1799 23.049 13.2208 22.933 13.2898C22.602 13.5105 22.593 13.8336 22.602 14.2838V17.4876H21.272V12.4293L21.273 12.4304ZM32.028 14.8524C32.028 15.1388 32.018 15.4145 31.99 15.6924C31.962 15.9724 31.917 16.5334 31.518 16.7693C31.4061 16.8282 31.2834 16.8591 31.159 16.8598C30.405 16.8598 30.337 16.0058 30.322 15.6934C30.3036 15.4649 30.2936 15.2357 30.292 15.0064C30.292 14.8039 30.304 14.5218 30.332 14.1911C30.358 13.923 30.413 13.4114 30.797 13.1681C30.9219 13.0993 31.0607 13.0649 31.201 13.0679C31.916 13.0679 31.981 13.8788 31.998 14.1911C32.018 14.413 32.028 14.6359 32.028 14.8524ZM33.384 14.8782C33.384 14.4291 33.384 13.5891 32.922 13.0184C32.364 12.3001 31.566 12.3001 31.283 12.3001C30.955 12.3001 30.201 12.3141 29.609 12.8934C28.939 13.5385 28.939 14.5681 28.939 15.0882C28.939 16.0768 29.146 17.1225 30.304 17.4865C30.641 17.5985 30.82 17.6179 31.159 17.6179C31.477 17.6179 32.27 17.6179 32.86 16.9104C33.384 16.2836 33.384 15.3445 33.384 14.8782Z" fill="#046148"/>
<path d="M10.3179 5.19887H22.6189L11.7099 1.58472L10.3189 2.39241L5.59692 3.70625L10.3189 5.19887H10.3179Z" fill="#EF9826"/>
<path d="M0.032959 0.0424805V5.19771H10.32V2.39233L0.032959 0.0424805Z" fill="#EB712D"/>
<path d="M22.6239 5.19879L10.3179 0.0424805L10.3199 2.39125L22.6239 5.19879Z" fill="#FEC02B"/>
<path d="M65.032 14.8911V5.19556H48.465L45.021 7.8771L48.465 11.1079L65.034 14.8911H65.032Z" fill="#EF9826"/>
<path d="M48.463 11.1079L43.96 6.91328L22.627 5.20312L48.464 14.8976V11.109L48.463 11.1079Z" fill="#FEC02B"/>
<path d="M22.6199 5.19458V5.19996L48.4639 11.1058V5.19673H22.6199V5.19458Z" fill="#EB712D"/>
</svg>
