<?xml version="1.0" encoding="UTF-8"?>
<svg version="1.1" xmlns="http://www.w3.org/2000/svg" width="413" height="119">
<path d="M0 0 C136.29 0 272.58 0 413 0 C413 39.27 413 78.54 413 119 C276.71 119 140.42 119 0 119 C0 79.73 0 40.46 0 0 Z " fill="#FDFDFD" transform="translate(0,0)"/>
<path d="M0 0 C0.78366943 -0.00644531 1.56733887 -0.01289063 2.37475586 -0.01953125 C14.12576368 0.23718649 22.56369116 5.3594529 31.1328125 13.15625 C32.72076612 14.85228424 34.01399307 16.57294045 35.3125 18.5 C36.14974609 19.7065625 36.14974609 19.7065625 37.00390625 20.9375 C43.44827339 31.70303211 42.76211136 44.63633697 39.87890625 56.53344727 C36.77669891 67.30425765 28.76052794 75.07521607 19.3125 80.5 C9.11830611 85.72935695 -3.23186032 86.21500848 -14.125 82.875 C-19.38326883 80.86614395 -23.51799927 78.25435563 -27.6875 74.5 C-28.30367187 73.96375 -28.91984375 73.4275 -29.5546875 72.875 C-37.61937827 65.39872015 -41.23790131 56.79795018 -41.90625 45.94921875 C-42.21606851 33.10465975 -39.75675684 23.67030863 -31.6875 13.5 C-22.68514349 4.34189338 -12.71923873 0.09899203 0 0 Z " fill="#07AED4" transform="translate(52.6875,15.5)"/>
<path d="M0 0 C0.495 0.495 0.495 0.495 1 1 C1.33 -0.32 1.66 -1.64 2 -3 C6.29 -3 10.58 -3 15 -3 C15.09922689 4.5255961 15.17163956 12.05080733 15.21972656 19.5769043 C15.23978303 22.13458901 15.26703505 24.69222821 15.30175781 27.24975586 C15.35053672 30.93614975 15.37302945 34.62193484 15.390625 38.30859375 C15.41127014 39.44332626 15.43191528 40.57805878 15.45318604 41.74717712 C15.45541685 49.72491601 14.23501061 56.07738592 9.0703125 62.33984375 C8.42835938 62.86707031 7.78640625 63.39429687 7.125 63.9375 C6.16980469 64.75541016 6.16980469 64.75541016 5.1953125 65.58984375 C0.13666087 68.83926232 -4.92060458 69.36086317 -10.8125 69.3125 C-11.51810059 69.30758545 -12.22370117 69.3026709 -12.95068359 69.29760742 C-21.83031406 69.09853546 -27.59373707 67.07773662 -34 61 C-32.44499019 57.18315774 -29.96404505 54.80804268 -27 52 C-26.1646875 52.433125 -26.1646875 52.433125 -25.3125 52.875 C-18.76298762 56.06124927 -13.278513 56.82620958 -6 56 C-2.80336289 54.72615213 -0.57619621 53.15239242 1 50 C1.04022391 47.6670134 1.04320247 45.33293334 1 43 C-0.0725 43.66 -1.145 44.32 -2.25 45 C-8.83389984 48.28027634 -16.45294612 48.11985129 -23.375 45.8125 C-30.33653063 42.69926891 -34.60583567 37.66515335 -38 31 C-38.8125 28.5625 -38.8125 28.5625 -39 26 C-39.05027344 25.33226563 -39.10054688 24.66453125 -39.15234375 23.9765625 C-39.47981846 16.3005554 -37.66783804 10.76606817 -32.875 4.75 C-23.93428247 -4.73201358 -11.45768425 -5.40456804 0 0 Z " fill="#070707" transform="translate(155,31)"/>
<path d="M0 0 C4.79468338 2.73647783 7.78564336 6.28121997 10.5625 11 C10.93503906 11.58265625 11.30757813 12.1653125 11.69140625 12.765625 C14.06833107 18.86249045 13.61489843 27.67568564 11.65234375 33.875 C8.3390791 40.18192179 3.4066502 44.8800527 -3.3203125 47.49609375 C-10.6967533 49.2517411 -17.83463968 48.66825573 -24.4375 45 C-24.7675 44.67 -25.0975 44.34 -25.4375 44 C-25.7675 51.59 -26.0975 59.18 -26.4375 67 C-30.7275 67 -35.0175 67 -39.4375 67 C-39.4375 44.56 -39.4375 22.12 -39.4375 -1 C-35.1475 -1 -30.8575 -1 -26.4375 -1 C-26.4375 -0.01 -26.4375 0.98 -26.4375 2 C-24.8596875 1.01 -24.8596875 1.01 -23.25 0 C-15.87441809 -3.64210151 -7.44570861 -3.31294727 0 0 Z " fill="#080808" transform="translate(278.4375,30)"/>
<path d="M0 0 C5.94679997 3.45657748 10.37661006 8.38775082 12.5234375 15.03515625 C13.92803308 22.99453119 12.8722145 30.43254821 8.25 37.15234375 C4.29635811 42.14284761 -0.78039381 45.87481637 -7.125 47.02734375 C-16.18502915 47.82608687 -23.62048543 47.51406987 -31.125 42.02734375 C-36.22765445 37.46637236 -39.72461953 32.10343938 -40.40625 25.1640625 C-40.66471732 16.51617668 -38.89629757 10.10791317 -32.96875 3.671875 C-23.46512825 -4.80487236 -11.29319701 -5.16912878 0 0 Z " fill="#080808" transform="translate(218.125,30.97265625)"/>
<path d="M0 0 C1.47823242 -0.0309375 1.47823242 -0.0309375 2.98632812 -0.0625 C12.76176609 -0.11502082 12.76176609 -0.11502082 17.1875 3.25 C17.6825 5.725 17.6825 5.725 18.1875 8.25 C8.6175 8.25 -0.9525 8.25 -10.8125 8.25 C-10.8125 9.24 -10.8125 10.23 -10.8125 11.25 C-9.8745459 11.22905273 -8.9365918 11.20810547 -7.97021484 11.18652344 C-4.47011375 11.11810627 -0.97072934 11.06808414 2.52978516 11.03027344 C4.04096736 11.01023209 5.55207272 10.98299095 7.06298828 10.94824219 C9.24270643 10.89938891 11.42139431 10.87695776 13.6015625 10.859375 C14.9107666 10.83842773 16.2199707 10.81748047 17.56884766 10.79589844 C21.78331564 11.32476839 23.91546925 12.59459983 27.1875 15.25 C28.7284424 18.33188481 28.37195331 21.55872323 28.375 24.9375 C28.38724609 25.63294922 28.39949219 26.32839844 28.41210938 27.04492188 C28.42528053 31.74702407 28.11369759 35.88571122 26.1875 40.25 C20.39575552 45.4516104 13.64897643 44.83258516 6.17163086 44.71655273 C4.12596805 44.68751374 2.08289148 44.69598204 0.03710938 44.70898438 C-11.11345912 44.6372588 -11.11345912 44.6372588 -16.8125 41.25 C-21.6248946 36.10571612 -20.99518192 30.08162658 -21 23.4375 C-21.01224609 22.56029297 -21.02449219 21.68308594 -21.03710938 20.77929688 C-21.05202083 14.13375748 -20.83299574 8.63314882 -16.375 3.375 C-11.42849871 -0.72697668 -6.12660964 0.03168253 0 0 Z " fill="#F9FCFD" transform="translate(48.8125,35.75)"/>
<path d="M0 0 C3.71067662 2.61888139 5.60836356 5.16493444 7.03125 9.43359375 C7.11632079 12.16518935 7.14716565 14.87050818 7.12890625 17.6015625 C7.1274913 18.39637527 7.12607635 19.19118805 7.12461853 20.01008606 C7.11902378 22.547127 7.10647228 25.0840795 7.09375 27.62109375 C7.08873432 29.3417956 7.08417153 31.06249883 7.08007812 32.78320312 C7.06905607 37.00003405 7.05179506 41.21679891 7.03125 45.43359375 C3.07125 45.43359375 -0.88875 45.43359375 -4.96875 45.43359375 C-4.96875 44.11359375 -4.96875 42.79359375 -4.96875 41.43359375 C-5.69964844 41.975 -5.69964844 41.975 -6.4453125 42.52734375 C-13.3657008 47.05705245 -19.84748364 47.5097861 -27.96875 46.43359375 C-31.59375 44.74609375 -31.59375 44.74609375 -33.96875 42.43359375 C-34.7525 41.75296875 -35.53625 41.07234375 -36.34375 40.37109375 C-38.85036142 35.83991157 -38.85184487 31.48855061 -37.96875 26.43359375 C-35.78125 23.43359375 -35.78125 23.43359375 -32.96875 21.43359375 C-32.288125 20.94246094 -31.6075 20.45132813 -30.90625 19.9453125 C-26.80933645 17.83692747 -22.65761834 17.1087721 -18.15625 16.24609375 C-16.83077148 15.98022461 -16.83077148 15.98022461 -15.47851562 15.70898438 C-13.31013494 15.27530824 -11.14041113 14.85047371 -8.96875 14.43359375 C-8.63875 12.78359375 -8.30875 11.13359375 -7.96875 9.43359375 C-11.66830099 7.58381826 -15.93075834 7.96302464 -19.96875 8.43359375 C-23.36363422 10.48466963 -24.77198081 12.13843996 -26.96875 15.43359375 C-32.90875 14.44359375 -32.90875 14.44359375 -38.96875 13.43359375 C-37.7489542 7.33461476 -35.3994139 4.61911846 -30.96875 0.43359375 C-21.41759332 -5.37201129 -9.69687077 -5.55681069 0 0 Z " fill="#080808" transform="translate(333.96875,31.56640625)"/>
<path d="M0 0 C4.95 0 9.9 0 15 0 C15.43570312 1.01578125 15.87140625 2.0315625 16.3203125 3.078125 C19.63827132 10.76290345 23.05980356 18.31826584 26.93359375 25.7421875 C28 28 28 28 28 30 C28.66 30 29.32 30 30 30 C30.38800781 28.74316406 30.77601563 27.48632812 31.17578125 26.19140625 C33.0571839 20.54719829 35.58246641 15.27763305 38.1875 9.9375 C38.65091797 8.97650391 39.11433594 8.01550781 39.59179688 7.02539062 C40.72304349 4.68126104 41.8608425 2.34029542 43 0 C47.95 0 52.9 0 58 0 C58 0.66 58 1.32 58 2 C57.34 2 56.68 2 56 2 C55.91878906 2.64324219 55.83757812 3.28648438 55.75390625 3.94921875 C54.70617945 8.18898366 52.84119384 11.8950495 50.9375 15.8125 C50.32805542 17.08262939 50.32805542 17.08262939 49.70629883 18.37841797 C46.94585636 24.11011401 44.11820541 29.80671662 41.24755859 35.48388672 C37.35766018 43.20803133 33.65849229 51.02491801 29.94799805 58.83642578 C29.45082275 59.87911621 28.95364746 60.92180664 28.44140625 61.99609375 C27.77153687 63.40652954 27.77153687 63.40652954 27.08813477 64.84545898 C26 67 26 67 25 68 C22.64686445 68.07271741 20.29166332 68.08370868 17.9375 68.0625 C16.00197266 68.04896484 16.00197266 68.04896484 14.02734375 68.03515625 C13.02832031 68.02355469 12.02929688 68.01195313 11 68 C12.02843234 64.49895375 13.285692 61.32553418 15.015625 58.125 C15.37914062 57.44953125 15.74265625 56.7740625 16.1171875 56.078125 C16.87600359 54.68608997 17.64700843 53.30063416 18.4296875 51.921875 C20.6545858 47.74563685 20.6545858 47.74563685 20.51953125 43.11328125 C19.76736328 41.57220703 19.76736328 41.57220703 19 40 C18.67918457 39.28763184 18.35836914 38.57526367 18.02783203 37.84130859 C16.86744445 35.2714721 15.65820774 32.72921272 14.4375 30.1875 C14.00002441 29.27057373 13.56254883 28.35364746 13.11181641 27.40893555 C9.81725108 20.55976998 6.34458137 13.82059556 2.69311523 7.1550293 C0 2.20084613 0 2.20084613 0 0 Z " fill="#090909" transform="translate(343,29)"/>
<path d="M0 0 C4.16406148 2.04550389 6.29193919 3.72984797 8 8 C8.56557089 12.51722207 8.50876002 16.67157105 6.875 20.9375 C3.76299881 24.36070131 0.96056231 25.76392642 -3.66015625 26.3203125 C-8.05275723 26.49767189 -11.090386 26.49270758 -15 24.375 C-18.54374242 20.16680588 -20.31567571 16.99022632 -19.9375 11.4375 C-19.30128656 7.32977411 -18.07943022 4.90346277 -15 2 C-10.30287324 -0.88348562 -5.34156496 -0.63387602 0 0 Z " fill="#F8F8F8" transform="translate(149,40)"/>
<path d="M0 0 C3.46781162 1.66537198 5.44567493 4.04252943 7.375 7.375 C8.56123311 12.35717907 8.72217518 15.70506519 6.1875 20.25 C1.33941984 26.34472934 1.33941984 26.34472934 -3.3125 26.875 C-7.69208844 27.21626663 -10.32497651 26.56396988 -14 24 C-18.25265118 19.28760275 -19.30452899 16.46211814 -19.21484375 10.25390625 C-18.81649503 6.07486606 -17.02314188 3.92722233 -14 1.1875 C-9.34281856 -0.65596765 -4.93286892 -0.77392518 0 0 Z " fill="#FAFAFA" transform="translate(210,40)"/>
<path d="M0 0 C4.12515131 2.06257565 6.30526469 3.74399052 8 8 C8.56811094 12.53750945 8.53359148 16.68006319 6.8125 20.9375 C4.02985749 24.10395527 1.91625765 25.76954397 -2.37109375 26.28515625 C-7.35842771 26.45560006 -11.04600779 26.35490248 -15 23 C-18.61788473 19.01240443 -18.44420151 15.82207978 -18.28515625 10.62890625 C-17.800402 6.15987053 -16.23334857 4.08385177 -12.9375 1.1875 C-8.59555592 -0.56775399 -4.61769091 -0.6723358 0 0 Z " fill="#FAFAFA" transform="translate(270,40)"/>
<path d="M0 0 C0.66 0 1.32 0 2 0 C2.375 3.1875 2.375 3.1875 2 7 C-0.19105188 9.67118979 -2.9119153 11.45595765 -6 13 C-7.83128771 13.09608608 -9.66619959 13.12982579 -11.5 13.125 C-12.4796875 13.12757812 -13.459375 13.13015625 -14.46875 13.1328125 C-17 13 -17 13 -19 12 C-19.3125 9.6875 -19.3125 9.6875 -19 7 C-15.30919403 4.24392329 -11.71814314 3.29491182 -7.25 2.375 C-3.30917601 1.84856236 -3.30917601 1.84856236 0 0 Z " fill="#F2F2F2" transform="translate(327,54)"/>
<path d="M0 0 C1.3303125 0.5259375 1.3303125 0.5259375 2.6875 1.0625 C6.06203126 2.01755602 7.69686152 1.97151132 11 1 C11.3403125 2.423125 11.3403125 2.423125 11.6875 3.875 C12.66241614 7.12929907 12.66241614 7.12929907 15.25073242 8.16943359 C18.04415345 9.01333896 20.3904892 9.31194699 23.30078125 9.4140625 C24.27724609 9.45273438 25.25371094 9.49140625 26.25976562 9.53125 C27.26716797 9.5621875 28.27457031 9.593125 29.3125 9.625 C30.85260742 9.68300781 30.85260742 9.68300781 32.42382812 9.7421875 C34.94904265 9.83614897 37.47425592 9.9218154 40 10 C40 9.34 40 8.68 40 8 C41.65 8 43.3 8 45 8 C44 10 44 10 40.875 11.125 C29.18639502 13.72246777 16.81754794 12.81836288 6.515625 6.46875 C1.375 2.75 1.375 2.75 0 0 Z " fill="#28B2D1" transform="translate(24,88)"/>
<path d="M0 0 C1.32 0 2.64 0 4 0 C5.0326802 2.78823655 5.04509293 3.8677274 4.0625 6.75 C3.711875 7.4925 3.36125 8.235 3 9 C2.01 8.67 1.02 8.34 0 8 C-0.38063221 5.6739143 -0.71269945 3.33944736 -1 1 C-0.67 0.67 -0.34 0.34 0 0 Z " fill="#37B4D1" transform="translate(66,59)"/>
<path d="M0 0 C3 1 3 1 5 3 C5.33 3.99 5.66 4.98 6 6 C6.99 6.33 7.98 6.66 9 7 C8.01 7.495 8.01 7.495 7 8 C6.01 7.67 5.02 7.34 4 7 C4 8.98 4 10.96 4 13 C3.67 13 3.34 13 3 13 C2.92652344 12.09507813 2.92652344 12.09507813 2.8515625 11.171875 C2.77679688 10.37265625 2.70203125 9.5734375 2.625 8.75 C2.55539063 7.96109375 2.48578125 7.1721875 2.4140625 6.359375 C1.98492887 3.914123 1.21399362 2.15163097 0 0 Z " fill="#1FB1CF" transform="translate(74,49)"/>
<path d="M0 0 C0.66 0 1.32 0 2 0 C2.33 1.65 2.66 3.3 3 5 C2.01 5.495 2.01 5.495 1 6 C0.34786708 8.02463255 0.34786708 8.02463255 0 10 C-0.66 10 -1.32 10 -2 10 C-1.34 6.7 -0.68 3.4 0 0 Z " fill="#22B2CF" transform="translate(13,42)"/>
<path d="M0 0 C5.66153846 1.47692308 5.66153846 1.47692308 7.375 4.125 C7.684375 5.053125 7.684375 5.053125 8 6 C4.08597051 4.73058503 2.20927127 3.48832306 0 0 Z " fill="#2EB4CF" transform="translate(24,88)"/>
<path d="M0 0 C0.33 0.66 0.66 1.32 1 2 C3.52733235 2.65555119 3.52733235 2.65555119 6 3 C5.34 4.32 4.68 5.64 4 7 C4 6.34 4 5.68 4 5 C1.525 4.01 1.525 4.01 -1 3 C-0.67 2.01 -0.34 1.02 0 0 Z " fill="#01B1DE" transform="translate(26,85)"/>
</svg>
