<?xml version="1.0" encoding="UTF-8"?>
<svg version="1.1" xmlns="http://www.w3.org/2000/svg" width="432" height="159">
<path d="M0 0 C142.56 0 285.12 0 432 0 C432 52.47 432 104.94 432 159 C289.44 159 146.88 159 0 159 C0 106.53 0 54.06 0 0 Z " fill="#FEFEFD" transform="translate(0,0)"/>
<path d="M0 0 C5.51756476 -0.0493521 11.03500171 -0.08569662 16.55273438 -0.10986328 C18.43068682 -0.11993534 20.30862353 -0.13359362 22.18652344 -0.15087891 C24.8822009 -0.17507453 27.57767146 -0.18647083 30.2734375 -0.1953125 C31.11619232 -0.20563507 31.95894714 -0.21595764 32.82723999 -0.22659302 C34.88621247 -0.22699144 36.94467935 -0.12257588 39 0 C41 2 41 2 41.09375 5.10546875 C40.14737638 10.42469371 36.19645458 13.64913812 32.5 17.3125 C31.02010245 18.82871405 29.54092971 20.3456359 28.0625 21.86328125 C27.35222656 22.58338379 26.64195313 23.30348633 25.91015625 24.04541016 C23.70277096 26.30414311 21.5879353 28.6306828 19.5 31 C15.45791146 35.53767028 11.29643501 39.95668316 7.125 44.375 C0.68683865 51.1945496 -5.68278396 58.06834349 -12 65 C-13.81178207 66.97983142 -15.62409741 68.95915477 -17.4375 70.9375 C-17.88907471 71.43032471 -18.34064941 71.92314941 -18.8059082 72.4309082 C-22.70208479 76.68059222 -26.61256082 80.9169818 -30.52587891 85.15087891 C-33.79959525 88.69433177 -37.05896614 92.25048292 -40.3125 95.8125 C-45.30196443 101.27018396 -50.36123062 106.66110373 -55.42602539 112.04882812 C-60.27091938 117.20776029 -65.0638958 122.41109766 -69.828125 127.64453125 C-70.54484375 128.42183594 -71.2615625 129.19914063 -72 130 C-72.81017578 130.89332031 -72.81017578 130.89332031 -73.63671875 131.8046875 C-75 133 -75 133 -77.5625 133.3125 C-80 133 -80 133 -82 131 C-86.43124863 95.39648737 -86.43124863 95.39648737 -78.8984375 84.00390625 C-75.95988356 80.62544457 -72.64739484 77.98699116 -68.95776367 75.47143555 C-66.11155418 73.33225303 -63.97457932 70.73710358 -61.69506836 68.01928711 C-59.02335686 64.83655258 -56.15897388 61.83838206 -53.3125 58.8125 C-52.08305001 57.5002654 -50.85388839 56.18776055 -49.625 54.875 C-48.71234375 53.90046875 -48.71234375 53.90046875 -47.78125 52.90625 C-39.91442594 44.48736811 -32.13979666 35.98208616 -24.35888672 27.48388672 C-22.53158456 25.4884964 -20.70328855 23.49401854 -18.87475586 21.49975586 C-17.96508901 20.50737734 -17.05574155 19.51470595 -16.14672852 18.52172852 C-13.73759207 15.89078343 -11.3222907 13.26583606 -8.8984375 10.6484375 C-8.39248047 10.10058594 -7.88652344 9.55273438 -7.36523438 8.98828125 C-6.39181824 7.93449131 -5.4166323 6.88233267 -4.43945312 5.83203125 C-1.92798603 3.12618462 -1.92798603 3.12618462 0 0 Z " fill="#F17E32" transform="translate(92,10)"/>
<path d="M0 0 C1.26714844 -0.01417969 2.53429687 -0.02835938 3.83984375 -0.04296875 C7.0625 0.1875 7.0625 0.1875 9.0625 2.1875 C9.31646729 4.92016602 9.31646729 4.92016602 9.32128906 8.44140625 C9.32759338 9.75616943 9.33389771 11.07093262 9.34039307 12.42553711 C9.3368134 13.8670261 9.33271146 15.30851387 9.328125 16.75 C9.32947168 18.22208724 9.33141223 19.69417405 9.33392334 21.16625977 C9.33687449 24.25313548 9.33257732 27.33989553 9.32324219 30.42675781 C9.31184756 34.38822129 9.31840709 38.34941378 9.33038712 42.31086731 C9.337606 45.35113577 9.33531768 48.39133973 9.33013153 51.43161011 C9.32879511 52.8924869 9.3304425 54.3533695 9.33509064 55.8142395 C9.34015606 57.85402315 9.33106979 59.89382726 9.32128906 61.93359375 C9.31969788 63.09560303 9.31810669 64.2576123 9.31646729 65.45483398 C9.0625 68.1875 9.0625 68.1875 7.0625 70.1875 C4.56640625 70.5234375 4.56640625 70.5234375 1.625 70.5625 C0.65691406 70.59085937 -0.31117188 70.61921875 -1.30859375 70.6484375 C-3.9375 70.1875 -3.9375 70.1875 -5.78515625 68.2890625 C-6.9375 66.1875 -6.9375 66.1875 -6.9375 64.1875 C-7.75154297 64.81978516 -7.75154297 64.81978516 -8.58203125 65.46484375 C-9.29746094 66.01269531 -10.01289063 66.56054688 -10.75 67.125 C-11.45769531 67.67027344 -12.16539062 68.21554688 -12.89453125 68.77734375 C-16.84279594 71.50262779 -20.25775262 71.48941919 -24.9375 71.1875 C-32.0135068 69.80278772 -37.1896563 66.60133082 -41.9375 61.1875 C-47.34183865 52.81546094 -47.94169344 43.93695092 -46.9375 34.1875 C-44.39609728 26.46013526 -39.92012921 21.24420968 -32.9375 17.1875 C-32.009375 16.62675781 -32.009375 16.62675781 -31.0625 16.0546875 C-25.56310166 13.81044774 -18.73233479 14.5067006 -13.3125 16.5625 C-10.9375 18.1875 -10.9375 18.1875 -8.9375 20.1875 C-8.89991577 19.33200562 -8.89991577 19.33200562 -8.86157227 18.45922852 C-8.74593451 15.88923843 -8.62306376 13.31964473 -8.5 10.75 C-8.46068359 9.85216797 -8.42136719 8.95433594 -8.38085938 8.02929688 C-8.31801758 6.74829102 -8.31801758 6.74829102 -8.25390625 5.44140625 C-8.21724854 4.65064697 -8.18059082 3.8598877 -8.14282227 3.04516602 C-7.65932137 -1.3293385 -3.57997939 0.01817248 0 0 Z " fill="#4CBBE3" transform="translate(267.9375,35.8125)"/>
<path d="M0 0 C7.14184649 4.04165747 11.29613742 8.90114142 14.5 16.4375 C15.70927284 26.24241495 14.93385611 35.30480228 9.0625 43.42578125 C3.98366013 49.12726735 -2.80360253 52.70004916 -10.3359375 53.8828125 C-18.9323733 54.24400728 -25.23575629 51.51259078 -31.8125 46.125 C-37.23399076 41.09230141 -40.18114282 35.68195956 -40.73828125 28.265625 C-40.88992393 20.95485154 -40.79013396 15.48914592 -36.5 9.4375 C-35.819375 8.40625 -35.13875 7.375 -34.4375 6.3125 C-25.28353992 -3.78459536 -12.11612162 -5.57011291 0 0 Z " fill="#4CBBE3" transform="translate(404.5,53.5625)"/>
<path d="M0 0 C7.64921904 4.34113493 13.45490372 10.37572074 16.01171875 18.8984375 C16.38121721 22.59855402 16.63365938 26.22167084 16.01171875 29.8984375 C12.32013557 32.35949295 9.54548321 32.15419543 5.28125 32.09375 C4.53082932 32.0909201 3.78040863 32.08809021 3.00724792 32.08517456 C0.612742 32.07398812 -1.78138856 32.04888678 -4.17578125 32.0234375 C-5.8001248 32.01340569 -7.42447422 32.00428019 -9.04882812 31.99609375 C-13.02879025 31.97405387 -17.00847213 31.9395349 -20.98828125 31.8984375 C-18.10868365 36.47592259 -18.10868365 36.47592259 -13.98828125 39.8984375 C-8.15954605 40.49119023 -4.82820922 39.73202966 0.15234375 36.67578125 C2.55459157 35.67148016 3.61436825 35.95782714 6.01171875 36.8984375 C8.82421875 39.1484375 8.82421875 39.1484375 11.01171875 41.8984375 C10.953125 44.3671875 10.953125 44.3671875 10.01171875 46.8984375 C7.83203125 48.6640625 7.83203125 48.6640625 5.13671875 50.1484375 C4.25242188 50.64859375 3.368125 51.14875 2.45703125 51.6640625 C-4.31459253 55.08232626 -12.65063062 55.14945803 -19.88671875 53.0625 C-27.22756441 49.69700461 -31.67634112 44.55279448 -35.92578125 37.8359375 C-38.66813145 30.31603379 -38.26647005 20.6303878 -34.98828125 13.3984375 C-27.68361774 0.96188574 -13.95443955 -5.14398948 0 0 Z " fill="#4ABBE3" transform="translate(197.98828125,52.1015625)"/>
<path d="M0 0 C3.93806659 0.58844673 5.38293982 2.5478599 8.09375 5.40625 C8.57851807 5.91172363 9.06328613 6.41719727 9.56274414 6.93798828 C12.73173912 10.26704419 15.79313977 13.68493296 18.77734375 17.1796875 C21.36356252 20.14577342 24.04118305 23.02271637 26.71875 25.90625 C30.65733608 30.15080485 34.54507193 34.4252206 38.31640625 38.8203125 C39.71727363 40.45310174 39.71727363 40.45310174 41.40234375 41.9921875 C42.71875 43.40625 42.71875 43.40625 42.71875 45.40625 C43.37875 45.40625 44.03875 45.40625 44.71875 45.40625 C46.10000018 48.16875036 45.90954306 50.35356099 45.71875 53.40625 C41.73945374 57.38554626 33.44639426 56.15829715 27.99169922 56.27124023 C26.24334158 56.31911615 24.49548787 56.39380273 22.74951172 56.49682617 C7.52759859 57.38465041 7.52759859 57.38465041 1.98681641 52.65454102 C-0.64674594 49.9980266 -2.919666 47.13985819 -5.0785675 44.08934021 C-6.97285583 41.43838441 -9.07364958 38.97359974 -11.15625 36.46875 C-11.86394531 35.58058594 -12.57164063 34.69242188 -13.30078125 33.77734375 C-15.04708548 31.68660081 -16.83917098 29.8676126 -18.84375 28.03125 C-21.28125 25.40625 -21.28125 25.40625 -21.65625 22.98046875 C-21.17829425 19.69950165 -20.1585196 18.79278332 -17.71875 16.59375 C-14.82701545 13.88626756 -12.11241151 11.16293922 -9.53125 8.15625 C-8.96148437 7.50140625 -8.39171875 6.8465625 -7.8046875 6.171875 C-6.58240048 4.75527568 -5.36801719 3.33185846 -4.15625 1.90625 C-2.28125 0.40625 -2.28125 0.40625 0 0 Z " fill="#4BBBE3" transform="translate(82.28125,88.59375)"/>
<path d="M0 0 C1.05617271 -0.0049926 1.05617271 -0.0049926 2.13368225 -0.01008606 C3.62581731 -0.0151578 5.11796375 -0.01749431 6.61010742 -0.01733398 C8.89716232 -0.01951884 11.18373378 -0.03766674 13.47070312 -0.05664062 C14.91796709 -0.05957479 16.36523336 -0.06155943 17.8125 -0.0625 C18.49900131 -0.06968552 19.18550262 -0.07687103 19.89280701 -0.08427429 C24.74383256 -0.06085494 24.74383256 -0.06085494 26.97265625 2.16796875 C27.23398174 4.88254628 27.37332848 7.49092343 27.4140625 10.2109375 C27.42783432 11.01275955 27.44160614 11.8145816 27.45579529 12.64070129 C27.47909414 14.3412077 27.49634589 16.04180595 27.50805664 17.74243164 C27.53488555 20.32936736 27.60973075 22.91214907 27.68554688 25.49804688 C27.87664036 37.58169612 27.87664036 37.58169612 25.484375 41.77954102 C23.73759733 43.51687539 22.01211938 44.80083502 19.97265625 46.16796875 C18.89891953 47.326552 17.85333557 48.51234117 16.84765625 49.73046875 C13.37995023 53.71833067 9.88737631 57.68142773 6.34765625 61.60546875 C5.79706543 62.23332275 5.24647461 62.86117676 4.67919922 63.50805664 C2.28905466 66.13476718 0.58756754 67.9189917 -2.73828125 69.265625 C-5.02734375 69.16796875 -5.02734375 69.16796875 -6.64813232 68.05508423 C-8.6482507 65.31840856 -8.39450885 63.24339613 -8.38378906 59.87646484 C-8.38679016 58.57857025 -8.38979126 57.28067566 -8.3928833 55.94345093 C-8.38087937 54.52609866 -8.36839647 53.10875039 -8.35546875 51.69140625 C-8.35241119 50.24077551 -8.35053505 48.79014183 -8.34979248 47.33950806 C-8.34519112 44.30141951 -8.33076957 41.26359629 -8.30859375 38.22558594 C-8.28026105 34.32352095 -8.26937712 30.42166454 -8.26491165 26.51950645 C-8.26076387 23.52560321 -8.25095262 20.53174248 -8.23903656 17.53786087 C-8.23332442 16.09849006 -8.22856885 14.65911514 -8.22476959 13.21973801 C-8.21792717 11.21336173 -8.20340074 9.20701603 -8.18847656 7.20068359 C-8.18164856 6.0572348 -8.17482056 4.91378601 -8.16778564 3.73568726 C-7.88920907 -1.35756671 -4.14214058 0.0066947 0 0 Z " fill="#4DBCE4" transform="translate(18.02734375,9.83203125)"/>
<path d="M0 0 C2.6058889 -0.13494246 5.20482111 -0.23402299 7.8125 -0.3125 C8.55048828 -0.35439453 9.28847656 -0.39628906 10.04882812 -0.43945312 C12.20703125 -0.48828125 12.20703125 -0.48828125 16 0 C18.85146811 3.22339874 19.80401825 7.09624575 21 11.1875 C21.33515625 12.31929687 21.6703125 13.45109375 22.015625 14.6171875 C22.50289063 16.29167969 22.50289063 16.29167969 23 18 C23.58187468 19.93793856 24.16503465 21.87549211 24.75 23.8125 C25.16715317 25.20818801 25.58402437 26.60396057 26 28 C26.33 28 26.66 28 27 28 C27.20157715 27.25838623 27.4031543 26.51677246 27.61083984 25.75268555 C28.52659466 22.39605753 29.45069253 19.04178247 30.375 15.6875 C30.69210937 14.52025391 31.00921875 13.35300781 31.3359375 12.15039062 C31.6453125 11.03212891 31.9546875 9.91386719 32.2734375 8.76171875 C32.55622559 7.73006592 32.83901367 6.69841309 33.13037109 5.63549805 C34 3 34 3 36 0 C38.7885289 -0.22107787 41.34653181 -0.28107535 44.125 -0.1875 C44.87910156 -0.17396484 45.63320313 -0.16042969 46.41015625 -0.14648438 C48.27374127 -0.11109985 50.13695978 -0.05729167 52 0 C51.40131955 4.55547653 50.19360721 8.38546051 48.4375 12.625 C47.89679484 13.94387084 47.35645015 15.2628895 46.81640625 16.58203125 C46.52523926 17.2879541 46.23407227 17.99387695 45.93408203 18.72119141 C44.21850873 22.90654456 42.55062659 27.11103458 40.875 31.3125 C39.90952837 33.72701861 38.94358736 36.14128665 37.97167969 38.55322266 C37.28966829 40.27058905 36.62513286 41.99494945 35.97363281 43.72412109 C35.63428711 44.61309082 35.29494141 45.50206055 34.9453125 46.41796875 C34.64383301 47.22387451 34.34235352 48.02978027 34.03173828 48.86010742 C32.93030948 51.1445427 32.00832811 52.45617699 30 54 C24.36818182 54.80454545 24.36818182 54.80454545 22 54 C18.98443947 50.16666034 17.00797493 46.10371438 15.125 41.625 C14.74710327 40.72914185 14.74710327 40.72914185 14.36157227 39.81518555 C12.15615239 34.52286171 10.16054929 29.15598148 8.19116211 23.7722168 C6.38645606 18.88464536 4.31518844 14.1892274 1.98046875 9.52734375 C0.76101309 6.38396602 0.38010203 3.33917588 0 0 Z " fill="#4DBBE3" transform="translate(310,52)"/>
<path d="M0 0 C3.38530025 1.57192253 6.29796904 3.4173611 9 6 C10 9 10 9 8.9609375 11.26171875 C8.17589844 12.46248047 8.17589844 12.46248047 7.375 13.6875 C6.86710937 14.49574219 6.35921875 15.30398437 5.8359375 16.13671875 C4 18 4 18 1.4765625 18.39453125 C-1 18 -1 18 -4 16 C-5.9504073 15.64834183 -5.9504073 15.64834183 -8 15.6875 C-9.0209375 15.66236328 -9.0209375 15.66236328 -10.0625 15.63671875 C-12.7324536 16.13733505 -13.40487282 16.78160754 -15 19 C-15.30691278 21.62755497 -15.44098448 24.0309497 -15.44140625 26.66015625 C-15.45461411 27.40583359 -15.46782196 28.15151093 -15.48143005 28.91978455 C-15.52232207 31.30072793 -15.54399999 33.68128484 -15.5625 36.0625 C-15.58626746 38.44716869 -15.6143417 40.83147224 -15.65428162 43.21592712 C-15.67868451 44.69932831 -15.69350578 46.18292375 -15.69789124 47.66651917 C-15.77546627 52.77546627 -15.77546627 52.77546627 -18 55 C-20.93359375 55.265625 -20.93359375 55.265625 -24.4375 55.25 C-26.16806641 55.25773437 -26.16806641 55.25773437 -27.93359375 55.265625 C-31 55 -31 55 -34 53 C-34.36749268 50.87475586 -34.36749268 50.87475586 -34.35644531 48.21484375 C-34.35944641 47.2204126 -34.36244751 46.22598145 -34.36553955 45.20141602 C-34.35319275 44.12432373 -34.34084595 43.04723145 -34.328125 41.9375 C-34.32625183 40.835271 -34.32437866 39.73304199 -34.32244873 38.59741211 C-34.31571733 36.26380394 -34.30178145 33.93020725 -34.28125 31.59667969 C-34.25012918 28.01486791 -34.24028416 24.43349598 -34.234375 20.8515625 C-34.22520403 18.58853628 -34.21482797 16.32551455 -34.203125 14.0625 C-34.19887512 12.98540771 -34.19462524 11.90831543 -34.19024658 10.79858398 C-34.18063904 9.80415283 -34.17103149 8.80972168 -34.16113281 7.78515625 C-34.15430481 6.90738525 -34.14747681 6.02961426 -34.14044189 5.12524414 C-34 3 -34 3 -33 1 C-31.04233719 0.91917906 -29.08373272 0.86089222 -27.125 0.8125 C-25.48917969 0.76029297 -25.48917969 0.76029297 -23.8203125 0.70703125 C-22.88960937 0.80371094 -21.95890625 0.90039062 -21 1 C-19 4 -19 4 -19 8 C-18.34 8 -17.68 8 -17 8 C-16.7525 7.4225 -16.505 6.845 -16.25 6.25 C-12.36667649 -0.73998232 -7.61972033 -1.38447139 0 0 Z " fill="#4DBCE3" transform="translate(151,51)"/>
<path d="M0 0 C2.31243792 -0.02685412 4.6249627 -0.04632841 6.9375 -0.0625 C8.22527344 -0.07410156 9.51304687 -0.08570313 10.83984375 -0.09765625 C14 0 14 0 15 1 C15.09939626 3.05012846 15.12799553 5.10371392 15.12939453 7.15625 C15.13254669 8.47431641 15.13569885 9.79238281 15.13894653 11.15039062 C15.13715675 12.60026075 15.1351058 14.05013058 15.1328125 15.5 C15.13348557 16.97591162 15.13445563 18.45182313 15.13571167 19.92773438 C15.13718848 23.02475029 15.13503464 26.12173742 15.13037109 29.21875 C15.1246738 33.19708549 15.1279529 37.17535352 15.13394356 41.15368652 C15.13754963 44.20247917 15.13641037 47.25125571 15.13381577 50.30004883 C15.13314662 51.76733406 15.13397447 53.23462074 15.13629532 54.7019043 C15.13882257 56.74918593 15.1342906 58.79647266 15.12939453 60.84375 C15.12859894 62.01099609 15.12780334 63.17824219 15.12698364 64.38085938 C15 67 15 67 14 68 C11.6015625 68.23828125 11.6015625 68.23828125 8.625 68.3125 C7.64789063 68.34988281 6.67078125 68.38726562 5.6640625 68.42578125 C3 68 3 68 1.1484375 66.23046875 C0 64 0 64 0 60 C-1.485 60.495 -1.485 60.495 -3 61 C-3.33 60.34 -3.66 59.68 -4 59 C-3.01 58.01 -2.02 57.02 -1 56 C-2.65 56.66 -4.3 57.32 -6 58 C-6.8125 55.3125 -6.8125 55.3125 -7 52 C-4.625 49.1875 -4.625 49.1875 -2 47 C-0.17883997 45.17883997 -0.8676492 42.69328236 -0.86328125 40.2734375 C-0.86714844 39.52320313 -0.87101562 38.77296875 -0.875 38 C-0.87113281 37.24976563 -0.86726563 36.49953125 -0.86328125 35.7265625 C-0.52324459 32.06393883 -0.52324459 32.06393883 -2 29 C-2.04080783 27.00041636 -2.04254356 24.99954746 -2 23 C-1.01 22.67 -0.02 22.34 1 22 C0.67 21.67 0.34 21.34 0 21 C-0.08685603 19.43827255 -0.10702219 17.87270656 -0.09765625 16.30859375 C-0.09443359 15.36435547 -0.09121094 14.42011719 -0.08789062 13.44726562 C-0.07951172 12.45404297 -0.07113281 11.46082031 -0.0625 10.4375 C-0.05798828 9.44041016 -0.05347656 8.44332031 -0.04882812 7.41601562 C-0.03700007 4.94395151 -0.02051849 2.47200482 0 0 Z " fill="#48BBE3" transform="translate(261,38)"/>
<path d="M0 0 C1.27875 0.00257812 2.5575 0.00515625 3.875 0.0078125 C5.15375 0.00523438 6.4325 0.00265625 7.75 0 C10.875 0.1328125 10.875 0.1328125 11.875 1.1328125 C11.97361598 2.75408673 12.00298767 4.37963618 12.00439453 6.00390625 C12.00754669 7.04168213 12.01069885 8.07945801 12.01394653 9.14868164 C12.0119223 10.27781982 12.00989807 11.40695801 12.0078125 12.5703125 C12.00924759 14.29592407 12.00924759 14.29592407 12.01071167 16.05639648 C12.01139369 18.49430394 12.0095379 20.9322132 12.00537109 23.37011719 C12.00002317 27.11657768 12.00531539 30.86291827 12.01171875 34.609375 C12.01105797 36.97135443 12.00977682 39.33333379 12.0078125 41.6953125 C12.00983673 42.82445068 12.01186096 43.95358887 12.01394653 45.11694336 C12.01079437 46.15471924 12.00764221 47.19249512 12.00439453 48.26171875 C12.00359894 49.18025635 12.00280334 50.09879395 12.00198364 51.04516602 C11.875 53.1328125 11.875 53.1328125 10.875 54.1328125 C8.54339945 54.23190552 6.20870058 54.26251754 3.875 54.2578125 C2.59625 54.26039062 1.3175 54.26296875 0 54.265625 C-3.125 54.1328125 -3.125 54.1328125 -4.125 53.1328125 C-4.22361598 51.51153827 -4.25298767 49.88598882 -4.25439453 48.26171875 C-4.25754669 47.22394287 -4.26069885 46.18616699 -4.26394653 45.11694336 C-4.2619223 43.98780518 -4.25989807 42.85866699 -4.2578125 41.6953125 C-4.25924759 39.96970093 -4.25924759 39.96970093 -4.26071167 38.20922852 C-4.26139369 35.77132106 -4.2595379 33.3334118 -4.25537109 30.89550781 C-4.25002317 27.14904732 -4.25531539 23.40270673 -4.26171875 19.65625 C-4.26105797 17.29427057 -4.25977682 14.93229121 -4.2578125 12.5703125 C-4.25983673 11.44117432 -4.26186096 10.31203613 -4.26394653 9.14868164 C-4.26079437 8.11090576 -4.25764221 7.07312988 -4.25439453 6.00390625 C-4.25359894 5.08536865 -4.25280334 4.16683105 -4.25198364 3.22045898 C-4.04505705 -0.18147189 -3.49100407 0.14836767 0 0 Z " fill="#47BAE4" transform="translate(292.125,51.8671875)"/>
<path d="M0 0 C4.55830889 2.65559137 8.59632469 5.77183962 11.9765625 9.828125 C11.9765625 10.488125 11.9765625 11.148125 11.9765625 11.828125 C10.6565625 11.498125 9.3365625 11.168125 7.9765625 10.828125 C8.3065625 10.168125 8.6365625 9.508125 8.9765625 8.828125 C6.3365625 9.158125 3.6965625 9.488125 0.9765625 9.828125 C1.6365625 10.158125 2.2965625 10.488125 2.9765625 10.828125 C2.6465625 11.818125 2.3165625 12.808125 1.9765625 13.828125 C1.3165625 13.498125 0.6565625 13.168125 -0.0234375 12.828125 C0.3065625 15.468125 0.6365625 18.108125 0.9765625 20.828125 C-6.2834375 20.828125 -13.5434375 20.828125 -21.0234375 20.828125 C-21.0234375 19.508125 -21.0234375 18.188125 -21.0234375 16.828125 C-23.0034375 16.498125 -24.9834375 16.168125 -27.0234375 15.828125 C-27.1265625 14.879375 -27.2296875 13.930625 -27.3359375 12.953125 C-27.70883045 9.53704999 -27.70883045 9.53704999 -31.0234375 7.828125 C-29.98910623 6.88253813 -28.94549604 5.94709916 -27.8984375 5.015625 C-27.31835938 4.49355469 -26.73828125 3.97148438 -26.140625 3.43359375 C-18.57143288 -2.30614419 -8.91381142 -3.45496567 0 0 Z " fill="#4EBBE3" transform="translate(198.0234375,52.171875)"/>
<path d="M0 0 C4.04110064 1.23022436 6.28565071 3.25863661 8.4296875 6.83203125 C9.54245699 11.38427006 10.45594697 16.2141679 8.1015625 20.48828125 C5.15437682 24.11012389 2.56795725 26.47713474 -2.1328125 27.01953125 C-7.61707449 26.47110505 -11.1420826 24.66602403 -14.8203125 20.39453125 C-16.62452419 15.72480687 -16.69697642 11.58947839 -14.7578125 6.95703125 C-10.23682966 1.38115241 -7.20449243 -1.29777894 0 0 Z " fill="#FAFDFD" transform="translate(251.8828125,65.35546875)"/>
<path d="M0 0 C3.18479962 1.86745069 5.47717715 4.15893715 7.4375 7.3125 C8.56268843 12.68840028 7.72307247 16.6535892 5.1875 21.375 C2.04524174 25.14570991 0.47899702 25.835667 -4.375 26.375 C-8.69296607 25.92831385 -10.69326548 24.7684289 -14 22 C-16.91459869 17.36268318 -16.87258114 12.28769254 -16 7 C-12.16645583 0.07059681 -7.75750336 -1.84076351 0 0 Z " fill="#FAFDFE" transform="translate(396,66)"/>
<path d="M0 0 C11.09172467 -0.48754834 11.09172467 -0.48754834 14.8671875 1.5390625 C17.70399225 4.81229874 17.63898746 7.50043319 17.4375 11.625 C17.43169922 12.305625 17.42589844 12.98625 17.41992188 13.6875 C17.29599639 18.70400361 17.29599639 18.70400361 15 21 C12.41048555 21.14547834 9.95814609 21.18649052 7.375 21.125 C3.724375 21.063125 3.724375 21.063125 0 21 C0 14.07 0 7.14 0 0 Z " fill="#EC9458" transform="translate(133,122)"/>
<path d="M0 0 C1.27875 0.00257812 2.5575 0.00515625 3.875 0.0078125 C5.15375 0.00523438 6.4325 0.00265625 7.75 0 C10.875 0.1328125 10.875 0.1328125 11.875 1.1328125 C11.97409302 3.46441305 12.00470504 5.79911192 12 8.1328125 C12.00386719 10.0509375 12.00386719 10.0509375 12.0078125 12.0078125 C11.875 15.1328125 11.875 15.1328125 10.875 16.1328125 C8.54339945 16.23190552 6.20870058 16.26251754 3.875 16.2578125 C2.59625 16.26039062 1.3175 16.26296875 0 16.265625 C-3.125 16.1328125 -3.125 16.1328125 -4.125 15.1328125 C-4.22409302 12.80121195 -4.25470504 10.46651308 -4.25 8.1328125 C-4.25257813 6.8540625 -4.25515625 5.5753125 -4.2578125 4.2578125 C-4.08423261 0.17357989 -4.08423261 0.17357989 0 0 Z " fill="#EF853E" transform="translate(292.125,29.8671875)"/>
<path d="M0 0 C11.53245501 -0.27458226 11.53245501 -0.27458226 15 2 C16.54163175 5.0832635 16.29747535 7.60878099 16 11 C14.4375 12.9375 14.4375 12.9375 12 14 C8.25 14.1875 8.25 14.1875 5 14 C5 16.31 5 18.62 5 21 C3.35 21 1.7 21 0 21 C0 14.07 0 7.14 0 0 Z " fill="#EE7F37" transform="translate(281,122)"/>
<path d="M0 0 C1.98 0 3.96 0 6 0 C6.33 2.97 6.66 5.94 7 9 C7.66 9 8.32 9 9 9 C9.33 6.03 9.66 3.06 10 0 C11.32 0 12.64 0 14 0 C14.99 2.31 15.98 4.62 17 7 C17.66 4.69 18.32 2.38 19 0 C20.65 0 22.3 0 24 0 C23.54548816 1.73017508 23.08621143 3.45909877 22.625 5.1875 C22.24214844 6.63189453 22.24214844 6.63189453 21.8515625 8.10546875 C21.05233704 10.82210207 20.0968638 13.39137175 19 16 C17.68 16 16.36 16 15 16 C14.01 14.02 13.02 12.04 12 10 C11.34 11.98 10.68 13.96 10 16 C8.35 16 6.7 16 5 16 C4.80664062 15.34773437 4.61328125 14.69546875 4.4140625 14.0234375 C3.01359552 9.3228602 1.58791274 4.64159109 0 0 Z " fill="#EE8A46" transform="translate(237,127)"/>
<path d="M0 0 C4.5021067 0.78984328 5.94681879 1.89963585 8.5625 5.625 C9.18741523 9.58279649 9.17256839 11.63363886 7.0625 15.0625 C4.03063683 16.95741448 2.00169544 17.26536692 -1.53125 17.07421875 C-3.4375 16.625 -3.4375 16.625 -5.9375 14.5 C-7.70489304 11.11249667 -8.0652457 9.3914742 -7.4375 5.625 C-5.35210259 1.78786876 -4.33645599 0.78844654 0 0 Z " fill="#ED8741" transform="translate(226.4375,126.375)"/>
<path d="M0 0 C1.60332791 -0.08121924 3.20784026 -0.13929134 4.8125 -0.1875 C6.15248047 -0.23970703 6.15248047 -0.23970703 7.51953125 -0.29296875 C10 0 10 0 11.8125 1.09375 C13.59483911 3.9548733 13.28638532 6.35836104 13.1875 9.6875 C13.16042969 10.86699219 13.13335937 12.04648438 13.10546875 13.26171875 C13.07066406 14.16535156 13.03585937 15.06898438 13 16 C9.80658374 17.59670813 6.47400235 17.37074333 3 17 C0.5 15.875 0.5 15.875 -1 14 C-1.4375 10.9375 -1.4375 10.9375 -1 8 C1.91765 6.0549 3.62537285 5.54723683 7 5 C4.69 4.67 2.38 4.34 0 4 C0 2.68 0 1.36 0 0 Z " fill="#EC9459" transform="translate(301,127)"/>
<path d="M0 0 C1.60332791 -0.08121924 3.20784026 -0.13929134 4.8125 -0.1875 C6.15248047 -0.23970703 6.15248047 -0.23970703 7.51953125 -0.29296875 C10 0 10 0 11.8125 1.09375 C13.59483911 3.9548733 13.28638532 6.35836104 13.1875 9.6875 C13.16042969 10.86699219 13.13335937 12.04648438 13.10546875 13.26171875 C13.07066406 14.16535156 13.03585937 15.06898438 13 16 C9.23850318 17.25383227 5.9340789 17.44258388 2 17 C0 15.875 0 15.875 -1 14 C-1.375 10.9375 -1.375 10.9375 -1 8 C1.91765 6.0549 3.62537285 5.54723683 7 5 C4.69 4.67 2.38 4.34 0 4 C0 2.68 0 1.36 0 0 Z " fill="#EF9457" transform="translate(357,127)"/>
<path d="M0 0 C1.65 0 3.3 0 5 0 C5.99 1.98 6.98 3.96 8 6 C8.99 4.02 9.98 2.04 11 0 C12.65 0 14.3 0 16 0 C15.50860655 7.37090178 12.8422569 14.64918819 8.03515625 20.31640625 C5.30198548 22.5774362 3.4462613 22.31329648 0 22 C0.33 20.35 0.66 18.7 1 17 C2.65 17 4.3 17 6 17 C5.566875 15.94039062 5.13375 14.88078125 4.6875 13.7890625 C4.12481865 12.40111517 3.56232855 11.0130903 3 9.625 C2.71382812 8.92632812 2.42765625 8.22765625 2.1328125 7.5078125 C0 2.2265625 0 2.2265625 0 0 Z " fill="#ED9459" transform="translate(172,127)"/>
<path d="M0 0 C2.4375 1.625 2.4375 1.625 4 4 C4.25 7.25 4.25 7.25 4 10 C0.7 10 -2.6 10 -6 10 C-6 10.66 -6 11.32 -6 12 C-2.535 11.505 -2.535 11.505 1 11 C1.33 12.32 1.66 13.64 2 15 C-1.27057143 17.18038095 -2.20519469 17.63246755 -6 17 C-8.81135401 15.00081493 -10.65872562 13.48572038 -11.453125 10.02734375 C-11.63020914 6.64377174 -11.23243449 4.37189518 -9.4375 1.5 C-6.05111671 -0.58392818 -3.90614682 -0.55802097 0 0 Z " fill="#EE8239" transform="translate(400,127)"/>
<path d="M0 0 C1.65 0 3.3 0 5 0 C5.99 2.64 6.98 5.28 8 8 C8.309375 6.865625 8.61875 5.73125 8.9375 4.5625 C10 1 10 1 11 0 C12.66617115 -0.04063832 14.33388095 -0.042721 16 0 C15.29328093 2.16526694 14.57708313 4.32662849 13.84765625 6.484375 C13.31935843 8.0522266 12.80399156 9.62456926 12.30859375 11.203125 C10.75491424 15.85528536 9.01863367 18.93818387 5 22 C2.1875 22.3125 2.1875 22.3125 0 22 C0 20.35 0 18.7 0 17 C1.65 17 3.3 17 5 17 C4.6390625 16.10796875 4.278125 15.2159375 3.90625 14.296875 C3.21015625 12.54117188 3.21015625 12.54117188 2.5 10.75 C2.0359375 9.58984375 1.571875 8.4296875 1.09375 7.234375 C0 4 0 4 0 0 Z " fill="#ED8039" transform="translate(317,127)"/>
<path d="M0 0 C1.65 0 3.3 0 5 0 C5.33 3.63 5.66 7.26 6 11 C6.99 11.33 7.98 11.66 9 12 C9 8.04 9 4.08 9 0 C10.65 0 12.3 0 14 0 C14 5.28 14 10.56 14 16 C10.87293041 17.5635348 7.42017557 17.39958487 4 17 C1 15 1 15 0 12 C-0.068991 9.93854893 -0.08467727 7.87498599 -0.0625 5.8125 C-0.05347656 4.72582031 -0.04445312 3.63914063 -0.03515625 2.51953125 C-0.02355469 1.68808594 -0.01195312 0.85664062 0 0 Z " fill="#ED8A48" transform="translate(155,127)"/>
<path d="M0 0 C1.5675 -0.0825 3.135 -0.165 4.75 -0.25 C5.63171875 -0.29640625 6.5134375 -0.3428125 7.421875 -0.390625 C10 0 10 0 12.3125 1.625 C14.49363528 4.69474596 14.41201817 6.52358213 14.25 10.25 C14.21390625 11.32765625 14.1778125 12.4053125 14.140625 13.515625 C14.07101563 14.74539062 14.07101563 14.74539062 14 16 C12.35 16 10.7 16 9 16 C8.67 12.37 8.34 8.74 8 5 C6.68 4.67 5.36 4.34 4 4 C4 7.96 4 11.92 4 16 C2.68 16 1.36 16 0 16 C0 10.72 0 5.44 0 0 Z " fill="#EA8745" transform="translate(201,127)"/>
<path d="M0 0 C1.32 0.66 2.64 1.32 4 2 C4.05383848 4.45862401 4.09359038 6.9160755 4.125 9.375 C4.14175781 10.07367188 4.15851563 10.77234375 4.17578125 11.4921875 C4.19344267 13.32897486 4.10303261 15.16601963 4 17 C2 19 2 19 -0.53125 19.046875 C-1.5109375 18.94890625 -2.490625 18.8509375 -3.5 18.75 C-4.4796875 18.66234375 -5.459375 18.5746875 -6.46875 18.484375 C-9 18 -9 18 -11 16 C-10.67 15.01 -10.34 14.02 -10 13 C-9.34 13 -8.68 13 -8 13 C-8 13.66 -8 14.32 -8 15 C-5.69 15 -3.38 15 -1 15 C-1.33 13.68 -1.66 12.36 -2 11 C-3.65 10.67 -5.3 10.34 -7 10 C-7 8.68 -7 7.36 -7 6 C-5.02 6 -3.04 6 -1 6 C-1.020625 5.195625 -1.04125 4.39125 -1.0625 3.5625 C-1 1 -1 1 0 0 Z " fill="#ED8945" transform="translate(146,124)"/>
<path d="M0 0 C1.32 0 2.64 0 4 0 C4 1.32 4 2.64 4 4 C5.98 4 7.96 4 10 4 C10 5.32 10 6.64 10 8 C8.02 8 6.04 8 4 8 C4.33 10.64 4.66 13.28 5 16 C6.65 16 8.3 16 10 16 C9.67 17.65 9.34 19.3 9 21 C3.49461207 21.36702586 3.49461207 21.36702586 1.3190918 19.75268555 C-0.31737393 17.57830326 -0.35034179 16.46606412 -0.29296875 13.76953125 C-0.28330078 12.96708984 -0.27363281 12.16464844 -0.26367188 11.33789062 C-0.23853516 10.50451172 -0.21339844 9.67113281 -0.1875 8.8125 C-0.17396484 7.96751953 -0.16042969 7.12253906 -0.14648438 6.25195312 C-0.11115799 4.16769616 -0.05735139 2.08376723 0 0 Z " fill="#ED7F3A" transform="translate(375,123)"/>
<path d="M0 0 C3.10243235 0.88640924 4.99921073 2.24711822 7.16015625 4.6171875 C7.16015625 5.6071875 7.16015625 6.5971875 7.16015625 7.6171875 C0.56015625 7.6171875 -6.03984375 7.6171875 -12.83984375 7.6171875 C-11.83984375 3.6171875 -11.83984375 3.6171875 -9.83984375 1.3046875 C-6.15123298 -0.77015606 -4.09196504 -0.66947007 0 0 Z " fill="#ECF7FB" transform="translate(190.83984375,64.3828125)"/>
<path d="M0 0 C1.65 0 3.3 0 5 0 C5.06058594 1.24136719 5.12117188 2.48273438 5.18359375 3.76171875 C5.26803623 5.40365577 5.35268236 7.04558232 5.4375 8.6875 C5.47681641 9.50412109 5.51613281 10.32074219 5.55664062 11.16210938 C5.76898003 15.19655811 6.04447922 19.05747309 7 23 C4.625 23.1875 4.625 23.1875 2 23 C-0.13604308 19.79593538 -0.24208908 19.00399253 -0.1953125 15.33203125 C-0.18564453 13.99301758 -0.18564453 13.99301758 -0.17578125 12.62695312 C-0.15902344 11.69818359 -0.14226562 10.76941406 -0.125 9.8125 C-0.11597656 8.87212891 -0.10695313 7.93175781 -0.09765625 6.96289062 C-0.07409056 4.64167032 -0.04119116 2.32096356 0 0 Z " fill="#EA955A" transform="translate(345,120)"/>
<path d="M0 0 C1.26714844 -0.01417969 2.53429687 -0.02835938 3.83984375 -0.04296875 C7.0625 0.1875 7.0625 0.1875 9.0625 2.1875 C9.30300903 4.93362427 9.30300903 4.93362427 9.28955078 8.47314453 C9.28984283 9.11717224 9.29013489 9.76119995 9.29043579 10.42474365 C9.28904074 12.55673627 9.27347174 14.68838082 9.2578125 16.8203125 C9.25408298 18.29718841 9.25123572 19.77406678 9.24923706 21.25094604 C9.24159574 25.14067398 9.22194308 29.03025288 9.1998291 32.91992188 C9.17938135 36.88800032 9.17023764 40.85610282 9.16015625 44.82421875 C9.13869756 52.61204716 9.10455572 60.39975271 9.0625 68.1875 C8.7325 68.1875 8.4025 68.1875 8.0625 68.1875 C7.7325 46.7375 7.4025 25.2875 7.0625 3.1875 C0.1325 2.6925 0.1325 2.6925 -6.9375 2.1875 C-6.9375 8.7875 -6.9375 15.3875 -6.9375 22.1875 C-7.5975 21.8575 -8.2575 21.5275 -8.9375 21.1875 C-8.79929731 17.8746348 -8.65066222 14.56232011 -8.5 11.25 C-8.46068359 10.30447266 -8.42136719 9.35894531 -8.38085938 8.38476562 C-8.33896484 7.48564453 -8.29707031 6.58652344 -8.25390625 5.66015625 C-8.21724854 4.82750244 -8.18059082 3.99484863 -8.14282227 3.13696289 C-7.67217469 -1.33167075 -3.69195362 0.01874088 0 0 Z " fill="#89CAE3" transform="translate(267.9375,35.8125)"/>
<path d="M0 0 C1.93166016 0.01740234 1.93166016 0.01740234 3.90234375 0.03515625 C5.19269531 0.04417969 6.48304688 0.05320313 7.8125 0.0625 C8.81152344 0.07410156 9.81054688 0.08570313 10.83984375 0.09765625 C11.16984375 0.75765625 11.49984375 1.41765625 11.83984375 2.09765625 C7.21984375 2.42765625 2.59984375 2.75765625 -2.16015625 3.09765625 C-2.16015625 19.26765625 -2.16015625 35.43765625 -2.16015625 52.09765625 C2.45984375 52.09765625 7.07984375 52.09765625 11.83984375 52.09765625 C11.50984375 52.75765625 11.17984375 53.41765625 10.83984375 54.09765625 C8.52740583 54.12451037 6.21488105 54.14398466 3.90234375 54.16015625 C2.61457031 54.17175781 1.32679688 54.18335938 0 54.1953125 C-3.16015625 54.09765625 -3.16015625 54.09765625 -4.16015625 53.09765625 C-4.25877223 51.47638202 -4.28814392 49.85083257 -4.28955078 48.2265625 C-4.29270294 47.18878662 -4.2958551 46.15101074 -4.29910278 45.08178711 C-4.29707855 43.95264893 -4.29505432 42.82351074 -4.29296875 41.66015625 C-4.29440384 39.93454468 -4.29440384 39.93454468 -4.29586792 38.17407227 C-4.29654994 35.73616481 -4.29469415 33.29825555 -4.29052734 30.86035156 C-4.28517942 27.11389107 -4.29047164 23.36755048 -4.296875 19.62109375 C-4.29621422 17.25911432 -4.29493307 14.89713496 -4.29296875 12.53515625 C-4.29499298 11.40601807 -4.29701721 10.27687988 -4.29910278 9.11352539 C-4.29595062 8.07574951 -4.29279846 7.03797363 -4.28955078 5.96875 C-4.28875519 5.0502124 -4.28795959 4.1316748 -4.28713989 3.18530273 C-4.07894712 -0.23744453 -3.51670238 0.10867436 0 0 Z " fill="#6EC0DD" transform="translate(292.16015625,51.90234375)"/>
<path d="M0 0 C3.96 0 7.92 0 12 0 C11.67 0.66 11.34 1.32 11 2 C8.03 1.67 5.06 1.34 2 1 C2 1.66 2 2.32 2 3 C4.31 3 6.62 3 9 3 C9 3.66 9 4.32 9 5 C6.36 5 3.72 5 1 5 C1.01160156 5.96292969 1.02320312 6.92585938 1.03515625 7.91796875 C1.14935919 22.62516597 0.56759922 37.30582238 0 52 C-0.33 52 -0.66 52 -1 52 C-1.02529271 44.91586059 -1.04284261 37.83173277 -1.05493164 30.74755859 C-1.05996974 28.33609583 -1.06680034 25.92463614 -1.07543945 23.51318359 C-1.08752787 20.05305221 -1.09323344 16.5929611 -1.09765625 13.1328125 C-1.10281754 12.04944611 -1.10797882 10.96607971 -1.11329651 9.84988403 C-1.11337204 8.8489975 -1.11344757 7.84811096 -1.11352539 6.81689453 C-1.115746 5.93309113 -1.11796661 5.04928772 -1.12025452 4.13870239 C-1 2 -1 2 0 0 Z " fill="#80CAE5" transform="translate(118,52)"/>
<path d="M0 0 C1.74965358 -0.05429959 3.49979787 -0.09292823 5.25 -0.125 C6.22453125 -0.14820312 7.1990625 -0.17140625 8.203125 -0.1953125 C11.05069951 0.00354047 12.63037132 0.44561054 15 2 C16.4783226 4.95664519 16.06032783 7.74229737 16 11 C14.02 11.99 14.02 11.99 12 13 C12 11.68 12 10.36 12 9 C12.99 9 13.98 9 15 9 C13.88145414 5.27385847 13.88145414 5.27385847 11 3 C11 4.98 11 6.96 11 9 C8.69 9.33 6.38 9.66 4 10 C3.875 4.25 3.875 4.25 5 2 C3.35 1.67 1.7 1.34 0 1 C0 0.67 0 0.34 0 0 Z " fill="#ED8F50" transform="translate(281,122)"/>
<path d="M0 0 C1.23556641 0.01740234 1.23556641 0.01740234 2.49609375 0.03515625 C3.32238281 0.04417969 4.14867187 0.05320312 5 0.0625 C5.63808594 0.07410156 6.27617187 0.08570312 6.93359375 0.09765625 C6.93359375 1.41765625 6.93359375 2.73765625 6.93359375 4.09765625 C5.28359375 4.09765625 3.63359375 4.09765625 1.93359375 4.09765625 C1.93359375 8.05765625 1.93359375 12.01765625 1.93359375 16.09765625 C0.28359375 16.09765625 -1.36640625 16.09765625 -3.06640625 16.09765625 C-3.0932572 13.61841824 -3.11317172 11.13946785 -3.12890625 8.66015625 C-3.14147461 7.59958008 -3.14147461 7.59958008 -3.15429688 6.51757812 C-3.16294213 4.71072066 -3.11860636 2.90378022 -3.06640625 1.09765625 C-2.06640625 0.09765625 -2.06640625 0.09765625 0 0 Z " fill="#EC8E4F" transform="translate(411.06640625,126.90234375)"/>
<path d="M0 0 C1.69141656 0.08963062 3.37959602 0.24577676 5.0625 0.4375 C6.44115234 0.59025391 6.44115234 0.59025391 7.84765625 0.74609375 C8.55792969 0.82988281 9.26820313 0.91367188 10 1 C10.48275862 7.27586207 10.48275862 7.27586207 8.375 10.4375 C5.397402 12.39644605 3.49644963 12.31785906 0 12 C0 11.67 0 11.34 0 11 C1.65 11 3.3 11 5 11 C5 10.01 5 9.02 5 8 C4.195625 8.020625 3.39125 8.04125 2.5625 8.0625 C0 8 0 8 -1 7 C-1.125 4 -1.125 4 -1 1 C-0.67 0.67 -0.34 0.34 0 0 Z " fill="#EB8844" transform="translate(225,131)"/>
<path d="M0 0 C-0.66 1.98 -1.32 3.96 -2 6 C-3.98 6 -5.96 6 -8 6 C-8 7.32 -8 8.64 -8 10 C-6.35 10 -4.7 10 -3 10 C-2.67 11.65 -2.34 13.3 -2 15 C-4.31 15 -6.62 15 -9 15 C-9 14.34 -9 13.68 -9 13 C-9.66 13 -10.32 13 -11 13 C-11.33 13.99 -11.66 14.98 -12 16 C-12 13.69 -12 11.38 -12 9 C-11.01 9 -10.02 9 -9 9 C-9 6.36 -9 3.72 -9 1 C-2.25 -1.125 -2.25 -1.125 0 0 Z " fill="#F5A97A" transform="translate(147,124)"/>
<path d="M0 0 C0.99 0 1.98 0 3 0 C3.33 1.98 3.66 3.96 4 6 C5.65 6.33 7.3 6.66 9 7 C8.73114094 10.85364648 8.17995652 12.76348571 5.8125 15.875 C2.54353115 18.34488758 0.99774632 18.46485422 -3 18 C-2.67 16.35 -2.34 14.7 -2 13 C-0.35 13 1.3 13 3 13 C3 10.36 3 7.72 3 5 C2.34 5 1.68 5 1 5 C0.67 3.35 0.34 1.7 0 0 Z " fill="#EC8442" transform="translate(175,131)"/>
<path d="M0 0 C1.231394 3.69418201 0.64432764 6.2056261 0 10 C-3.52059568 11.17353189 -6.306493 11.20146402 -10 11 C-12 9 -12 9 -12.125 5.875 C-12.08375 4.92625 -12.0425 3.9775 -12 3 C-10.35 2.67 -8.7 2.34 -7 2 C-7 3.65 -7 5.3 -7 7 C-5.68 7.33 -4.36 7.66 -3 8 C-3 6.68 -3 5.36 -3 4 C-3.66 4 -4.32 4 -5 4 C-5 3.34 -5 2.68 -5 2 C-3.35 1.34 -1.7 0.68 0 0 Z " fill="#F07F36" transform="translate(368,132)"/>
<path d="M0 0 C0.33 0 0.66 0 1 0 C1 1.98 1 3.96 1 6 C-2.3 6 -5.6 6 -9 6 C-9 6.66 -9 7.32 -9 8 C-5.535 7.505 -5.535 7.505 -2 7 C-1.67 8.32 -1.34 9.64 -1 11 C-4.24826674 13.16551116 -5.23094157 13.55156953 -9 13 C-11.3125 11 -11.3125 11 -13 9 C-12.34 9 -11.68 9 -11 9 C-10.67 7.68 -10.34 6.36 -10 5 C-6.7 5 -3.4 5 0 5 C0 3.35 0 1.7 0 0 Z " fill="#EDA776" transform="translate(403,131)"/>
<path d="M0 0 C1.98 0 3.96 0 6 0 C6.17942163 3.94727588 6.09350689 6.5980513 4 10 C2.68 10 1.36 10 0 10 C0 6.7 0 3.4 0 0 Z " fill="#EB985D" transform="translate(262,138)"/>
<path d="M0 0 C0.33 0.66 0.66 1.32 1 2 C0.34 2 -0.32 2 -1 2 C-0.67 3.65 -0.34 5.3 0 7 C-3.3125 7.25 -3.3125 7.25 -7 7 C-8.9375 5 -8.9375 5 -10 3 C-7.29536552 -0.8183075 -4.37912428 -0.24787496 0 0 Z " fill="#EB8D4D" transform="translate(400,127)"/>
<path d="M0 0 C0.99 0 1.98 0 3 0 C3 5.61 3 11.22 3 17 C2.01 17.33 1.02 17.66 0 18 C0 12.06 0 6.12 0 0 Z " fill="#F07C30" transform="translate(346,121)"/>
<path d="M0 0 C1.93166016 0.01740234 1.93166016 0.01740234 3.90234375 0.03515625 C5.19269531 0.04417969 6.48304688 0.05320313 7.8125 0.0625 C8.81152344 0.07410156 9.81054688 0.08570313 10.83984375 0.09765625 C10.83984375 1.08765625 10.83984375 2.07765625 10.83984375 3.09765625 C3.90984375 2.60265625 3.90984375 2.60265625 -3.16015625 2.09765625 C-3.16015625 8.69765625 -3.16015625 15.29765625 -3.16015625 22.09765625 C-3.82015625 21.76765625 -4.48015625 21.43765625 -5.16015625 21.09765625 C-5.02195356 17.78479105 -4.87331847 14.47247636 -4.72265625 11.16015625 C-4.68333984 10.21462891 -4.64402344 9.26910156 -4.60351562 8.29492188 C-4.56162109 7.39580078 -4.51972656 6.49667969 -4.4765625 5.5703125 C-4.43990479 4.73765869 -4.40324707 3.90500488 -4.36547852 3.04711914 C-4.0175965 -0.2558986 -3.42571626 0.10586268 0 0 Z " fill="#6EC4E0" transform="translate(264.16015625,35.90234375)"/>
<path d="M0 0 C2 3 2 3 2 5 C1.01 5.495 1.01 5.495 0 6 C-0.65213292 8.02463255 -0.65213292 8.02463255 -1 10 C-1.7425 9.9175 -2.485 9.835 -3.25 9.75 C-6.78157027 10.07105184 -7.76630364 11.35265617 -10 14 C-10.66 13.67 -11.32 13.34 -12 13 C-11.30132812 12.31292969 -10.60265625 11.62585937 -9.8828125 10.91796875 C-8.97273438 10.01691406 -8.06265625 9.11585937 -7.125 8.1875 C-6.22007813 7.29417969 -5.31515625 6.40085937 -4.3828125 5.48046875 C-1.90168486 3.04361667 -1.90168486 3.04361667 0 0 Z " fill="#EF823F" transform="translate(84,19)"/>
<path d="M0 0 C-0.51776621 4.10447392 -2.64627444 5.95699523 -5.5625 8.75 C-6.80193359 9.94882812 -6.80193359 9.94882812 -8.06640625 11.171875 C-8.70449219 11.77515625 -9.34257813 12.3784375 -10 13 C-11.2077558 9.37673261 -10.54311128 8.35853631 -9 5 C-8.01 5 -7.02 5 -6 5 C-5.8453125 4.0409375 -5.8453125 4.0409375 -5.6875 3.0625 C-5.460625 2.381875 -5.23375 1.70125 -5 1 C-2 0 -2 0 0 0 Z " fill="#EB8745" transform="translate(114,36)"/>
<path d="M0 0 C0 3 0 3 -0.5625 5.1875 C-1.15428962 8.99186184 -0.58008052 12.19724993 0 16 C-5.75206612 11.80578512 -5.75206612 11.80578512 -6.75 8.5625 C-5.62036631 4.70291823 -2.98303672 2.58352287 0 0 Z " fill="#58BDDE" transform="translate(67,103)"/>
<path d="M0 0 C1.67542976 0.28604898 3.34385343 0.61781233 5 1 C5 2.98 5 4.96 5 7 C3.34385343 7.38218767 1.67542976 7.71395102 0 8 C-1 7 -1 7 -1.125 4 C-1 1 -1 1 0 0 Z " fill="#FCF4EE" transform="translate(225,131)"/>
<path d="M0 0 C1.32 0.66 2.64 1.32 4 2 C0.93405406 3.53297297 -2.27111853 3.12131455 -5.6328125 3.09765625 C-6.76056595 3.09553383 -6.76056595 3.09553383 -7.91110229 3.09336853 C-10.3157751 3.08776465 -12.72035527 3.07521157 -15.125 3.0625 C-16.75390491 3.0574855 -18.38281127 3.0529225 -20.01171875 3.04882812 C-24.00784827 3.03779397 -28.00390842 3.02052679 -32 3 C-32.33 3.66 -32.66 4.32 -33 5 C-33 4.01 -33 3.02 -33 2 C-31.55379272 1.96241577 -31.55379272 1.96241577 -30.07836914 1.92407227 C-26.51312158 1.83014694 -22.94807567 1.72989061 -19.38305664 1.62768555 C-17.83785711 1.58428015 -16.29260786 1.54260929 -14.74731445 1.50268555 C-12.53060904 1.44511801 -10.3141552 1.38138576 -8.09765625 1.31640625 C-7.4028566 1.29969376 -6.70805695 1.28298126 -5.99220276 1.26576233 C-2.71237971 1.43497144 -2.71237971 1.43497144 0 0 Z " fill="#82CCE6" transform="translate(209,81)"/>
<path d="M0 0 C1.65 0 3.3 0 5 0 C4.25 6.625 4.25 6.625 2 10 C1.34 10 0.68 10 0 10 C-1.2380014 6.42355152 -0.74926071 3.66305234 0 0 Z " fill="#ED8A49" transform="translate(183,127)"/>
<path d="M0 0 C1.98 0 3.96 0 6 0 C6.33 2.64 6.66 5.28 7 8 C5.68 8.33 4.36 8.66 3 9 C2.01 6.03 1.02 3.06 0 0 Z " fill="#F08244" transform="translate(237,127)"/>
<path d="M0 0 C0.33 0 0.66 0 1 0 C1 3.3 1 6.6 1 10 C-5.625 10.125 -5.625 10.125 -9 9 C-8.67 8.01 -8.34 7.02 -8 6 C-8 6.66 -8 7.32 -8 8 C-6.02 7.67 -4.04 7.34 -2 7 C-1.855625 6.21625 -1.71125 5.4325 -1.5625 4.625 C-1 2 -1 2 0 0 Z " fill="#EE7E34" transform="translate(312,133)"/>
<path d="M0 0 C1.98 0 3.96 0 6 0 C6 0.66 6 1.32 6 2 C6.99 2 7.98 2 9 2 C9 2.99 9 3.98 9 5 C14.28 5.33 19.56 5.66 25 6 C25 6.33 25 6.66 25 7 C15.91876043 7.58884118 8.59985226 7.46394607 1 2 C0.67 1.34 0.34 0.68 0 0 Z " fill="#6CC1DF" transform="translate(170,99)"/>
<path d="M0 0 C1.65 0 3.3 0 5 0 C5.66 2.97 6.32 5.94 7 9 C6.34 8.67 5.68 8.34 5 8 C5 7.34 5 6.68 5 6 C4.34 6 3.68 6 3 6 C2.67 6.99 2.34 7.98 2 9 C0.50178941 5.62902617 0 3.79557881 0 0 Z " fill="#EB8F55" transform="translate(317,127)"/>
<path d="M0 0 C2.64 0 5.28 0 8 0 C8 0.99 8 1.98 8 3 C6.02 3.66 4.04 4.32 2 5 C4.97 5.33 7.94 5.66 11 6 C11 6.33 11 6.66 11 7 C3.25 7.125 3.25 7.125 1 6 C0.375 2.9375 0.375 2.9375 0 0 Z " fill="#F2B085" transform="translate(301,137)"/>
<path d="M0 0 C0.33 0 0.66 0 1 0 C1.30005745 3.11514188 1.27027007 4.5956534 -0.49609375 7.23828125 C-1.13675781 7.92277344 -1.77742188 8.60726562 -2.4375 9.3125 C-3.07558594 10.00988281 -3.71367188 10.70726562 -4.37109375 11.42578125 C-6 13 -6 13 -7 13 C-7.1875 10.625 -7.1875 10.625 -7 8 C-6.01 7.34 -5.02 6.68 -4 6 C-2.9590934 4.35857037 -1.95495674 2.69287785 -1 1 C-0.67 0.67 -0.34 0.34 0 0 Z " fill="#5ABCE3" transform="translate(38,50)"/>
<path d="M0 0 C0.99 0 1.98 0 3 0 C3.33 1.98 3.66 3.96 4 6 C5.65 6.33 7.3 6.66 9 7 C8.01 8.485 8.01 8.485 7 10 C7 10.66 7 11.32 7 12 C5.68 11.67 4.36 11.34 3 11 C3 9.02 3 7.04 3 5 C2.34 5 1.68 5 1 5 C0.67 3.35 0.34 1.7 0 0 Z " fill="#F07C32" transform="translate(175,131)"/>
<path d="M0 0 C2.31 0 4.62 0 7 0 C6.35546875 0.37769531 5.7109375 0.75539062 5.046875 1.14453125 C2.75970238 2.86059908 2.75970238 2.86059908 2.390625 5.69921875 C2.34421875 6.68535156 2.2978125 7.67148438 2.25 8.6875 C2.19328125 9.68136719 2.1365625 10.67523438 2.078125 11.69921875 C2.05234375 12.45847656 2.0265625 13.21773437 2 14 C1.34 14 0.68 14 0 14 C0 9.38 0 4.76 0 0 Z " fill="#F17C31" transform="translate(202,128)"/>
<path d="M0 0 C-0.33 1.65 -0.66 3.3 -1 5 C-3.875 5.1875 -3.875 5.1875 -7 5 C-7.66 4.01 -8.32 3.02 -9 2 C-5.86501708 0.14223235 -3.62528568 -0.20140476 0 0 Z " fill="#EC8D4D" transform="translate(385,139)"/>
<path d="M0 0 C0.33 0 0.66 0 1 0 C1 1.65 1 3.3 1 5 C1.66 5 2.32 5 3 5 C3 6.65 3 8.3 3 10 C2.34 9.67 1.68 9.34 1 9 C0.67 9.66 0.34 10.32 0 11 C-0.66 11 -1.32 11 -2 11 C-2.33 12.32 -2.66 13.64 -3 15 C-4.57156655 11.8568669 -3.11705576 9.634536 -2.0625 6.375 C-1.68222656 5.18648437 -1.30195313 3.99796875 -0.91015625 2.7734375 C-0.60980469 1.85820313 -0.30945313 0.94296875 0 0 Z " fill="#67C2E4" transform="translate(344,55)"/>
<path d="M0 0 C0.66 0.33 1.32 0.66 2 1 C2 1.66 2 2.32 2 3 C2.99 3 3.98 3 5 3 C5 4.65 5 6.3 5 8 C4.50371094 7.6390625 4.00742187 7.278125 3.49609375 6.90625 C-1.29486975 3.63348556 -4.20245406 2.39608896 -10 3 C-9.67 2.34 -9.34 1.68 -9 1 C-2.25 0.875 -2.25 0.875 0 2 C0 1.34 0 0.68 0 0 Z " fill="#5EBFDE" transform="translate(397,63)"/>
<path d="M0 0 C0.33 0.66 0.66 1.32 1 2 C0.01 2 -0.98 2 -2 2 C-2 2.66 -2 3.32 -2 4 C-1.34 4 -0.68 4 0 4 C0 5.32 0 6.64 0 8 C-1.65 7.67 -3.3 7.34 -5 7 C-5.33 5.02 -5.66 3.04 -6 1 C-4.02 0.67 -2.04 0.34 0 0 Z " fill="#F4B891" transform="translate(365,132)"/>
<path d="M0 0 C2 2 2 2 2.1953125 4.1640625 C2.16050781 5.38222656 2.16050781 5.38222656 2.125 6.625 C2.10695313 7.44226563 2.08890625 8.25953125 2.0703125 9.1015625 C2.04710937 9.72804687 2.02390625 10.35453125 2 11 C1.01 11 0.02 11 -1 11 C-1.02688151 9.35425434 -1.04634123 7.70838587 -1.0625 6.0625 C-1.07410156 5.14597656 -1.08570313 4.22945312 -1.09765625 3.28515625 C-1 1 -1 1 0 0 Z " fill="#F07E33" transform="translate(410,131)"/>
<path d="M0 0 C4.11422717 -0.18701033 6.38412961 0.1920648 10 2 C12.66377592 2.46796064 15.30540586 2.73054059 18 3 C18 3.33 18 3.66 18 4 C11.18401613 4.33278764 6.07877934 4.24201565 0 1 C0 0.67 0 0.34 0 0 Z " fill="#83CAE4" transform="translate(379,103)"/>
<path d="M0 0 C1.77049689 -0.05410687 3.54146849 -0.09284119 5.3125 -0.125 C6.29863281 -0.14820312 7.28476562 -0.17140625 8.30078125 -0.1953125 C11 0 11 0 14 2 C12.25895647 3.74104353 9.92635979 3.21311272 7.5625 3.25 C6.57378906 3.27578125 5.58507812 3.3015625 4.56640625 3.328125 C3.71949219 3.21984375 2.87257813 3.1115625 2 3 C1.34 2.01 0.68 1.02 0 0 Z " fill="#6BC6DE" transform="translate(262,103)"/>
<path d="M0 0 C2.6058889 -0.13494246 5.20482111 -0.23402299 7.8125 -0.3125 C8.55048828 -0.35439453 9.28847656 -0.39628906 10.04882812 -0.43945312 C12.20703125 -0.48828125 12.20703125 -0.48828125 16 0 C18.07421875 2.39453125 18.07421875 2.39453125 19 5 C18.67 5.66 18.34 6.32 18 7 C17.75636719 6.04867187 17.75636719 6.04867187 17.5078125 5.078125 C16.0469013 2.58271826 16.0469013 2.58271826 12.3046875 2.171875 C10.83003605 2.01245322 9.35317301 1.87254284 7.875 1.75 C7.12089844 1.67265625 6.36679687 1.5953125 5.58984375 1.515625 C3.72817329 1.32710141 1.86422062 1.16136762 0 1 C0 0.67 0 0.34 0 0 Z " fill="#79C5DD" transform="translate(310,52)"/>
<path d="M0 0 C1.65 0 3.3 0 5 0 C5.33 1.65 5.66 3.3 6 5 C4.02 5 2.04 5 0 5 C0 3.35 0 1.7 0 0 Z " fill="#FDF6F1" transform="translate(139,134)"/>
<path d="M0 0 C0 0.33 0 0.66 0 1 C-1.22976562 1.29003906 -1.22976562 1.29003906 -2.484375 1.5859375 C-4.10085937 1.97652344 -4.10085937 1.97652344 -5.75 2.375 C-7.35101563 2.75785156 -7.35101563 2.75785156 -8.984375 3.1484375 C-11.55852722 3.87533541 -13.67600186 4.7026224 -16 6 C-11.78857098 -0.97064114 -7.76957617 -0.73477603 0 0 Z " fill="#65C1DD" transform="translate(151,51)"/>
<path d="M0 0 C1.32 0.66 2.64 1.32 4 2 C3.67 2.66 3.34 3.32 3 4 C2.34 4 1.68 4 1 4 C0.34 5.32 -0.32 6.64 -1 8 C-1.33 7.34 -1.66 6.68 -2 6 C-2.99 5.67 -3.98 5.34 -5 5 C-3.35 3.35 -1.7 1.7 0 0 Z " fill="#EF833D" transform="translate(70,35)"/>
<path d="M0 0 C1.2065625 0.0309375 1.2065625 0.0309375 2.4375 0.0625 C1.7775 2.3725 1.1175 4.6825 0.4375 7.0625 C-0.2225 6.0725 -0.8825 5.0825 -1.5625 4.0625 C-2.5525 5.0525 -3.5425 6.0425 -4.5625 7.0625 C-3.5234375 0.0859375 -3.5234375 0.0859375 0 0 Z " fill="#EC9458" transform="translate(330.5625,126.9375)"/>
<path d="M0 0 C1.98 0 3.96 0 6 0 C6 1.32 6 2.64 6 4 C4.02 4.33 2.04 4.66 0 5 C0 3.35 0 1.7 0 0 Z " fill="#FCEEE5" transform="translate(286,127)"/>
<path d="M0 0 C1.32 0.33 2.64 0.66 4 1 C3.67 3.64 3.34 6.28 3 9 C2.01 8.67 1.02 8.34 0 8 C0 5.36 0 2.72 0 0 Z " fill="#F37C2B" transform="translate(135,124)"/>
<path d="M0 0 C0.66 0 1.32 0 2 0 C2.33 0.66 2.66 1.32 3 2 C5.3140622 2.73075648 7.64828869 3.40138258 10 4 C10 4.33 10 4.66 10 5 C8.54207116 5.05399736 7.08357288 5.09279177 5.625 5.125 C4.81289062 5.14820313 4.00078125 5.17140625 3.1640625 5.1953125 C1 5 1 5 -1 3 C-0.67 2.01 -0.34 1.02 0 0 Z " fill="#F17B2F" transform="translate(136,137)"/>
<path d="M0 0 C1.32 0.66 2.64 1.32 4 2 C3.01 2.99 2.02 3.98 1 5 C2.98 5 4.96 5 7 5 C7 5.33 7 5.66 7 6 C-0.50769231 6.36923077 -0.50769231 6.36923077 -3 4.5 C-3.33 4.005 -3.66 3.51 -4 3 C-3.01 3 -2.02 3 -1 3 C-0.67 2.01 -0.34 1.02 0 0 Z " fill="#ED9F6C" transform="translate(160,138)"/>
<path d="M0 0 C1.9375 0.8125 1.9375 0.8125 4 2 C4.33 2.99 4.66 3.98 5 5 C5.66 5 6.32 5 7 5 C7 5.66 7 6.32 7 7 C7.99 7 8.98 7 10 7 C10.33 7.99 10.66 8.98 11 10 C5.78172467 8.61869182 3.07338663 5.21402497 0 1 C0 0.67 0 0.34 0 0 Z " fill="#6ABDDF" transform="translate(225,94)"/>
<path d="M0 0 C0.66 0 1.32 0 2 0 C2 0.66 2 1.32 2 2 C2.66 2.33 3.32 2.66 4 3 C2.35 4.32 0.7 5.64 -1 7 C-1.66 6.34 -2.32 5.68 -3 5 C-1.125 1.125 -1.125 1.125 0 0 Z " fill="#58BEE1" transform="translate(22,67)"/>
<path d="M0 0 C0.99 0.33 1.98 0.66 3 1 C3 1.99 3 2.98 3 4 C0.69 4.33 -1.62 4.66 -4 5 C-4.33 4.34 -4.66 3.68 -5 3 C-2.6875 1.4375 -2.6875 1.4375 0 0 Z " fill="#EF8641" transform="translate(399,138)"/>
<path d="M0 0 C1.4540625 0.0309375 1.4540625 0.0309375 2.9375 0.0625 C1.9475 1.5475 1.9475 1.5475 0.9375 3.0625 C-0.3825 3.0625 -1.7025 3.0625 -3.0625 3.0625 C-2.7325 4.7125 -2.4025 6.3625 -2.0625 8.0625 C-2.7225 7.7325 -3.3825 7.4025 -4.0625 7.0625 C-4.10504356 5.06295254 -4.10330783 3.06208364 -4.0625 1.0625 C-3.0625 0.0625 -3.0625 0.0625 0 0 Z " fill="#ED8339" transform="translate(304.0625,133.9375)"/>
<path d="M0 0 C2 3 2 3 2 5 C2.66 5.33 3.32 5.66 4 6 C2.875 7.5 2.875 7.5 1 9 C-2.1875 9.1875 -2.1875 9.1875 -5 9 C-5 8.67 -5 8.34 -5 8 C-3.35 8 -1.7 8 0 8 C-0.185625 7.4225 -0.37125 6.845 -0.5625 6.25 C-1.04023546 3.79307475 -0.75729364 2.35602466 0 0 Z " fill="#E98E53" transform="translate(230,134)"/>
<path d="M0 0 C0.66 0 1.32 0 2 0 C4 3 4 3 4 7 C3.01 7 2.02 7 1 7 C0.34 5.02 -0.32 3.04 -1 1 C-0.67 0.67 -0.34 0.34 0 0 Z " fill="#F07D30" transform="translate(242,135)"/>
<path d="M0 0 C1.98 0 3.96 0 6 0 C6 1.32 6 2.64 6 4 C4.02 4 2.04 4 0 4 C0 2.68 0 1.36 0 0 Z " fill="#EB8846" transform="translate(379,127)"/>
<path d="M0 0 C0.66 0 1.32 0 2 0 C2.33 0.66 2.66 1.32 3 2 C3.99 2 4.98 2 6 2 C6 3.32 6 4.64 6 6 C5.01 5.67 4.02 5.34 3 5 C2.34 5.66 1.68 6.32 1 7 C0.67 4.69 0.34 2.38 0 0 Z " fill="#EF843E" transform="translate(320,133)"/>
<path d="M0 0 C0.33 0.99 0.66 1.98 1 3 C0.01 3.33 -0.98 3.66 -2 4 C-2 4.99 -2 5.98 -2 7 C-4 8.6875 -4 8.6875 -6 10 C-6.66 9.67 -7.32 9.34 -8 9 C-5.36 6.03 -2.72 3.06 0 0 Z " fill="#EB9157" transform="translate(19,90)"/>
<path d="M0 0 C5.75 -0.125 5.75 -0.125 8 1 C8 1.66 8 2.32 8 3 C5.69 3 3.38 3 1 3 C0.67 2.01 0.34 1.02 0 0 Z " fill="#F7BA94" transform="translate(392,131)"/>
<path d="M0 0 C0.66 0.33 1.32 0.66 2 1 C1.67 1.66 1.34 2.32 1 3 C1.66 3.66 2.32 4.32 3 5 C0.69 5 -1.62 5 -4 5 C-4 4.01 -4 3.02 -4 2 C-2.125 0.9375 -2.125 0.9375 0 0 Z " fill="#EE8945" transform="translate(290,131)"/>
<path d="M0 0 C0 0.33 0 0.66 0 1 C-1.65 1 -3.3 1 -5 1 C-5.33 2.32 -5.66 3.64 -6 5 C-7.32 4.34 -8.64 3.68 -10 3 C-7.29536552 -0.8183075 -4.37912428 -0.24787496 0 0 Z " fill="#EB9054" transform="translate(230,127)"/>
<path d="M0 0 C0 0.99 0 1.98 0 3 C-0.66 3.66 -1.32 4.32 -2 5 C-2.33 4.01 -2.66 3.02 -3 2 C-2.01 1.34 -1.02 0.68 0 0 Z M-5 0 C-4.34 1.32 -3.68 2.64 -3 4 C-5.31 4 -7.62 4 -10 4 C-10 3.67 -10 3.34 -10 3 C-8.35 3 -6.7 3 -5 3 C-5 2.01 -5 1.02 -5 0 Z " fill="#ED9B62" transform="translate(327,141)"/>
<path d="M0 0 C0 3.10551666 -0.5393715 4.35261084 -2 7 C-2 6.01 -2 5.02 -2 4 C-3.32 3.67 -4.64 3.34 -6 3 C-3.8614515 0.8614515 -2.86724686 0.57344937 0 0 Z " fill="#F08E51" transform="translate(311,133)"/>
<path d="M0 0 C0.99 0.33 1.98 0.66 3 1 C2.34 2.98 1.68 4.96 1 7 C-2 3.25 -2 3.25 -2 1 C-1.34 0.67 -0.68 0.34 0 0 Z " fill="#61BCE4" transform="translate(328,93)"/>
<path d="M0 0 C1.65 1.65 3.3 3.3 5 5 C4.34 5.66 3.68 6.32 3 7 C2.01 6.67 1.02 6.34 0 6 C0.66 6 1.32 6 2 6 C2 5.34 2 4.68 2 4 C0.68 4 -0.64 4 -2 4 C-2 3.34 -2 2.68 -2 2 C-1.34 2 -0.68 2 0 2 C0 1.34 0 0.68 0 0 Z " fill="#5CBEE1" transform="translate(177,86)"/>
<path d="M0 0 C0.66 0 1.32 0 2 0 C1.6875 2.375 1.6875 2.375 1 5 C0.01 5.66 -0.98 6.32 -2 7 C-2.125 4.625 -2.125 4.625 -2 2 C-1.34 1.34 -0.68 0.68 0 0 Z " fill="#ED874B" transform="translate(63,88)"/>
<path d="M0 0 C1.32 0.66 2.64 1.32 4 2 C1.11584117 3.44207941 -1.41721528 3.09394887 -4.625 3.0625 C-5.81351563 3.05347656 -7.00203125 3.04445313 -8.2265625 3.03515625 C-9.14179688 3.02355469 -10.05703125 3.01195313 -11 3 C-11 2.67 -11 2.34 -11 2 C-10.28972656 1.93941406 -9.57945312 1.87882812 -8.84765625 1.81640625 C-7.46900391 1.69072266 -7.46900391 1.69072266 -6.0625 1.5625 C-5.14597656 1.48128906 -4.22945312 1.40007812 -3.28515625 1.31640625 C-1.03840268 1.23955024 -1.03840268 1.23955024 0 0 Z " fill="#68C4E4" transform="translate(209,81)"/>
<path d="M0 0 C2.04119788 1.61594832 4.04072937 3.2856382 6 5 C6 5.66 6 6.32 6 7 C4.68 6.67 3.36 6.34 2 6 C2.33 5.34 2.66 4.68 3 4 C2.01 4 1.02 4 0 4 C0 2.68 0 1.36 0 0 Z " fill="#5FBCDD" transform="translate(204,57)"/>
<path d="M0 0 C0.66 0.33 1.32 0.66 2 1 C1.74438677 3.3431213 1.40729228 5.67843403 1 8 C0.01 8.495 0.01 8.495 -1 9 C-0.67 6.03 -0.34 3.06 0 0 Z " fill="#EA8D4E" transform="translate(131,11)"/>
<path d="M0 0 C2.35953094 2.35953094 2.49141413 3.77895617 3 7 C2.01 6.34 1.02 5.68 0 5 C-0.66 5.66 -1.32 6.32 -2 7 C-1.125 1.125 -1.125 1.125 0 0 Z " fill="#F7E0D1" transform="translate(249,136)"/>
<path d="M0 0 C2.31 1.98 4.62 3.96 7 6 C5.68 6.33 4.36 6.66 3 7 C0 2.25 0 2.25 0 0 Z " fill="#6ABFDA" transform="translate(118,126)"/>
<path d="M0 0 C0.99 0.66 1.98 1.32 3 2 C0.03 4.475 0.03 4.475 -3 7 C-2.25 2.25 -2.25 2.25 0 0 Z " fill="#ED8844" transform="translate(35,119)"/>
<path d="M0 0 C0 4.38968456 -2.12805101 5.76905739 -5 9 C-5.66 8.67 -6.32 8.34 -7 8 C-4.69 5.36 -2.38 2.72 0 0 Z " fill="#ED9862" transform="translate(43,64)"/>
<path d="M0 0 C2.45823172 3.68734758 3.01242616 6.69699971 4 11 C2 10 2 10 1 7 C0.34 6.67 -0.32 6.34 -1 6 C-0.67 4.02 -0.34 2.04 0 0 Z " fill="#76C5E4" transform="translate(330,64)"/>
<path d="M0 0 C1.98 0.495 1.98 0.495 4 1 C3.01 1.99 2.02 2.98 1 4 C2.32 4.33 3.64 4.66 5 5 C3.02 5 1.04 5 -1 5 C-0.67 3.35 -0.34 1.7 0 0 Z " fill="#E7A378" transform="translate(173,144)"/>
<path d="M0 0 C1.98 0 3.96 0 6 0 C4.8125 2 4.8125 2 3 4 C0.3125 4.25 0.3125 4.25 -2 4 C-1.01 3.34 -0.02 2.68 1 2 C0.67 1.34 0.34 0.68 0 0 Z " fill="#EB8D4C" transform="translate(14,139)"/>
<path d="M0 0 C1.98 0 3.96 0 6 0 C4.89131683 2.21736634 3.50559539 4.03617993 2 6 C1.34 4.02 0.68 2.04 0 0 Z " fill="#EB9E69" transform="translate(237,127)"/>
<path d="M0 0 C1.65 0.33 3.3 0.66 5 1 C3.35 2.65 1.7 4.3 0 6 C-1.125 2.25 -1.125 2.25 0 0 Z " fill="#EB813A" transform="translate(40,111)"/>
<path d="M0 0 C3.3 0.99 6.6 1.98 10 3 C10 3.33 10 3.66 10 4 C6.7 4 3.4 4 0 4 C-0.33 3.34 -0.66 2.68 -1 2 C-0.67 1.34 -0.34 0.68 0 0 Z " fill="#6BC2E3" transform="translate(241,89)"/>
<path d="M0 0 C0.66 1.32 1.32 2.64 2 4 C-0.475 5.485 -0.475 5.485 -3 7 C-1.125 1.125 -1.125 1.125 0 0 Z " fill="#60C0DD" transform="translate(166,61)"/>
<path d="M0 0 C0 3 0 3 -2.5 5.6875 C-3.325 6.450625 -4.15 7.21375 -5 8 C-5.66 7.67 -6.32 7.34 -7 7 C-4.69 4.69 -2.38 2.38 0 0 Z " fill="#E9935A" transform="translate(79,25)"/>
</svg>
