<svg width="65" height="21" viewBox="0 0 65 21" fill="none" xmlns="http://www.w3.org/2000/svg">
<path d="M0.213973 14.1055C0.213973 13.0986 0.196973 12.2532 0.146973 11.4983H1.91697L2.00097 12.7949H2.05097C2.45097 12.11 3.18597 11.2991 4.55597 11.2991C5.62597 11.2991 6.45997 11.9484 6.80997 12.9188H6.84397C7.12797 12.4341 7.46097 12.0734 7.84597 11.8224C8.29597 11.4811 8.81597 11.2991 9.48297 11.2991C10.835 11.2991 12.204 12.2887 12.204 15.0963V20.2569H10.201V15.4194C10.201 13.9634 9.73297 13.0986 8.74797 13.0986C8.04597 13.0986 7.52797 13.6381 7.31097 14.2692C7.26097 14.4824 7.21097 14.7538 7.21097 15.0037V20.2569H5.20697V15.1846C5.20697 13.9634 4.75697 13.0986 3.80397 13.0986C3.03697 13.0986 2.51897 13.7458 2.33397 14.3575C2.25228 14.587 2.21255 14.8312 2.21697 15.0769V20.2569H0.213973V14.1055ZM20.012 18.1537C20.012 18.9441 20.045 19.7163 20.128 20.2569H18.274L18.141 19.2866H18.091C17.589 19.9704 16.737 20.4551 15.687 20.4551C14.049 20.4551 13.131 19.1789 13.131 17.8468C13.131 15.6337 14.95 14.5201 17.958 14.5374V14.3941C17.958 13.8191 17.74 12.8649 16.303 12.8649C15.501 12.8649 14.667 13.1352 14.115 13.5121L13.715 12.0734C14.316 11.6771 15.368 11.2991 16.654 11.2991C19.26 11.2991 20.012 13.0814 20.012 14.9864V18.1537ZM18.007 15.9783C16.554 15.9417 15.168 16.2831 15.168 17.6131C15.168 18.4767 15.688 18.8731 16.338 18.8731C17.154 18.8731 17.757 18.2958 17.94 17.6669C17.9854 17.5101 18.008 17.3466 18.007 17.1823V15.9783ZM21.431 14.1055C21.431 13.0986 21.414 12.2532 21.366 11.4983H23.168L23.268 12.8121H23.318C23.668 12.1283 24.554 11.2991 25.907 11.2991C27.327 11.2991 28.796 12.2888 28.796 15.0597V20.2569H26.742V15.3138C26.742 14.0538 26.307 13.0997 25.189 13.0997C24.371 13.0997 23.802 13.7297 23.586 14.3952C23.519 14.5934 23.502 14.8626 23.502 15.1135V20.258H21.432V14.1066L21.431 14.1055ZM37.701 7.97998V17.7929C37.701 18.6921 37.736 19.6646 37.768 20.2569H35.932L35.849 18.8731H35.815C35.33 19.8444 34.345 20.454 33.16 20.454C31.222 20.454 29.687 18.6738 29.687 15.9783C29.669 13.0458 31.372 11.3001 33.327 11.3001C34.445 11.3001 35.247 11.8031 35.614 12.4524H35.648V7.97998H37.701ZM35.648 15.1491C35.648 14.9692 35.631 14.7538 35.598 14.5729C35.414 13.7114 34.764 13.0092 33.828 13.0092C32.508 13.0092 31.772 14.2692 31.772 15.9051C31.772 17.5043 32.508 18.6738 33.812 18.6738C34.645 18.6738 35.381 18.0621 35.581 17.1091C35.631 16.9109 35.648 16.6944 35.648 16.4618V15.148V15.1491ZM39.154 11.4983H41.226V20.2569H39.154V11.4983ZM42.678 14.3231C42.678 13.1352 42.661 12.2888 42.612 11.4983H44.4L44.466 13.1697H44.534C44.934 11.9301 45.886 11.4983 46.756 11.4983C46.956 11.4983 47.072 11.4617 47.238 11.4983V13.4411C47.0409 13.3943 46.8398 13.3705 46.638 13.37C45.652 13.37 44.984 14.0528 44.801 15.0392C44.76 15.2653 44.7376 15.4949 44.734 15.7252V20.2569H42.679L42.678 14.3231ZM48.19 11.4983H50.26V20.2569H48.19V11.4983Z" fill="#003D79"/>
<path d="M47.7669 0.894818C45.9989 1.99071 44.2293 3.08343 42.4579 4.17297C40.9329 4.84928 39.7639 4.02543 39.3859 3.4202C39.3689 3.39764 39.3539 3.37349 39.3409 3.34805L39.2909 3.25543L39.0339 2.80313C38.8117 2.40894 38.5472 2.04423 38.2459 1.71651C37.2659 0.650357 35.6989 -0.0981045 33.0889 1.23943C31.5089 2.20866 27.8389 4.4702 27.8389 4.4702L27.8379 4.47128L25.1499 6.12543L26.5399 7.96374C27.1249 8.56467 28.2249 9.54897 29.9269 8.71759C29.9269 8.71759 34.6229 5.79051 34.6409 5.7819C38.6559 3.40943 40.6369 5.67636 41.5129 7.18728C41.5429 7.23359 41.5679 7.28528 41.5949 7.33159L41.5969 7.33374L41.6239 7.38651L41.7239 7.56097C42.1489 8.25774 42.8239 8.7079 43.6239 8.68636C44.0679 8.67774 44.3679 8.52159 44.8039 8.2599L49.3489 5.4222L49.3589 5.4179C53.4229 3.01636 55.4369 5.4319 56.2979 6.94282C56.3639 7.0742 56.4409 7.19805 56.5179 7.31543C56.9439 7.93682 57.5319 8.3439 58.2779 8.32451C58.7709 8.31374 59.3239 7.99497 59.4049 7.93682L64.8529 4.55205C64.8529 4.55205 64.2959 3.64743 63.1499 2.23559C62.1249 0.975588 61.0349 1.54636 60.1699 2.00943C59.8049 2.20328 57.1749 3.8079 57.1749 3.8079C55.7349 4.44866 54.6119 3.74974 54.1719 3.16174C54.1297 3.10592 54.0912 3.0469 54.0569 2.98513L53.9559 2.79451C53.782 2.47132 53.5889 2.16053 53.3779 1.86405C53.2498 1.68456 53.1112 1.51406 52.9629 1.35359C52.3569 0.695588 51.5289 0.158203 50.3689 0.158203C49.6409 0.158203 48.7829 0.36928 47.7669 0.894818Z" fill="url(#paint0_linear_614_651)"/>
<defs>
<linearGradient id="paint0_linear_614_651" x1="24.8259" y1="4.91713" x2="68.2904" y2="-13.7321" gradientUnits="userSpaceOnUse">
<stop stop-color="#FDB913"/>
<stop offset="0.225" stop-color="#FFCB05"/>
<stop offset="0.393" stop-color="#FAA61A"/>
<stop offset="0.528" stop-color="#FFCB05"/>
<stop offset="0.646" stop-color="#FAA61A"/>
<stop offset="0.764" stop-color="#FFCB05"/>
<stop offset="1" stop-color="#FFCB05"/>
</linearGradient>
</defs>
</svg>
