<svg width="65" height="18" viewBox="0 0 65 18" fill="none" xmlns="http://www.w3.org/2000/svg">
<mask id="mask0_614_619" style="mask-type:luminance" maskUnits="userSpaceOnUse" x="0" y="0" width="65" height="18">
<path d="M0 0H65V17.6615H0V0Z" fill="white"/>
</mask>
<g mask="url(#mask0_614_619)">
<path fill-rule="evenodd" clip-rule="evenodd" d="M33.9902 16.7137C33.9962 16.606 34.0021 16.4337 34.0071 16.1968V11.6521L33.9931 11.2106C33.9916 11.1469 33.9876 11.0833 33.9811 11.02C33.9777 10.9881 33.971 10.9566 33.9611 10.9263C33.9462 10.8719 33.9197 10.822 33.8838 10.7805C33.8479 10.739 33.8035 10.7071 33.7542 10.6872C33.6168 10.6368 33.4721 10.6142 33.3271 10.6205V10.4675H35.7332C36.0832 10.4675 36.3991 10.4923 36.6811 10.5408C36.9631 10.5903 37.1901 10.6571 37.3631 10.7432C37.8661 11.0006 38.1151 11.4325 38.1121 12.0495C38.1181 12.9294 37.5812 13.4926 36.4692 13.6369L36.2831 13.6692C36.5331 13.68 36.8711 13.7694 37.0281 13.8092C37.1841 13.8469 37.3381 13.9094 37.4881 13.9923C38.0781 14.3132 38.3681 14.8237 38.3621 15.5312C38.3651 16.3895 37.9771 16.9474 37.1891 17.2112C37.0171 17.2651 36.8011 17.306 36.5411 17.3372C36.2578 17.3687 35.973 17.3842 35.6881 17.3835H33.3281V17.2285C33.6051 17.2252 33.7961 17.1789 33.8811 17.0712C33.915 17.037 33.9413 16.995 33.9581 16.9485C33.9792 16.8726 33.9903 16.7939 33.9911 16.7148L33.9902 16.7137ZM34.7321 10.6786V13.5626H35.6701C36.7621 13.5551 37.3271 13.0672 37.3331 12.0872C37.3411 11.1363 36.7451 10.6721 35.5901 10.6786H34.7321ZM37.5221 15.4526C37.5151 14.7806 37.2901 14.3057 36.8411 14.0397C36.6772 13.955 36.5027 13.8962 36.3232 13.8652C36.0959 13.8232 35.8657 13.8027 35.6351 13.8038H34.7321V17.1692H35.6351C36.2891 17.1725 36.7671 17.0411 37.0611 16.7654C37.2111 16.6329 37.3241 16.4531 37.4031 16.2269C37.4811 16.0018 37.5211 15.7423 37.5221 15.4526Z" fill="#3A3A3A"/>
<path d="M41.805 17.1854C41.757 17.081 41.722 16.9571 41.707 16.6405L41.703 16.5468L41.645 16.6168C41.5186 16.7733 41.3733 16.911 41.213 17.026C41.0471 17.1624 40.8621 17.2696 40.665 17.3437C40.4728 17.4078 40.2722 17.438 40.071 17.4331C39.688 17.4353 39.393 17.3362 39.183 17.1434C39.0617 17.024 38.9667 16.8768 38.905 16.7127C38.8364 16.5344 38.8011 16.3434 38.801 16.1505C38.806 15.4107 39.227 14.9336 40.088 14.7214C40.316 14.6643 40.557 14.618 40.81 14.5814C41.065 14.5448 41.352 14.5147 41.674 14.491L41.707 13.8448C41.7102 13.6659 41.7006 13.4869 41.678 13.3096C41.6616 13.185 41.6279 13.0637 41.578 12.9499C41.451 12.6807 41.19 12.5525 40.814 12.5525C40.209 12.5493 39.882 12.8594 39.848 13.4765C39.8475 13.5469 39.8395 13.617 39.824 13.6854C39.8142 13.7215 39.7934 13.753 39.765 13.7748C39.6754 13.8273 39.5739 13.8515 39.472 13.8448C39.176 13.8502 39.065 13.7554 39.07 13.595C39.0738 13.4199 39.1284 13.2504 39.226 13.1103C39.33 12.9531 39.474 12.8174 39.66 12.7011C39.994 12.5019 40.423 12.3996 40.948 12.3974C41.523 12.3996 41.908 12.5407 42.118 12.8088C42.204 12.9219 42.267 13.0608 42.308 13.2299C42.349 13.399 42.37 13.6133 42.37 13.8739L42.369 13.9288L42.364 14.1808L42.352 14.8485L42.342 15.7639L42.334 16.2076C42.334 16.4165 42.343 16.5759 42.356 16.7536C42.37 16.927 42.427 17.1208 42.556 17.1725C42.69 17.2263 42.819 17.2479 43.065 17.2479C43.245 17.2447 43.385 17.2231 43.479 17.179C43.586 17.1305 43.652 17.025 43.681 16.8774C43.709 16.732 43.721 16.5113 43.718 16.2173V13.6305C43.724 13.2783 43.686 13.0307 43.593 12.9014C43.502 12.7743 43.333 12.7205 43.101 12.7227V12.5859L44.38 12.4847V13.5831L44.446 13.456C44.636 13.092 44.851 12.8347 45.09 12.6807C45.329 12.5256 45.628 12.4491 45.99 12.4534C46.532 12.4448 46.91 12.6419 47.13 13.0328C47.211 13.1642 47.27 13.3225 47.306 13.5067C47.341 13.693 47.359 13.9299 47.358 14.2174V16.2173C47.354 16.5145 47.366 16.7363 47.392 16.8807C47.42 17.0293 47.485 17.1337 47.593 17.1822C47.682 17.221 47.89 17.2425 48.067 17.2479C48.1975 17.25 48.3273 17.2267 48.45 17.179C48.554 17.1294 48.618 17.025 48.645 16.8774C48.6754 16.659 48.6868 16.438 48.679 16.2173V11.5176C48.6869 11.3177 48.6761 11.1175 48.647 10.9199C48.62 10.7853 48.557 10.6937 48.451 10.6528C48.3186 10.6133 48.1813 10.5962 48.044 10.6022V10.4643L49.374 10.3911C49.3407 11.0201 49.3237 11.65 49.323 12.28V15.4354L50.789 13.7037C50.996 13.456 51.109 13.2482 51.111 13.0813C51.121 12.8497 50.904 12.7442 50.548 12.7259V12.588H52.453V12.728C52.3511 12.739 52.2505 12.7618 52.153 12.7959C52.0545 12.8333 51.9599 12.882 51.871 12.9413C51.6917 13.0515 51.528 13.1889 51.385 13.3494C51.294 13.4496 51.161 13.6014 50.987 13.806L50.503 14.3682L51.769 16.5177C51.914 16.7719 52.047 16.9517 52.169 17.054C52.286 17.151 52.434 17.2145 52.614 17.2436V17.3847H51.455C51.4129 17.2933 51.3692 17.2029 51.324 17.1133L51.14 16.7503L50.999 16.4779L50.061 14.8302L49.325 15.7187L49.323 16.2173C49.32 16.5113 49.331 16.732 49.357 16.8763C49.385 17.025 49.449 17.1305 49.555 17.179C49.648 17.222 49.787 17.2447 49.967 17.249V17.3847H46.052V17.2479C46.317 17.2403 46.499 17.194 46.572 17.0896C46.6017 17.0482 46.6244 17.0016 46.639 16.9517C46.6567 16.8862 46.6668 16.8185 46.669 16.7503C46.6827 16.573 46.6917 16.3952 46.696 16.2173V14.2767C46.697 13.7974 46.65 13.4431 46.549 13.218C46.397 12.8637 46.121 12.686 45.729 12.685C45.294 12.6828 44.947 12.9068 44.689 13.3494C44.4897 13.7123 44.3827 14.1254 44.379 14.547V16.2162C44.376 16.5145 44.388 16.7363 44.415 16.8807C44.442 17.0293 44.507 17.1337 44.615 17.1822C44.709 17.2231 44.849 17.2447 45.032 17.249V17.3847H43.107C42.936 17.39 42.611 17.3997 42.45 17.3976C42.28 17.3954 42.2 17.376 42.045 17.3631C41.908 17.32 41.85 17.2813 41.805 17.1854ZM39.535 16.1214C39.538 16.4359 39.609 16.6922 39.751 16.8839C39.8181 16.9778 39.9045 17.0536 40.0034 17.1053C40.1023 17.1571 40.2111 17.1834 40.321 17.1822C40.561 17.179 40.787 17.1111 40.999 16.9808C41.21 16.8494 41.377 16.676 41.497 16.4585C41.571 16.3207 41.624 16.143 41.658 15.9276C41.691 15.7133 41.708 15.4462 41.708 15.1285V14.6331C41.3862 14.6574 41.066 14.702 40.749 14.7667C40.5425 14.8114 40.3424 14.8857 40.154 14.9874C39.744 15.2071 39.538 15.5883 39.535 16.1214Z" fill="#3A3A3A"/>
<path fill-rule="evenodd" clip-rule="evenodd" d="M1.86509 14.4705V16.1914C1.86209 16.4671 1.87609 16.6728 1.90909 16.8052C1.92052 16.8655 1.9461 16.9216 1.98339 16.9681C2.02068 17.0147 2.06844 17.0502 2.12209 17.0712C2.23209 17.1143 2.40009 17.1391 2.62609 17.1445V17.3846H0.121094V17.1445C0.335094 17.1391 0.493094 17.1154 0.595094 17.0712C0.697094 17.0282 0.764094 16.9398 0.795094 16.8063C0.829995 16.604 0.843414 16.398 0.835094 16.1925V11.6683C0.84308 11.462 0.829664 11.2554 0.795094 11.0523C0.765094 10.9188 0.702094 10.8294 0.605094 10.7852C0.459704 10.7313 0.306863 10.7043 0.153094 10.7055V10.4654H2.53909C3.34309 10.4622 3.93209 10.6162 4.30709 10.9252C4.68109 11.2343 4.86609 11.7222 4.86209 12.3898C4.86409 13.3268 4.52609 13.9406 3.84709 14.2303C3.67009 14.3057 3.44409 14.3638 3.16909 14.4058C2.89509 14.4489 2.58909 14.4705 2.25409 14.4705H1.86509ZM1.86509 14.2023H2.27809C2.77309 14.2012 3.13809 14.0742 3.37109 13.8232C3.49909 13.6778 3.59509 13.4872 3.66109 13.2525C3.72609 13.0166 3.75909 12.7474 3.76009 12.4448C3.75709 11.3054 3.29509 10.7357 2.37209 10.7335H1.86509V14.2023ZM8.89509 14.7612H5.98009C5.98309 15.0962 6.00109 15.3783 6.03509 15.6055C6.06809 15.8317 6.12109 16.0395 6.19509 16.2269C6.43609 16.8365 6.81009 17.1402 7.31609 17.1402C7.60309 17.138 7.86309 17.0475 8.09609 16.8666C8.32909 16.6868 8.52309 16.4272 8.67809 16.0891L8.88409 16.2366C8.68109 16.6728 8.43409 16.9926 8.14009 17.1962C7.84809 17.4008 7.49009 17.502 7.06909 17.4998C6.40509 17.4902 5.79509 17.2618 5.41309 16.8138C5.03109 16.3658 4.83609 15.752 4.82909 14.9734C4.83609 14.1883 5.02509 13.568 5.39409 13.1103C5.76209 12.6537 6.35209 12.4211 6.98609 12.4103C7.40909 12.4114 7.81609 12.5148 8.10609 12.7215C8.39509 12.9272 8.60809 13.2298 8.74609 13.6262C8.79109 13.7586 8.82509 13.9105 8.84809 14.0806C8.87109 14.2497 8.88709 14.4769 8.89509 14.7612ZM5.98809 14.4941H7.81109C7.80745 14.2645 7.79344 14.0352 7.76909 13.8071C7.75163 13.6487 7.71879 13.4928 7.67109 13.3418C7.51709 12.8572 7.28109 12.6182 6.96109 12.6225C6.60409 12.6257 6.33709 12.896 6.16109 13.4334C6.11709 13.5734 6.08109 13.7252 6.05309 13.8911C6.02609 14.0569 6.00409 14.2572 5.98809 14.4941Z" fill="#3A3A3A"/>
<path d="M9.08112 12.5418L10.6981 12.4212L10.7181 12.8595C10.7211 12.978 10.7231 13.0824 10.7231 13.1729V13.4518C11.0751 12.7594 11.4991 12.4094 11.9961 12.4029C12.2111 12.4072 12.3861 12.475 12.5201 12.6064C12.5857 12.6695 12.6381 12.7469 12.6737 12.8334C12.7094 12.9199 12.7276 13.0136 12.7271 13.1083C12.7283 13.186 12.7132 13.263 12.6831 13.3336C12.653 13.4043 12.6086 13.4667 12.5531 13.5164C12.4268 13.6239 12.2691 13.6797 12.1081 13.6737C11.8881 13.6812 11.7531 13.5832 11.7041 13.3775C11.686 13.2847 11.6521 13.1964 11.6041 13.1169C11.5711 13.0717 11.5211 13.0501 11.4541 13.0523H11.4371C11.2681 13.0684 11.1071 13.2138 10.9561 13.4884C10.8871 13.6263 10.8361 13.777 10.8011 13.944C10.7645 14.1327 10.7471 14.3252 10.7491 14.518V16.2346C10.7461 16.5081 10.7591 16.7106 10.7861 16.8398C10.8141 16.969 10.8771 17.0552 10.9761 17.095C11.0751 17.1349 11.2291 17.1575 11.4371 17.1618V17.3847H9.04712V17.1618C9.24212 17.1618 9.38612 17.1424 9.48012 17.1004C9.57412 17.0595 9.63512 16.9723 9.66312 16.8398C9.69112 16.7074 9.70312 16.506 9.70012 16.2346V13.664C9.70812 13.2817 9.67312 13.034 9.59412 12.9187C9.51412 12.8046 9.34412 12.7529 9.08112 12.7647V12.5418ZM14.6481 12.4223L14.6561 13.3398C15.0051 12.7217 15.5031 12.4094 16.1531 12.4029C16.8131 12.3986 17.2201 12.7227 17.3731 13.3775C17.5611 13.0404 17.7741 12.7938 18.0131 12.6366C18.2531 12.4794 18.5331 12.4018 18.8531 12.4029C19.3591 12.4061 19.7321 12.586 19.9711 12.9414C20.0651 13.076 20.1311 13.2407 20.1711 13.4357C20.2111 13.6295 20.2301 13.8826 20.2291 14.1938V16.2346C20.2261 16.506 20.2391 16.7074 20.2661 16.8398C20.2951 16.9723 20.3561 17.0595 20.4491 17.1004C20.5431 17.1435 20.6871 17.1629 20.8831 17.1618V17.3847H18.5531V17.1618C18.7381 17.1618 18.8771 17.1424 18.9671 17.1004C19.0571 17.0595 19.1161 16.9723 19.1431 16.8398C19.1701 16.7074 19.1831 16.506 19.1801 16.2346V14.2024C19.1821 13.7157 19.1261 13.3635 19.0131 13.147C18.9001 12.9317 18.7181 12.8261 18.4661 12.8304C18.1641 12.824 17.9081 12.9941 17.7011 13.3398C17.5211 13.6295 17.4331 13.9418 17.4341 14.2767V16.2346C17.4311 16.506 17.4441 16.7074 17.4711 16.8398C17.4981 16.9723 17.5581 17.0595 17.6491 17.1004C17.7411 17.1435 17.8811 17.1629 18.0701 17.1618V17.3847H15.7661V17.1618C15.9521 17.1618 16.0911 17.1424 16.1811 17.1004C16.2711 17.0595 16.3301 16.9723 16.3571 16.8398C16.3841 16.7074 16.3971 16.506 16.3941 16.2346V14.1938C16.3981 13.2752 16.1661 12.8207 15.6971 12.8304C15.4051 12.8412 15.1611 12.9909 14.9641 13.2774C14.7671 13.5649 14.6641 13.9235 14.6561 14.351V16.2346C14.6541 16.5081 14.6661 16.7117 14.6931 16.8441C14.7201 16.9766 14.7791 17.0627 14.8691 17.1026C14.9591 17.1435 15.0981 17.1629 15.2841 17.1618V17.3847H12.9541V17.1618C13.1491 17.1629 13.2931 17.1435 13.3871 17.1026C13.4811 17.0627 13.5421 16.9766 13.5701 16.8441C13.5981 16.7117 13.6101 16.5081 13.6071 16.2346V13.6554C13.6171 13.2784 13.5811 13.034 13.5021 12.922C13.4221 12.81 13.2461 12.7572 12.9711 12.7647V12.5429L14.6481 12.4223ZM26.9971 12.8466V15.9449C26.9971 16.1463 27.0031 16.3132 27.0171 16.4457C27.0311 16.577 27.0531 16.689 27.0831 16.7795C27.116 16.8779 27.1747 16.964 27.2521 17.0272C27.3243 17.0875 27.4128 17.1207 27.5041 17.122C27.6871 17.1198 27.8881 17.024 28.1061 16.8355L28.2261 17.067C27.8996 17.3719 27.4803 17.5368 27.0481 17.5301C26.5741 17.5226 26.2501 17.3524 26.0771 17.0207C26.0408 16.9407 26.0139 16.856 25.9971 16.7687C25.975 16.6429 25.9619 16.5155 25.9581 16.3875C25.9511 16.2281 25.9481 16.0117 25.9481 15.7414V12.8466H25.4581V12.5687C25.624 12.5664 25.787 12.5221 25.9341 12.4395C26.0742 12.3515 26.1912 12.2266 26.2741 12.0766C26.3501 11.9506 26.4141 11.8106 26.4621 11.6566C26.5121 11.5026 26.5551 11.312 26.5921 11.0837L27.0221 11.0374C27.0093 11.3136 27.002 11.59 27.0001 11.8666C26.9981 12.0443 26.9971 12.2726 26.9971 12.5494H28.0371V12.8466H26.9971Z" fill="#3A3A3A"/>
<path fill-rule="evenodd" clip-rule="evenodd" d="M25.453 17.1876V17.3847C25.201 17.4019 25.1 17.4019 24.835 17.4019C24.625 17.4019 24.408 17.3987 24.228 17.3255C24.1291 17.2915 24.0404 17.2298 23.971 17.1467C23.913 17.0476 23.876 17.0422 23.857 16.7655C23.635 17.0239 23.404 17.2145 23.164 17.3362C22.924 17.4579 22.664 17.5182 22.387 17.5171C21.974 17.5118 21.651 17.389 21.418 17.1478C21.185 16.9065 21.066 16.5748 21.062 16.1527C21.061 15.3568 21.52 14.8625 22.438 14.6687C22.853 14.5825 23.322 14.5233 23.848 14.4931V13.8901C23.853 13.4065 23.805 13.0716 23.707 12.8853C23.607 12.699 23.431 12.6107 23.177 12.6193C22.908 12.6128 22.717 12.7173 22.602 12.9348C22.5583 13.0142 22.5272 13.1008 22.51 13.1911C22.4868 13.3239 22.4715 13.458 22.464 13.5928C22.457 13.7576 22.413 13.875 22.331 13.945C22.249 14.015 22.118 14.0495 21.939 14.0473C21.541 14.0441 21.34 13.9019 21.337 13.6208C21.3397 13.4527 21.3888 13.2893 21.478 13.1513C21.571 13.0016 21.702 12.8713 21.871 12.7582C22.229 12.5202 22.699 12.4028 23.281 12.4061C23.873 12.4028 24.297 12.5288 24.554 12.7862C24.669 12.9036 24.754 13.0533 24.808 13.2364C24.863 13.4184 24.89 13.6521 24.889 13.9364L24.88 14.7441L24.872 15.5496C24.865 15.8145 24.862 15.9815 24.863 16.0515C24.86 16.3853 24.87 16.6298 24.893 16.7838C24.915 16.9378 24.94 17.0056 25.033 17.0896C25.198 17.1908 25.338 17.1876 25.453 17.1876ZM23.848 15.4204V14.7064C23.233 14.7516 22.796 14.8744 22.538 15.0747C22.28 15.2761 22.155 15.5884 22.163 16.0138C22.166 16.3476 22.229 16.6125 22.353 16.8085C22.4069 16.9006 22.4816 16.9764 22.5701 17.0289C22.6586 17.0815 22.758 17.109 22.859 17.109C23.0322 17.1079 23.2012 17.0509 23.344 16.9453C23.492 16.8376 23.609 16.6879 23.694 16.4962C23.7545 16.3603 23.7946 16.2149 23.813 16.0655C23.8398 15.8513 23.8515 15.6353 23.848 15.4193V15.4204ZM32.857 17.1876V17.3847C32.6517 17.3998 32.4458 17.4059 32.24 17.403C32.03 17.403 31.812 17.3998 31.632 17.3255C31.5332 17.2918 31.4445 17.2305 31.375 17.1478C31.317 17.0487 31.28 17.0433 31.261 16.7665C31.04 17.025 30.808 17.2145 30.568 17.3373C30.328 17.4579 30.068 17.5182 29.791 17.5171C29.378 17.5128 29.055 17.3901 28.823 17.1488C28.589 16.9076 28.471 16.5759 28.466 16.1538C28.465 15.3568 28.924 14.8625 29.843 14.6698C30.257 14.5836 30.727 14.5244 31.253 14.4931V13.8901C31.257 13.4076 31.21 13.0716 31.111 12.8864C31.011 12.7001 30.836 12.6118 30.582 12.6193C30.312 12.6139 30.12 12.7184 30.006 12.9348C29.9626 13.0142 29.9318 13.1008 29.915 13.1911C29.895 13.2881 29.88 13.4216 29.868 13.5939C29.862 13.7587 29.817 13.8761 29.735 13.9461C29.653 14.0161 29.522 14.0495 29.344 14.0484C28.945 14.0451 28.744 13.903 28.742 13.6219C28.7443 13.4539 28.7931 13.2904 28.882 13.1524C28.975 13.0027 29.106 12.8724 29.275 12.7582C29.633 12.5213 30.103 12.4028 30.685 12.4061C31.277 12.4039 31.702 12.5299 31.958 12.7873C32.074 12.9036 32.158 13.0544 32.213 13.2364C32.267 13.4195 32.293 13.6521 32.293 13.9364L32.285 14.7441L32.276 15.5507C32.269 15.8145 32.266 15.9815 32.267 16.0515C32.2598 16.2964 32.2698 16.5415 32.297 16.7848C32.319 16.9388 32.344 17.0067 32.438 17.0896C32.602 17.1919 32.743 17.1876 32.858 17.1876H32.857ZM31.253 15.4215V14.7064C30.637 14.7516 30.2 14.8744 29.943 15.0758C29.685 15.2761 29.56 15.5895 29.567 16.0148C29.57 16.3487 29.634 16.6136 29.757 16.8085C29.8109 16.9009 29.8857 16.9771 29.9744 17.0298C30.063 17.0826 30.1627 17.1102 30.264 17.1101C30.4373 17.1087 30.6063 17.0513 30.749 16.9453C30.897 16.8376 31.013 16.689 31.098 16.4973C31.1584 16.3612 31.1988 16.2159 31.218 16.0665C31.242 15.8975 31.253 15.6831 31.253 15.4215Z" fill="#3A3A3A"/>
<path d="M50.5651 5.77967L50.5481 6.13613L56.9021 14.1775L57.1301 14.2174L57.1601 14.2023L57.2701 13.9794L54.5601 4.19444L54.1001 3.8606L50.5651 5.77967Z" fill="#0097B9"/>
<path fill-rule="evenodd" clip-rule="evenodd" d="M52.444 6.52721L57.144 14.2391L56.894 14.196L50.531 6.13306L52.444 6.52721Z" fill="#005874"/>
<path d="M54.1082 3.85205L54.5662 4.18805L53.1422 6.2299L52.4822 5.91759L54.1082 3.85205Z" fill="#2FB8E7"/>
<path d="M52.481 5.91768L52.444 6.52722L50.531 6.13307L50.551 5.77876L52.481 5.91768ZM53.142 6.22999L54.569 4.18384L57.313 13.9774L57.173 14.2305L53.143 6.22999H53.142Z" fill="#007592"/>
<path d="M60.762 3.66675L64.872 5.70429L64.879 6.27936L58.136 17.2963L57.828 17.3846L57.782 17.3631L57.687 17.1132L60.404 3.88106L60.762 3.66675Z" fill="#80B13A"/>
<path d="M64.893 6.27832L58.155 17.32L57.811 17.4277L62.141 6.53032L64.893 6.27832Z" fill="#6E9123"/>
<path d="M61.3661 6.07062L57.7721 17.3934L57.6711 17.1155L60.3991 3.86938L61.3661 6.07062Z" fill="#3F7937"/>
<path d="M64.8821 5.70435L64.8931 6.27835L62.1411 6.53142L61.9861 5.74527L64.8821 5.70435Z" fill="#A5C550"/>
<path d="M61.9862 5.74519L61.3662 6.06935L60.3992 3.86919L60.7542 3.65381L61.9862 5.74519Z" fill="#5D8B27"/>
<path d="M54.4861 0.531819L54.6501 0.191512L59.9101 0.130127L60.2501 0.511358L57.7301 9.59413L57.5701 9.69428H57.5651L57.3921 9.56828L54.4861 0.532896V0.531819Z" fill="#D81936"/>
<path d="M56.9042 1.14244L56.5242 1.62598L54.4702 0.521059L54.6362 0.185059L56.9052 1.14352L56.9042 1.14244Z" fill="#AF2C35"/>
<path d="M54.468 0.52124L56.524 1.62616L57.566 9.71278L57.384 9.57924L54.468 0.522317V0.52124Z" fill="#762624"/>
<path d="M57.5132 1.6261L60.2592 0.506104L57.7432 9.6061L57.5702 9.71164L57.5132 1.62718V1.6261Z" fill="#B22B37"/>
<path d="M56.9031 1.14254L57.5131 1.62715L60.2601 0.50715L59.9161 0.12915L56.9031 1.14254Z" fill="#DC505E"/>
</g>
</svg>
