<svg width="40" height="44" viewBox="0 0 40 44" fill="none" xmlns="http://www.w3.org/2000/svg">
<path fill-rule="evenodd" clip-rule="evenodd" d="M0 0H40V43.0769H0V0Z" fill="white" fill-opacity="0.01"/>
<path fill-rule="evenodd" clip-rule="evenodd" d="M20.652 19.3017C20.632 21.1432 22.176 22.1695 23.34 22.7812C24.536 23.408 24.937 23.8097 24.933 24.3697C24.923 25.228 23.978 25.606 23.095 25.6211C21.551 25.6469 20.655 25.172 19.941 24.8134L19.385 27.6134C20.102 27.9688 21.427 28.2778 22.8 28.294C26.026 28.294 28.135 26.5784 28.146 23.9195C28.159 20.5466 23.814 20.3603 23.844 18.8526C23.854 18.3949 24.259 17.9071 25.146 17.7821C25.586 17.7207 26.799 17.6723 28.173 18.354L28.713 15.6434C27.7942 15.2721 26.8213 15.0803 25.84 15.0769C22.805 15.0769 20.669 16.814 20.652 19.3017ZM33.9 15.3106C33.62 15.308 33.3456 15.3959 33.1125 15.5629C32.8793 15.7299 32.698 15.9684 32.592 16.2475L27.985 28.0937H31.209L31.849 26.1832H35.789L36.159 28.0937H39L36.521 15.3106H33.9ZM34.35 18.7643L35.28 23.5641H32.733L34.35 18.7643ZM16.744 15.3106L14.204 28.0937H17.274L19.814 15.3106H16.744ZM12.201 15.3106L9.005 24.0111L7.713 16.6126C7.561 15.7877 6.962 15.3106 6.296 15.3106H1.072L1 15.6811C2.072 15.9331 3.291 16.338 4.03 16.7688C4.481 17.0337 4.61 17.2641 4.759 17.892L7.207 28.0937H10.452L15.427 15.3106H12.201Z" fill="url(#paint0_linear_614_2218)"/>
<defs>
<linearGradient id="paint0_linear_614_2218" x1="1" y1="675.931" x2="39" y2="675.931" gradientUnits="userSpaceOnUse">
<stop stop-color="#1F1F46"/>
<stop offset="1" stop-color="#194788"/>
</linearGradient>
</defs>
</svg>
