<svg width="25" height="24" viewBox="0 0 25 24" fill="none" xmlns="http://www.w3.org/2000/svg">
<g clip-path="url(#clip0_458_572)">
<path d="M13.9976 0.703122C14.0281 0.7114 14.0586 0.719678 14.09 0.728207C15.1306 1.01667 16.0479 1.56795 16.8212 2.31372C16.9204 2.40856 17.0194 2.49576 17.1265 2.58105C18.4721 3.72552 19.2291 5.79373 19.4351 7.5C19.4456 7.63857 19.4534 7.77724 19.4609 7.91601C19.464 7.97112 19.464 7.97112 19.4671 8.02734C19.4722 8.11718 19.4771 8.20702 19.4819 8.29687C19.5645 8.29577 19.5645 8.29577 19.6487 8.29464C19.8556 8.29207 20.0626 8.29047 20.2696 8.28915C20.3586 8.28845 20.4477 8.28749 20.5367 8.28626C21.455 8.27393 22.1897 8.36423 22.8873 9.02417C23.6084 9.78598 23.8334 10.6579 23.8146 11.6806C23.7905 12.2188 23.658 12.7381 23.5325 13.26C23.4944 13.4196 23.4578 13.5796 23.4211 13.7395C23.3591 14.0087 23.2964 14.2778 23.2332 14.5467C23.1401 14.943 23.0499 15.3398 22.9604 15.7369C22.9457 15.8018 22.9311 15.8667 22.9164 15.9316C22.8945 16.0288 22.8726 16.126 22.8507 16.2233C22.7706 16.5782 22.6897 16.9329 22.6087 17.2876C22.5978 17.3353 22.5978 17.3353 22.5867 17.3839C22.5795 17.4157 22.5722 17.4475 22.5648 17.4802C22.5501 17.5445 22.5354 17.6087 22.5208 17.673C22.5135 17.7049 22.5062 17.7367 22.4987 17.7695C22.4385 18.0335 22.3785 18.2975 22.3185 18.5615C22.2591 18.8228 22.1995 19.0841 22.1399 19.3454C22.1049 19.4985 22.07 19.6516 22.0353 19.8048C21.7919 20.8769 21.7919 20.8769 21.6526 21.3877C21.6438 21.4203 21.635 21.4529 21.626 21.4864C21.4243 22.2032 20.9466 22.7976 20.3257 23.2031C19.9998 23.365 19.6929 23.49 19.3272 23.4907C19.2766 23.4909 19.2259 23.4911 19.1738 23.4913C19.1182 23.4913 19.0625 23.4913 19.0053 23.4913C18.9166 23.4915 18.9166 23.4915 18.8262 23.4918C18.662 23.4923 18.4978 23.4924 18.3336 23.4926C18.1566 23.4927 17.9796 23.4932 17.8026 23.4936C17.3749 23.4945 16.9473 23.495 16.5197 23.4954C16.3182 23.4956 16.1167 23.4959 15.9153 23.4961C15.2453 23.4969 14.5754 23.4976 13.9055 23.4979C13.7317 23.498 13.5578 23.4981 13.384 23.4982C13.3408 23.4982 13.2976 23.4983 13.2531 23.4983C12.5536 23.4987 11.8541 23.4999 11.1546 23.5014C10.4361 23.5029 9.7176 23.5038 8.99911 23.5039C8.59584 23.504 8.19257 23.5044 7.7893 23.5056C7.44577 23.5066 7.10224 23.507 6.75871 23.5066C6.58357 23.5064 6.40845 23.5064 6.23332 23.5074C6.04303 23.5083 5.85276 23.5078 5.66247 23.5072C5.58031 23.508 5.58031 23.508 5.49649 23.5088C4.7202 23.5027 4.17521 23.175 3.63818 22.6406C3.26151 22.2365 3.0582 21.7559 2.92261 21.2277C2.91274 21.1896 2.90287 21.1516 2.89271 21.1124C2.75271 20.565 2.62983 20.0134 2.50522 19.4624C2.46831 19.2992 2.43122 19.1362 2.39416 18.9731C2.33161 18.6978 2.26918 18.4224 2.20683 18.147C2.14417 17.8703 2.08142 17.5936 2.01855 17.3169C2.0109 17.2832 2.00325 17.2495 1.99537 17.2148C1.96457 17.0793 1.93377 16.9437 1.90297 16.8081C1.81896 16.4384 1.73517 16.0686 1.652 15.6986C1.62222 15.5662 1.59244 15.4338 1.56265 15.3015C1.55537 15.269 1.54808 15.2366 1.54057 15.2032C1.44893 14.796 1.35531 14.3893 1.25921 13.9831C1.20523 13.7545 1.15216 13.5256 1.09921 13.2967C1.0748 13.1922 1.04996 13.0878 1.02463 12.9836C0.755267 11.874 0.653534 10.7298 1.21514 9.69104C1.59168 9.08057 2.13904 8.54867 2.85074 8.36382C3.13149 8.30483 3.39609 8.28422 3.68249 8.28772C3.74548 8.28791 3.74548 8.28791 3.80975 8.28812C3.94202 8.28864 4.07427 8.28981 4.20654 8.29101C4.29699 8.29148 4.38744 8.29191 4.4779 8.29229C4.698 8.29332 4.91808 8.29493 5.13818 8.29687C5.14061 8.24533 5.14304 8.19379 5.14555 8.14068C5.16531 7.75052 5.19243 7.36858 5.26708 6.98437C5.27535 6.94094 5.28361 6.8975 5.29212 6.85275C5.60504 5.26647 6.38978 3.47719 7.66027 2.43091C7.73715 2.36579 7.81122 2.29731 7.88366 2.22729C8.64677 1.49122 9.60197 0.983746 10.6226 0.703122C10.6548 0.69393 10.687 0.684738 10.7202 0.675267C11.7581 0.390263 12.9645 0.409363 13.9976 0.703122ZM8.75085 4.1054C7.737 5.20748 7.10693 6.79922 7.10693 8.29687C10.541 8.29687 13.9751 8.29687 17.5132 8.29687C17.4796 7.71793 17.4796 7.71793 17.3872 7.15429C17.3791 7.11714 17.3709 7.07999 17.3625 7.04172C17.0859 5.83684 16.4993 4.7732 15.6382 3.89062C15.5974 3.84548 15.5974 3.84548 15.5558 3.79944C14.76 2.93968 13.591 2.52548 12.4507 2.4375C11.0003 2.39622 9.7322 3.0785 8.75085 4.1054ZM2.92333 10.5117C2.64271 10.9527 2.72574 11.4636 2.82678 11.9505C2.83508 11.9912 2.84339 12.0319 2.85194 12.0739C2.95578 12.5773 3.07042 13.0784 3.18499 13.5795C3.20911 13.6854 3.23322 13.7913 3.25732 13.8973C3.32118 14.1779 3.38519 14.4584 3.44924 14.739C3.5553 15.2036 3.66119 15.6682 3.76711 16.1329C3.80654 16.3058 3.84599 16.4788 3.88544 16.6517C4.02754 17.2749 4.16879 17.8983 4.30842 18.522C4.33348 18.6339 4.35858 18.7457 4.38371 18.8576C4.39561 18.9105 4.39561 18.9105 4.40775 18.9646C4.42321 19.0334 4.43867 19.1022 4.45413 19.171C4.49734 19.3634 4.54022 19.5558 4.58285 19.7484C4.61464 19.8915 4.64693 20.0345 4.67913 20.1775C4.68982 20.2264 4.70051 20.2752 4.71153 20.3256C4.86136 20.9963 4.86136 20.9963 5.29745 21.4971C5.53866 21.5905 5.76099 21.5821 6.01755 21.5807C6.07345 21.5809 6.12935 21.5812 6.18695 21.5814C6.34175 21.582 6.49652 21.5819 6.65132 21.5816C6.8184 21.5813 6.98549 21.5819 7.15257 21.5824C7.47976 21.5832 7.80694 21.5833 8.13413 21.583C8.40007 21.5828 8.66601 21.5829 8.93195 21.5831C8.98873 21.5832 8.98873 21.5832 9.04666 21.5832C9.12357 21.5833 9.20047 21.5834 9.27737 21.5835C9.99849 21.5841 10.7196 21.5839 11.4407 21.5833C12.1004 21.5828 12.76 21.5835 13.4197 21.5846C14.0971 21.5857 14.7745 21.5862 15.452 21.5859C15.8323 21.5857 16.2126 21.5858 16.5928 21.5866C16.9166 21.5873 17.2403 21.5873 17.564 21.5865C17.7291 21.5861 17.8943 21.586 18.0594 21.5867C18.2385 21.5875 18.4175 21.5868 18.5966 21.586C18.6487 21.5864 18.7008 21.5869 18.7545 21.5874C19.054 21.5845 19.24 21.5568 19.4819 21.375C19.6756 21.1626 19.7624 20.8984 19.827 20.6234C19.8411 20.567 19.8411 20.567 19.8554 20.5094C19.8881 20.3763 19.9195 20.2429 19.9507 20.1094C19.9689 20.0319 19.9689 20.0319 19.9874 19.9528C20.0818 19.5484 20.1736 19.1435 20.265 18.7385C20.3051 18.5607 20.3454 18.383 20.3857 18.2053C20.4621 17.8683 20.5383 17.5313 20.6144 17.1943C20.7081 16.7795 20.802 16.3648 20.896 15.9501C20.9295 15.802 20.963 15.6539 20.9966 15.5058C21.0089 15.4516 21.0089 15.4516 21.0214 15.3963C21.0686 15.1875 21.1159 14.9788 21.1631 14.7701C21.1928 14.6386 21.2225 14.5072 21.2522 14.3758C21.2667 14.3115 21.2813 14.2473 21.2958 14.1831C21.3814 13.8042 21.4676 13.4255 21.5546 13.047C21.5633 13.0094 21.5719 12.9718 21.5808 12.933C21.6225 12.7511 21.6644 12.5692 21.7064 12.3873C21.7214 12.3216 21.7365 12.256 21.7516 12.1904C21.7648 12.1331 21.778 12.0759 21.7916 12.0169C21.892 11.5528 21.9886 10.9655 21.7581 10.5271C21.5107 10.2766 21.2847 10.2452 20.9418 10.241C20.8393 10.2408 20.7368 10.2414 20.6342 10.2421C20.5597 10.2419 20.4852 10.2417 20.4107 10.2413C20.2062 10.2406 20.0017 10.2411 19.7972 10.2418C19.5766 10.2423 19.356 10.2418 19.1353 10.2413C18.7032 10.2407 18.2711 10.241 17.839 10.2417C17.3359 10.2425 16.8329 10.2424 16.3298 10.2422C15.4322 10.2419 14.5347 10.2426 13.6372 10.2438C12.766 10.2449 11.8949 10.2452 11.0237 10.2447C10.0753 10.2442 9.12682 10.2441 8.17837 10.2448C8.07727 10.2448 7.97616 10.2449 7.87506 10.245C7.82531 10.245 7.77556 10.245 7.72431 10.2451C7.37353 10.2453 7.02275 10.2452 6.67197 10.245C6.24459 10.2448 5.81722 10.2451 5.38985 10.246C5.17175 10.2465 4.95365 10.2467 4.73555 10.2463C4.53596 10.246 4.33638 10.2463 4.13679 10.2472C4.06452 10.2473 3.99226 10.2473 3.92 10.247C3.82185 10.2466 3.72374 10.2471 3.62559 10.2478C3.57105 10.2478 3.51651 10.2479 3.46032 10.2479C3.2362 10.2743 3.08221 10.3528 2.92333 10.5117Z" fill="black"/>
<path d="M7.95653 12.1713C8.22447 12.3106 8.42537 12.5276 8.51611 12.8129C8.58046 13.0822 8.57313 13.3518 8.57218 13.6273C8.57234 13.6862 8.57251 13.7451 8.57268 13.8058C8.57302 13.9663 8.57294 14.1269 8.57264 14.2875C8.5724 14.4561 8.57262 14.6247 8.57277 14.7933C8.57294 15.0764 8.57272 15.3595 8.57227 15.6425C8.57176 15.9691 8.57192 16.2956 8.57244 16.6222C8.57287 16.9033 8.57293 17.1845 8.57268 17.4656C8.57254 17.6332 8.57251 17.8007 8.57282 17.9683C8.57315 18.1552 8.5727 18.3421 8.57218 18.529C8.57237 18.5841 8.57256 18.6391 8.57275 18.6958C8.57063 19.1081 8.54489 19.4468 8.2788 19.7813C8.03371 20.0135 7.78118 20.0858 7.44933 20.0774C7.1533 20.0367 6.91784 19.8691 6.73192 19.6407C6.55671 19.3325 6.57111 19.0356 6.57236 18.6874C6.57209 18.6243 6.57176 18.5611 6.57138 18.4979C6.57054 18.3271 6.5706 18.1562 6.57086 17.9854C6.57101 17.8425 6.57072 17.6995 6.57044 17.5566C6.56978 17.2193 6.56985 16.882 6.57039 16.5446C6.57093 16.1973 6.57027 15.85 6.56901 15.5026C6.56797 15.2038 6.56766 14.9049 6.56794 14.606C6.56809 14.4278 6.56798 14.2496 6.56717 14.0714C6.56645 13.9038 6.56664 13.7361 6.56752 13.5685C6.56777 13.4781 6.5671 13.3877 6.56641 13.2973C6.56938 12.9457 6.59428 12.6666 6.84498 12.3979C7.15377 12.1223 7.56017 12.0496 7.95653 12.1713Z" fill="black"/>
<path d="M17.2993 12.2168C17.5496 12.364 17.7032 12.5676 17.7944 12.8437C17.8063 12.9735 17.8063 12.9735 17.8066 13.1174C17.807 13.1721 17.8073 13.2268 17.8076 13.2832C17.8075 13.3429 17.8074 13.4025 17.8073 13.464C17.8075 13.5277 17.8077 13.5915 17.808 13.6553C17.8086 13.8282 17.8087 14.001 17.8086 14.1739C17.8085 14.3184 17.8087 14.4628 17.809 14.6072C17.8095 14.9481 17.8095 15.2889 17.8092 15.6297C17.8089 15.9811 17.8095 16.3324 17.8105 16.6837C17.8113 16.9857 17.8116 17.2876 17.8115 17.5895C17.8114 17.7697 17.8115 17.9499 17.8122 18.1301C17.8127 18.2996 17.8127 18.4691 17.812 18.6385C17.8119 18.7302 17.8124 18.8218 17.813 18.9135C17.8108 19.2661 17.7824 19.4863 17.5513 19.7636C17.3039 19.9725 17.0638 20.1005 16.7335 20.0833C16.4425 20.0286 16.1873 19.8985 16.0102 19.6582C15.8941 19.4559 15.8666 19.3246 15.8656 19.0955C15.8653 19.0406 15.865 18.9856 15.8646 18.929C15.8645 18.8687 15.8644 18.8083 15.8642 18.7462C15.864 18.682 15.8636 18.6179 15.8633 18.5537C15.8623 18.343 15.8618 18.1323 15.8614 17.9216C15.8612 17.849 15.861 17.7764 15.8608 17.7038C15.8599 17.3628 15.8592 17.0217 15.8588 16.6806C15.8584 16.2872 15.8572 15.8938 15.8553 15.5003C15.8538 15.196 15.8532 14.8918 15.853 14.5875C15.8529 14.4059 15.8525 14.2242 15.8513 14.0426C15.8502 13.8716 15.85 13.7006 15.8505 13.5296C15.8505 13.4373 15.8496 13.3449 15.8487 13.2526C15.8509 12.8786 15.8858 12.6568 16.1452 12.3768C16.1722 12.3549 16.1992 12.333 16.227 12.3105C16.2677 12.2766 16.2677 12.2766 16.3092 12.242C16.5752 12.0582 17.0153 12.0861 17.2993 12.2168Z" fill="black"/>
<path d="M12.6109 12.1849C12.8591 12.333 13.0423 12.528 13.1538 12.7968C13.1659 12.9213 13.1659 12.9213 13.1663 13.066C13.1667 13.1209 13.1671 13.1759 13.1675 13.2325C13.1675 13.2926 13.1675 13.3527 13.1674 13.4146C13.1677 13.4787 13.168 13.5427 13.1684 13.6068C13.1692 13.7808 13.1694 13.9547 13.1695 14.1287C13.1695 14.2374 13.1697 14.3462 13.17 14.455C13.1709 14.8347 13.1712 15.2144 13.1712 15.5942C13.1711 15.9477 13.1721 16.3012 13.1736 16.6547C13.1748 16.9585 13.1753 17.2623 13.1752 17.5661C13.1752 17.7475 13.1755 17.9288 13.1765 18.1101C13.1774 18.2807 13.1774 18.4514 13.1767 18.6221C13.1766 18.7142 13.1774 18.8062 13.1782 18.8983C13.1754 19.2824 13.1405 19.5602 12.8579 19.8427C12.5717 20.0224 12.3184 20.1199 11.9819 20.0625C11.6494 19.951 11.4527 19.8029 11.2788 19.5C11.23 19.3536 11.2257 19.2512 11.225 19.0976C11.2247 19.0431 11.2243 18.9886 11.224 18.9325C11.2239 18.8727 11.2238 18.8128 11.2236 18.7512C11.2233 18.6876 11.223 18.624 11.2227 18.5604C11.2217 18.3514 11.2212 18.1425 11.2207 17.9335C11.2206 17.8615 11.2204 17.7895 11.2202 17.7175C11.2193 17.3791 11.2186 17.0407 11.2182 16.7023C11.2178 16.3121 11.2165 15.9219 11.2146 15.5317C11.2132 15.2299 11.2125 14.928 11.2124 14.6262C11.2123 14.446 11.2118 14.2659 11.2107 14.0857C11.2096 13.9161 11.2094 13.7465 11.2099 13.5768C11.2099 13.4853 11.209 13.3938 11.2081 13.3023C11.2102 12.9484 11.2331 12.6683 11.4856 12.3978C11.7933 12.123 12.2208 12.0324 12.6109 12.1849Z" fill="black"/>
</g>
<defs>
<clipPath id="clip0_458_572">
<rect width="24" height="24" fill="white" transform="translate(0.310059)"/>
</clipPath>
</defs>
</svg>
