<svg width="20" height="20" viewBox="0 0 20 20" fill="none" xmlns="http://www.w3.org/2000/svg">
<g clip-path="url(#clip0_481_42)">
<path d="M13.2176 10.7699C13.2699 10.7697 13.3223 10.7694 13.3746 10.7692C13.516 10.7685 13.6574 10.7683 13.7988 10.7682C13.8874 10.7682 13.976 10.768 14.0647 10.7678C14.3745 10.7671 14.6843 10.7668 14.9942 10.7668C15.2818 10.7669 15.5694 10.766 15.857 10.7648C16.1049 10.7638 16.3528 10.7634 16.6007 10.7634C16.7483 10.7634 16.8959 10.7632 17.0435 10.7624C17.1826 10.7616 17.3216 10.7616 17.4607 10.7622C17.5352 10.7623 17.6097 10.7617 17.6842 10.761C18.3182 10.7655 18.8666 10.9961 19.325 11.4321C19.8253 11.9452 20.0119 12.5135 20.0114 13.2176C20.0116 13.2699 20.0119 13.3223 20.0122 13.3746C20.0129 13.516 20.0131 13.6574 20.0131 13.7988C20.0132 13.8874 20.0133 13.976 20.0135 14.0647C20.0143 14.3745 20.0146 14.6843 20.0145 14.9942C20.0145 15.2818 20.0153 15.5694 20.0165 15.857C20.0176 16.1049 20.018 16.3528 20.0179 16.6007C20.0179 16.7483 20.0181 16.8959 20.019 17.0435C20.0197 17.1826 20.0197 17.3216 20.0191 17.4607C20.019 17.5352 20.0197 17.6097 20.0204 17.6842C20.0158 18.3182 19.7852 18.8666 19.3493 19.325C18.8361 19.8253 18.2678 20.0119 17.5637 20.0114C17.5114 20.0116 17.4591 20.0119 17.4067 20.0122C17.2653 20.0129 17.1239 20.0131 16.9825 20.0131C16.8939 20.0132 16.8053 20.0133 16.7167 20.0135C16.4069 20.0143 16.097 20.0146 15.7872 20.0145C15.4996 20.0145 15.212 20.0153 14.9244 20.0165C14.6765 20.0176 14.4286 20.018 14.1807 20.0179C14.0331 20.0179 13.8854 20.0181 13.7378 20.019C13.5988 20.0197 13.4597 20.0197 13.3206 20.0191C13.2462 20.019 13.1717 20.0197 13.0972 20.0204C12.4631 20.0158 11.9148 19.7852 11.4563 19.3493C10.9561 18.8361 10.7694 18.2678 10.7699 17.5637C10.7697 17.5114 10.7694 17.4591 10.7692 17.4067C10.7685 17.2653 10.7683 17.1239 10.7682 16.9825C10.7682 16.8939 10.768 16.8053 10.7678 16.7167C10.7671 16.4069 10.7668 16.097 10.7668 15.7872C10.7669 15.4996 10.766 15.212 10.7648 14.9244C10.7638 14.6765 10.7634 14.4286 10.7634 14.1807C10.7634 14.0331 10.7632 13.8854 10.7624 13.7378C10.7616 13.5988 10.7616 13.4597 10.7622 13.3206C10.7623 13.2462 10.7617 13.1717 10.761 13.0972C10.7655 12.4631 10.9961 11.9148 11.4321 11.4563C11.9452 10.9561 12.5135 10.7694 13.2176 10.7699ZM12.5782 12.5782C12.3352 12.8855 12.338 13.1842 12.3381 13.5626C12.338 13.6064 12.3379 13.6501 12.3377 13.6952C12.3374 13.8395 12.3373 13.9838 12.3372 14.1282C12.3371 14.2287 12.337 14.3292 12.3368 14.4297C12.3366 14.6403 12.3365 14.8509 12.3366 15.0615C12.3366 15.3044 12.3362 15.5473 12.3356 15.7902C12.335 16.0245 12.3348 16.2588 12.3349 16.4931C12.3348 16.5925 12.3346 16.6919 12.3343 16.7912C12.334 16.9304 12.3341 17.0695 12.3343 17.2086C12.3341 17.2495 12.3339 17.2903 12.3336 17.3325C12.335 17.6572 12.3603 17.9452 12.5782 18.2032C12.8855 18.4461 13.1842 18.4434 13.5626 18.4432C13.6064 18.4434 13.6501 18.4435 13.6952 18.4436C13.8395 18.444 13.9838 18.4441 14.1282 18.4441C14.2287 18.4442 14.3292 18.4444 14.4297 18.4445C14.6403 18.4447 14.8509 18.4448 15.0615 18.4448C15.3044 18.4448 15.5473 18.4452 15.7902 18.4458C16.0245 18.4464 16.2588 18.4465 16.4931 18.4465C16.5925 18.4465 16.6919 18.4467 16.7912 18.447C16.9304 18.4474 17.0695 18.4473 17.2086 18.447C17.2495 18.4473 17.2903 18.4475 17.3325 18.4477C17.6572 18.4463 17.9452 18.421 18.2032 18.2032C18.4461 17.8959 18.4434 17.5972 18.4432 17.2187C18.4434 17.175 18.4435 17.1312 18.4436 17.0862C18.444 16.9418 18.4441 16.7975 18.4441 16.6532C18.4442 16.5527 18.4444 16.4522 18.4445 16.3517C18.4447 16.141 18.4448 15.9304 18.4448 15.7198C18.4448 15.4769 18.4452 15.2341 18.4458 14.9912C18.4464 14.7569 18.4465 14.5226 18.4465 14.2883C18.4465 14.1889 18.4467 14.0895 18.447 13.9901C18.4474 13.851 18.4473 13.7119 18.447 13.5728C18.4473 13.5319 18.4475 13.491 18.4477 13.4489C18.4463 13.1241 18.421 12.8362 18.2032 12.5782C17.8959 12.3352 17.5972 12.338 17.2187 12.3381C17.175 12.338 17.1312 12.3379 17.0862 12.3377C16.9418 12.3374 16.7975 12.3373 16.6532 12.3372C16.5527 12.3371 16.4522 12.337 16.3517 12.3368C16.141 12.3366 15.9304 12.3365 15.7198 12.3366C15.4769 12.3366 15.2341 12.3362 14.9912 12.3356C14.7569 12.335 14.5226 12.3348 14.2883 12.3349C14.1889 12.3348 14.0895 12.3346 13.9901 12.3343C13.851 12.334 13.7119 12.3341 13.5728 12.3343C13.5319 12.3341 13.491 12.3339 13.4489 12.3336C13.1241 12.335 12.8362 12.3603 12.5782 12.5782Z" fill="#000000"/>
<path d="M2.43637 10.7699C2.4887 10.7697 2.54103 10.7694 2.59336 10.7692C2.73477 10.7685 2.87618 10.7683 3.01759 10.7682C3.1062 10.7682 3.1948 10.768 3.2834 10.7678C3.59324 10.7671 3.90307 10.7668 4.21291 10.7668C4.50053 10.7669 4.78813 10.766 5.07574 10.7648C5.32363 10.7638 5.57152 10.7634 5.81941 10.7634C5.96703 10.7634 6.11465 10.7632 6.26227 10.7624C6.40133 10.7616 6.54038 10.7616 6.67944 10.7622C6.75394 10.7623 6.82843 10.7617 6.90293 10.761C7.53696 10.7655 8.08533 10.9961 8.54375 11.4321C9.04401 11.9452 9.23066 12.5135 9.23014 13.2176C9.23038 13.2699 9.23064 13.3223 9.23094 13.3746C9.23163 13.516 9.23181 13.6574 9.23186 13.7988C9.23192 13.8874 9.23209 13.976 9.23229 14.0647C9.23301 14.3745 9.23333 14.6843 9.23327 14.9942C9.23323 15.2818 9.23405 15.5694 9.23528 15.857C9.23631 16.1049 9.23672 16.3528 9.23667 16.6007C9.23665 16.7483 9.23687 16.8959 9.2377 17.0435C9.23847 17.1826 9.23846 17.3216 9.2379 17.4607C9.23778 17.5352 9.23842 17.6097 9.2391 17.6842C9.23455 18.3182 9.00394 18.8666 8.56801 19.325C8.05489 19.8253 7.48657 20.0119 6.78247 20.0114C6.73014 20.0116 6.67781 20.0119 6.62548 20.0122C6.48407 20.0129 6.34266 20.0131 6.20125 20.0131C6.11264 20.0132 6.02404 20.0133 5.93544 20.0135C5.6256 20.0143 5.31577 20.0146 5.00593 20.0145C4.71832 20.0145 4.43071 20.0153 4.1431 20.0165C3.89521 20.0176 3.64733 20.018 3.39943 20.0179C3.25181 20.0179 3.10419 20.0181 2.95657 20.019C2.81751 20.0197 2.67846 20.0197 2.5394 20.0191C2.4649 20.019 2.39041 20.0197 2.31591 20.0204C1.68188 20.0158 1.13351 19.7852 0.675094 19.3493C0.174829 18.8361 -0.0118181 18.2678 -0.0113039 17.5637C-0.011538 17.5114 -0.011804 17.4591 -0.012099 17.4067C-0.0127858 17.2653 -0.0129722 17.1239 -0.0130222 16.9825C-0.0130779 16.8939 -0.0132451 16.8053 -0.0134516 16.7167C-0.0141733 16.4069 -0.0144936 16.097 -0.014432 15.7872C-0.0143851 15.4996 -0.0152083 15.212 -0.0164432 14.9244C-0.0174691 14.6765 -0.0178836 14.4286 -0.0178339 14.1807C-0.0178141 14.0331 -0.01803 13.8854 -0.0188634 13.7378C-0.0196272 13.5988 -0.019621 13.4597 -0.0190574 13.3206C-0.0189385 13.2462 -0.0195836 13.1717 -0.0202637 13.0972C-0.0157077 12.4631 0.214897 11.9148 0.650832 11.4563C1.16395 10.9561 1.73227 10.7694 2.43637 10.7699ZM1.79692 12.5782C1.55397 12.8855 1.55671 13.1842 1.55687 13.5626C1.55674 13.6064 1.55661 13.6501 1.55647 13.6952C1.5561 13.8395 1.55603 13.9838 1.55598 14.1282C1.55586 14.2287 1.55573 14.3292 1.55559 14.4297C1.55536 14.6403 1.55528 14.8509 1.55531 15.0615C1.55533 15.3044 1.55492 15.5473 1.5543 15.7902C1.55373 16.0245 1.55359 16.2588 1.55361 16.4931C1.55357 16.5925 1.55339 16.6919 1.55309 16.7912C1.55271 16.9304 1.55282 17.0695 1.55306 17.2086C1.55284 17.2495 1.55262 17.2903 1.55239 17.3325C1.55378 17.6572 1.57905 17.9452 1.79692 18.2032C2.10422 18.4461 2.40293 18.4434 2.7814 18.4432C2.82513 18.4434 2.86885 18.4435 2.91391 18.4436C3.05824 18.444 3.20257 18.4441 3.34691 18.4441C3.44742 18.4442 3.54792 18.4444 3.64843 18.4445C3.85904 18.4447 4.06966 18.4448 4.28027 18.4448C4.52315 18.4448 4.76603 18.4452 5.00891 18.4458C5.24321 18.4464 5.47752 18.4465 5.71182 18.4465C5.81121 18.4465 5.91061 18.4467 6.01 18.447C6.14911 18.4474 6.28822 18.4473 6.42733 18.447C6.46821 18.4473 6.50909 18.4475 6.55121 18.4477C6.87596 18.4463 7.16391 18.421 7.42192 18.2032C7.66487 17.8959 7.66213 17.5972 7.66197 17.2187C7.6621 17.175 7.66223 17.1312 7.66237 17.0862C7.66274 16.9418 7.66281 16.7975 7.66286 16.6532C7.66298 16.5527 7.66311 16.4522 7.66325 16.3517C7.66348 16.141 7.66356 15.9304 7.66353 15.7198C7.66351 15.4769 7.66392 15.2341 7.66454 14.9912C7.66511 14.7569 7.66525 14.5226 7.66523 14.2883C7.66528 14.1889 7.66545 14.0895 7.66575 13.9901C7.66613 13.851 7.66602 13.7119 7.66578 13.5728C7.666 13.5319 7.66622 13.491 7.66645 13.4489C7.66506 13.1241 7.63979 12.8362 7.42192 12.5782C7.11462 12.3352 6.81591 12.338 6.43744 12.3381C6.39371 12.338 6.34999 12.3379 6.30493 12.3377C6.1606 12.3374 6.01627 12.3373 5.87193 12.3372C5.77142 12.3371 5.67092 12.337 5.57041 12.3368C5.3598 12.3366 5.14918 12.3365 4.93857 12.3366C4.69569 12.3366 4.45281 12.3362 4.20993 12.3356C3.97563 12.335 3.74132 12.3348 3.50702 12.3349C3.40763 12.3348 3.30823 12.3346 3.20884 12.3343C3.06973 12.334 2.93062 12.3341 2.79151 12.3343C2.75063 12.3341 2.70975 12.3339 2.66763 12.3336C2.34288 12.335 2.05493 12.3603 1.79692 12.5782Z" fill="#000000"/>
<path d="M13.2176 -0.0113039C13.2699 -0.011538 13.3223 -0.011804 13.3746 -0.012099C13.516 -0.0127858 13.6574 -0.0129722 13.7988 -0.0130221C13.8874 -0.0130779 13.976 -0.0132451 14.0647 -0.0134516C14.3745 -0.0141733 14.6843 -0.0144936 14.9942 -0.014432C15.2818 -0.0143851 15.5694 -0.0152083 15.857 -0.0164432C16.1049 -0.0174691 16.3528 -0.0178836 16.6007 -0.0178339C16.7483 -0.0178141 16.8959 -0.01803 17.0435 -0.0188634C17.1826 -0.0196272 17.3216 -0.019621 17.4607 -0.0190574C17.5352 -0.0189385 17.6097 -0.0195836 17.6842 -0.0202637C18.3182 -0.0157077 18.8666 0.214897 19.325 0.650832C19.8253 1.16395 20.0119 1.73227 20.0114 2.43637C20.0116 2.4887 20.0119 2.54103 20.0122 2.59336C20.0129 2.73477 20.0131 2.87618 20.0131 3.01759C20.0132 3.1062 20.0133 3.1948 20.0135 3.2834C20.0143 3.59324 20.0146 3.90307 20.0145 4.21291C20.0145 4.50053 20.0153 4.78813 20.0165 5.07574C20.0176 5.32363 20.018 5.57152 20.0179 5.81941C20.0179 5.96703 20.0181 6.11465 20.019 6.26227C20.0197 6.40133 20.0197 6.54038 20.0191 6.67944C20.019 6.75394 20.0197 6.82843 20.0204 6.90293C20.0158 7.53696 19.7852 8.08533 19.3493 8.54375C18.8361 9.04401 18.2678 9.23066 17.5637 9.23014C17.5114 9.23038 17.4591 9.23064 17.4067 9.23094C17.2653 9.23163 17.1239 9.23181 16.9825 9.23186C16.8939 9.23192 16.8053 9.23209 16.7167 9.23229C16.4069 9.23301 16.097 9.23333 15.7872 9.23327C15.4996 9.23323 15.212 9.23405 14.9244 9.23528C14.6765 9.23631 14.4286 9.23672 14.1807 9.23667C14.0331 9.23665 13.8854 9.23687 13.7378 9.2377C13.5988 9.23847 13.4597 9.23846 13.3206 9.2379C13.2462 9.23778 13.1717 9.23842 13.0972 9.2391C12.4631 9.23455 11.9148 9.00394 11.4563 8.56801C10.9561 8.05489 10.7694 7.48657 10.7699 6.78247C10.7697 6.73014 10.7694 6.67781 10.7692 6.62548C10.7685 6.48407 10.7683 6.34266 10.7682 6.20125C10.7682 6.11264 10.768 6.02404 10.7678 5.93544C10.7671 5.6256 10.7668 5.31577 10.7668 5.00593C10.7669 4.71832 10.766 4.43071 10.7648 4.1431C10.7638 3.89521 10.7634 3.64733 10.7634 3.39943C10.7634 3.25181 10.7632 3.10419 10.7624 2.95657C10.7616 2.81751 10.7616 2.67846 10.7622 2.5394C10.7623 2.4649 10.7617 2.39041 10.761 2.31591C10.7655 1.68188 10.9961 1.13351 11.4321 0.675094C11.9452 0.174829 12.5135 -0.0118181 13.2176 -0.0113039ZM12.5782 1.79692C12.3352 2.10422 12.338 2.40293 12.3381 2.7814C12.338 2.82513 12.3379 2.86885 12.3377 2.91391C12.3374 3.05824 12.3373 3.20257 12.3372 3.34691C12.3371 3.44742 12.337 3.54792 12.3368 3.64843C12.3366 3.85904 12.3365 4.06966 12.3366 4.28027C12.3366 4.52315 12.3362 4.76603 12.3356 5.00891C12.335 5.24321 12.3348 5.47752 12.3349 5.71182C12.3348 5.81121 12.3346 5.91061 12.3343 6.01C12.334 6.14911 12.3341 6.28822 12.3343 6.42733C12.3341 6.46821 12.3339 6.50909 12.3336 6.55121C12.335 6.87596 12.3603 7.16391 12.5782 7.42192C12.8855 7.66487 13.1842 7.66213 13.5626 7.66197C13.6064 7.6621 13.6501 7.66223 13.6952 7.66237C13.8395 7.66274 13.9838 7.66281 14.1282 7.66286C14.2287 7.66298 14.3292 7.66311 14.4297 7.66325C14.6403 7.66348 14.8509 7.66356 15.0615 7.66353C15.3044 7.66351 15.5473 7.66392 15.7902 7.66454C16.0245 7.66511 16.2588 7.66525 16.4931 7.66523C16.5925 7.66528 16.6919 7.66545 16.7912 7.66575C16.9304 7.66613 17.0695 7.66602 17.2086 7.66578C17.2495 7.666 17.2903 7.66622 17.3325 7.66645C17.6572 7.66506 17.9452 7.63979 18.2032 7.42192C18.4461 7.11462 18.4434 6.81591 18.4432 6.43744C18.4434 6.39371 18.4435 6.34999 18.4436 6.30493C18.444 6.1606 18.4441 6.01627 18.4441 5.87193C18.4442 5.77142 18.4444 5.67092 18.4445 5.57041C18.4447 5.3598 18.4448 5.14918 18.4448 4.93857C18.4448 4.69569 18.4452 4.45281 18.4458 4.20993C18.4464 3.97563 18.4465 3.74132 18.4465 3.50702C18.4465 3.40763 18.4467 3.30823 18.447 3.20884C18.4474 3.06973 18.4473 2.93062 18.447 2.79151C18.4473 2.75063 18.4475 2.70975 18.4477 2.66763C18.4463 2.34288 18.421 2.05493 18.2032 1.79692C17.8959 1.55397 17.5972 1.55671 17.2187 1.55687C17.175 1.55674 17.1312 1.55661 17.0862 1.55647C16.9418 1.5561 16.7975 1.55603 16.6532 1.55598C16.5527 1.55586 16.4522 1.55573 16.3517 1.55559C16.141 1.55536 15.9304 1.55528 15.7198 1.55531C15.4769 1.55533 15.2341 1.55492 14.9912 1.5543C14.7569 1.55373 14.5226 1.55359 14.2883 1.55361C14.1889 1.55357 14.0895 1.55339 13.9901 1.55309C13.851 1.55271 13.7119 1.55282 13.5728 1.55306C13.5319 1.55284 13.491 1.55262 13.4489 1.55239C13.1241 1.55378 12.8362 1.57905 12.5782 1.79692Z" fill="#000000"/>
<path d="M2.43637 -0.0113039C2.4887 -0.011538 2.54103 -0.011804 2.59336 -0.012099C2.73477 -0.0127858 2.87618 -0.0129722 3.01759 -0.0130221C3.1062 -0.0130779 3.1948 -0.0132451 3.2834 -0.0134516C3.59324 -0.0141733 3.90307 -0.0144936 4.21291 -0.014432C4.50053 -0.0143851 4.78813 -0.0152083 5.07574 -0.0164432C5.32363 -0.0174691 5.57152 -0.0178836 5.81941 -0.0178339C5.96703 -0.0178141 6.11465 -0.01803 6.26227 -0.0188634C6.40133 -0.0196272 6.54038 -0.019621 6.67944 -0.0190574C6.75394 -0.0189385 6.82843 -0.0195836 6.90293 -0.0202637C7.53696 -0.0157077 8.08533 0.214897 8.54375 0.650832C9.04401 1.16395 9.23066 1.73227 9.23014 2.43637C9.23038 2.4887 9.23064 2.54103 9.23094 2.59336C9.23163 2.73477 9.23181 2.87618 9.23186 3.01759C9.23192 3.1062 9.23209 3.1948 9.23229 3.2834C9.23301 3.59324 9.23333 3.90307 9.23327 4.21291C9.23323 4.50053 9.23405 4.78813 9.23528 5.07574C9.23631 5.32363 9.23672 5.57152 9.23667 5.81941C9.23665 5.96703 9.23687 6.11465 9.2377 6.26227C9.23847 6.40133 9.23846 6.54038 9.2379 6.67944C9.23778 6.75394 9.23842 6.82843 9.2391 6.90293C9.23455 7.53696 9.00394 8.08533 8.56801 8.54375C8.05489 9.04401 7.48657 9.23066 6.78247 9.23014C6.73014 9.23038 6.67781 9.23064 6.62548 9.23094C6.48407 9.23163 6.34266 9.23181 6.20125 9.23186C6.11264 9.23192 6.02404 9.23209 5.93544 9.23229C5.6256 9.23301 5.31577 9.23333 5.00593 9.23327C4.71832 9.23323 4.43071 9.23405 4.1431 9.23528C3.89521 9.23631 3.64733 9.23672 3.39943 9.23667C3.25181 9.23665 3.10419 9.23687 2.95657 9.2377C2.81751 9.23847 2.67846 9.23846 2.5394 9.2379C2.4649 9.23778 2.39041 9.23842 2.31591 9.2391C1.68188 9.23455 1.13351 9.00394 0.675094 8.56801C0.174829 8.05489 -0.0118181 7.48657 -0.0113039 6.78247C-0.011538 6.73014 -0.011804 6.67781 -0.012099 6.62548C-0.0127858 6.48407 -0.0129722 6.34266 -0.0130222 6.20125C-0.0130779 6.11264 -0.0132451 6.02404 -0.0134516 5.93544C-0.0141733 5.6256 -0.0144936 5.31577 -0.014432 5.00593C-0.0143851 4.71832 -0.0152083 4.43071 -0.0164432 4.1431C-0.0174691 3.89521 -0.0178836 3.64733 -0.0178339 3.39943C-0.0178141 3.25181 -0.01803 3.10419 -0.0188634 2.95657C-0.0196272 2.81751 -0.019621 2.67846 -0.0190574 2.5394C-0.0189385 2.4649 -0.0195836 2.39041 -0.0202637 2.31591C-0.0157077 1.68188 0.214897 1.13351 0.650832 0.675094C1.16395 0.174829 1.73227 -0.0118181 2.43637 -0.0113039ZM1.79692 1.79692C1.55397 2.10422 1.55671 2.40293 1.55687 2.7814C1.55674 2.82513 1.55661 2.86885 1.55647 2.91391C1.5561 3.05824 1.55603 3.20257 1.55598 3.34691C1.55586 3.44742 1.55573 3.54792 1.55559 3.64843C1.55536 3.85904 1.55528 4.06966 1.55531 4.28027C1.55533 4.52315 1.55492 4.76603 1.5543 5.00891C1.55373 5.24321 1.55359 5.47752 1.55361 5.71182C1.55357 5.81121 1.55339 5.91061 1.55309 6.01C1.55271 6.14911 1.55282 6.28822 1.55306 6.42733C1.55284 6.46821 1.55262 6.50909 1.55239 6.55121C1.55378 6.87596 1.57905 7.16391 1.79692 7.42192C2.10422 7.66487 2.40293 7.66213 2.7814 7.66197C2.82513 7.6621 2.86885 7.66223 2.91391 7.66237C3.05824 7.66274 3.20257 7.66281 3.34691 7.66286C3.44742 7.66298 3.54792 7.66311 3.64843 7.66325C3.85904 7.66348 4.06966 7.66356 4.28027 7.66353C4.52315 7.66351 4.76603 7.66392 5.00891 7.66454C5.24321 7.66511 5.47752 7.66525 5.71182 7.66523C5.81121 7.66528 5.91061 7.66545 6.01 7.66575C6.14911 7.66613 6.28822 7.66602 6.42733 7.66578C6.46821 7.666 6.50909 7.66622 6.55121 7.66645C6.87596 7.66506 7.16391 7.63979 7.42192 7.42192C7.66487 7.11462 7.66213 6.81591 7.66197 6.43744C7.6621 6.39371 7.66223 6.34999 7.66237 6.30493C7.66274 6.1606 7.66281 6.01627 7.66286 5.87193C7.66298 5.77142 7.66311 5.67092 7.66325 5.57041C7.66348 5.3598 7.66356 5.14918 7.66353 4.93857C7.66351 4.69569 7.66392 4.45281 7.66454 4.20993C7.66511 3.97563 7.66525 3.74132 7.66523 3.50702C7.66528 3.40763 7.66545 3.30823 7.66575 3.20884C7.66613 3.06973 7.66602 2.93062 7.66578 2.79151C7.666 2.75063 7.66622 2.70975 7.66645 2.66763C7.66506 2.34288 7.63979 2.05493 7.42192 1.79692C7.11462 1.55397 6.81591 1.55671 6.43744 1.55687C6.39371 1.55674 6.34999 1.55661 6.30493 1.55647C6.1606 1.5561 6.01627 1.55603 5.87193 1.55598C5.77142 1.55586 5.67092 1.55573 5.57041 1.55559C5.3598 1.55536 5.14918 1.55528 4.93857 1.55531C4.69569 1.55533 4.45281 1.55492 4.20993 1.5543C3.97563 1.55373 3.74132 1.55359 3.50702 1.55361C3.40763 1.55357 3.30823 1.55339 3.20884 1.55309C3.06973 1.55271 2.93062 1.55282 2.79151 1.55306C2.75063 1.55284 2.70975 1.55262 2.66763 1.55239C2.34288 1.55378 2.05493 1.57905 1.79692 1.79692Z" fill="#000000"/>
</g>
<defs>
<clipPath id="clip0_481_42">
<rect width="20" height="20" fill="white"/>
</clipPath>
</defs>
</svg>
