<svg width="21" height="20" viewBox="0 0 21 20" fill="none" xmlns="http://www.w3.org/2000/svg">
<g clip-path="url(#clip0_458_583)">
<path d="M5.89322 -0.0204865C6.03584 -0.0201278 6.17846 -0.0206812 6.32108 -0.0211084C6.59936 -0.0217979 6.87764 -0.0216555 7.15593 -0.0212002C7.38239 -0.0208452 7.60885 -0.0208003 7.83531 -0.0209695C7.86772 -0.0209934 7.90013 -0.0210174 7.93352 -0.0210421C7.99939 -0.021092 8.06526 -0.0211427 8.13113 -0.021194C8.74668 -0.021638 9.36224 -0.0211297 9.97779 -0.0202877C10.5043 -0.0195898 11.0308 -0.0197111 11.5573 -0.0204313C12.1709 -0.0212702 12.7845 -0.0215951 13.398 -0.0211169C13.4637 -0.0210671 13.5293 -0.021018 13.5949 -0.0209695C13.6433 -0.0209333 13.6433 -0.0209333 13.6926 -0.0208965C13.9185 -0.0207624 14.1443 -0.0209875 14.3701 -0.0213569C14.6458 -0.0217982 14.9215 -0.0216702 15.1973 -0.0208443C15.3375 -0.0204377 15.4778 -0.0202658 15.6181 -0.0207895C16.3658 -0.0233491 17.1006 -8.60542e-07 17.7976 0.300232C17.8296 0.313611 17.8617 0.326989 17.8947 0.340773C18.4169 0.565565 18.8515 0.86749 19.2698 1.24994C19.301 1.27794 19.3322 1.30593 19.3644 1.33478C19.8071 1.75234 20.1177 2.26063 20.3635 2.81244C20.3918 2.87422 20.3918 2.87422 20.4206 2.93726C20.7183 3.64282 20.738 4.375 20.7353 5.12928C20.7355 5.23024 20.7358 5.33119 20.7361 5.43215C20.7368 5.67595 20.7367 5.91974 20.7362 6.16353C20.7359 6.36193 20.7358 6.56032 20.736 6.75872C20.736 6.78714 20.736 6.81556 20.7361 6.84485C20.7361 6.90261 20.7362 6.96038 20.7362 7.01814C20.7367 7.55756 20.7362 8.09697 20.7353 8.63639C20.7346 9.09769 20.7347 9.55898 20.7355 10.0203C20.7363 10.5581 20.7366 11.0959 20.7361 11.6338C20.7361 11.6913 20.736 11.7488 20.736 11.8063C20.736 11.8346 20.7359 11.8629 20.7359 11.892C20.7358 12.0898 20.736 12.2877 20.7364 12.4855C20.7369 12.7525 20.7365 13.0194 20.7356 13.2864C20.7354 13.3839 20.7355 13.4813 20.7358 13.5788C20.7388 14.4916 20.5983 15.2995 20.156 16.1059C20.1431 16.1297 20.1302 16.1535 20.1169 16.178C19.8618 16.6226 19.4857 16.9842 19.1263 17.344C19.079 17.3916 19.0317 17.4392 18.9844 17.4868C18.8858 17.5858 18.787 17.6848 18.6881 17.7836C18.5627 17.909 18.4377 18.035 18.313 18.1611C18.2156 18.2594 18.1178 18.3573 18.02 18.4551C17.9738 18.5013 17.9278 18.5477 17.8819 18.5942C17.3215 19.1614 16.6952 19.5626 15.9373 19.8193C15.896 19.8333 15.896 19.8333 15.8539 19.8475C15.4828 19.9666 15.1175 20.0116 14.7288 20.0104C14.6867 20.0106 14.6446 20.0107 14.6013 20.0109C14.4614 20.0114 14.3215 20.0114 14.1816 20.0113C14.0808 20.0115 13.98 20.0118 13.8792 20.0121C13.6345 20.0127 13.3898 20.0129 13.1451 20.013C12.9458 20.013 12.7466 20.0132 12.5474 20.0134C11.9811 20.0141 11.4147 20.0145 10.8484 20.0144C10.8179 20.0144 10.7874 20.0144 10.756 20.0144C10.7255 20.0144 10.695 20.0144 10.6636 20.0144C10.1699 20.0144 9.67629 20.0151 9.18263 20.0162C8.67429 20.0173 8.16594 20.0179 7.65759 20.0178C7.37279 20.0178 7.08799 20.018 6.80319 20.0188C6.53498 20.0196 6.26678 20.0196 5.99858 20.019C5.9007 20.019 5.80283 20.0191 5.70495 20.0196C4.99432 20.0228 4.29428 19.9847 3.63257 19.6996C3.60054 19.6863 3.56851 19.6729 3.53551 19.6591C3.01327 19.4343 2.57863 19.1324 2.1604 18.7499C2.12918 18.7219 2.09796 18.6939 2.0658 18.6651C1.62333 18.2477 1.31195 17.7393 1.06665 17.1874C1.0384 17.125 1.0384 17.125 1.00958 17.0612C0.709564 16.3439 0.691828 15.6245 0.694663 14.8582C0.695021 14.7145 0.694468 14.5709 0.694041 14.4272C0.693351 14.1467 0.693494 13.8663 0.693949 13.5858C0.694304 13.3576 0.694349 13.1295 0.694179 12.9013C0.694156 12.8686 0.694132 12.836 0.694107 12.8023C0.694057 12.736 0.694007 12.6697 0.693955 12.6033C0.693511 11.9832 0.69402 11.3631 0.694861 10.7429C0.695559 10.2123 0.695438 9.68178 0.694718 9.15121C0.693879 8.53309 0.693554 7.91497 0.694032 7.29685C0.694082 7.23077 0.694131 7.1647 0.694179 7.09862C0.694204 7.06612 0.694228 7.03362 0.694253 7.00013C0.694387 6.77256 0.694161 6.545 0.693792 6.31743C0.693351 6.03959 0.693478 5.76176 0.694305 5.48393C0.694712 5.34254 0.694883 5.20115 0.694359 5.05976C0.691839 4.31683 0.720225 3.61296 1.01538 2.91986C1.02876 2.88766 1.04214 2.85545 1.05592 2.82227C1.28 2.29885 1.58213 1.86405 1.96509 1.44525C1.99309 1.41403 2.02108 1.38281 2.04993 1.35065C2.46749 0.907973 2.97578 0.597365 3.52759 0.351502C3.56878 0.332669 3.60997 0.313837 3.65241 0.294434C4.3736 -0.00990577 5.12218 -0.0233647 5.89322 -0.0204865ZM3.04694 2.63269C2.28451 3.52565 2.26555 4.61135 2.26748 5.72763C2.26737 5.83133 2.26724 5.93503 2.26706 6.03873C2.26672 6.28965 2.26679 6.54057 2.26702 6.7915C2.2672 6.99567 2.26722 7.19985 2.26713 7.40402C2.26712 7.43323 2.26711 7.46243 2.2671 7.49252C2.26707 7.55188 2.26705 7.61124 2.26702 7.6706C2.2668 8.22545 2.26705 8.78031 2.26748 9.33517C2.26782 9.80989 2.26776 10.2846 2.2674 10.7593C2.26698 11.3124 2.26682 11.8654 2.26706 12.4185C2.26709 12.4776 2.26711 12.5367 2.26713 12.5959C2.26715 12.6249 2.26716 12.654 2.26717 12.684C2.26724 12.8876 2.26713 13.0912 2.26694 13.2948C2.26672 13.5434 2.26678 13.792 2.2672 14.0406C2.2674 14.1671 2.26744 14.2936 2.26722 14.4201C2.26541 15.579 2.35417 16.6477 3.19554 17.5204C4.02964 18.3414 5.06575 18.444 6.18326 18.4419C6.26606 18.4419 6.34887 18.4419 6.43167 18.4419C6.65544 18.4419 6.87921 18.4417 7.10298 18.4414C7.33722 18.4412 7.57145 18.4411 7.80569 18.4411C8.24879 18.441 8.69189 18.4406 9.13499 18.4403C9.63964 18.4398 10.1443 18.4396 10.6489 18.4394C11.6866 18.439 12.7243 18.4383 13.762 18.4374C13.7622 18.4054 13.7624 18.3733 13.7627 18.3403C13.7649 18.0358 13.7678 17.7313 13.7712 17.4268C13.7729 17.2703 13.7744 17.1138 13.7755 16.9573C13.7765 16.8058 13.7781 16.6544 13.7801 16.5029C13.7807 16.4456 13.7812 16.3883 13.7814 16.3309C13.7857 15.4251 14.0549 14.5947 14.6989 13.9384C15.2491 13.4067 16.0025 13.0878 16.7668 13.0779C16.7927 13.0775 16.8187 13.0771 16.8454 13.0767C16.9304 13.0755 17.0153 13.0745 17.1003 13.0735C17.1595 13.0727 17.2187 13.0719 17.2779 13.0711C17.4332 13.0689 17.5885 13.067 17.7438 13.0651C17.9025 13.0631 18.0611 13.0609 18.2198 13.0588C18.5307 13.0546 18.8417 13.0506 19.1526 13.0468C19.1544 11.9684 19.1558 10.8899 19.1566 9.81144C19.157 9.31064 19.1576 8.80984 19.1585 8.30905C19.1593 7.87232 19.1598 7.43559 19.1599 6.99887C19.16 6.76783 19.1603 6.5368 19.1608 6.30577C19.1614 6.08785 19.1615 5.86993 19.1614 5.652C19.1614 5.57247 19.1616 5.49294 19.1619 5.41341C19.166 4.27411 19.0032 3.27049 18.176 2.42181C17.3017 1.58015 16.1659 1.55038 15.0231 1.55233C14.9186 1.55222 14.814 1.55209 14.7095 1.55192C14.4564 1.55157 14.2034 1.55164 13.9503 1.55187C13.7444 1.55205 13.5385 1.55207 13.3326 1.55198C13.3031 1.55197 13.2737 1.55196 13.2433 1.55195C13.1835 1.55192 13.1237 1.5519 13.0639 1.55187C12.5044 1.55165 11.945 1.5519 11.3855 1.55233C10.9068 1.55267 10.428 1.55261 9.94921 1.55225C9.39161 1.55183 8.83401 1.55167 8.27641 1.55191C8.21681 1.55194 8.15722 1.55196 8.09762 1.55198C8.05365 1.552 8.05365 1.552 8.0088 1.55202C7.80342 1.55209 7.59805 1.55198 7.39268 1.55179C7.14199 1.55157 6.8913 1.55163 6.64061 1.55205C6.513 1.55225 6.38539 1.55229 6.25778 1.55207C5.00735 1.55013 3.94705 1.69596 3.04694 2.63269ZM15.6277 15.2979C15.429 15.5653 15.3584 15.8452 15.3591 16.1748C15.3591 16.2217 15.3591 16.2686 15.3591 16.3169C15.3593 16.3672 15.3595 16.4174 15.3597 16.4692C15.3598 16.5215 15.3598 16.5737 15.3599 16.626C15.36 16.7631 15.3604 16.9002 15.3608 17.0373C15.3612 17.1774 15.3614 17.3175 15.3616 17.4576C15.362 17.7321 15.3627 18.0067 15.3635 18.2812C15.5482 18.2536 15.691 18.2078 15.8591 18.1249C15.9028 18.104 15.9464 18.083 15.9914 18.0615C16.3824 17.8425 16.7031 17.5007 17.017 17.1864C17.0577 17.1458 17.0985 17.1052 17.1393 17.0646C17.224 16.9802 17.3085 16.8956 17.3929 16.811C17.5002 16.7034 17.608 16.5964 17.7159 16.4894C17.7999 16.4059 17.8837 16.3222 17.9674 16.2383C18.007 16.1988 18.0467 16.1593 18.0864 16.1199C18.3952 15.8138 18.661 15.4991 18.8547 15.1074C18.8736 15.0701 18.8924 15.0328 18.9118 14.9944C18.9591 14.8783 18.9776 14.772 18.9963 14.6484C18.6931 14.6447 18.3898 14.642 18.0866 14.6403C17.9457 14.6395 17.8048 14.6384 17.664 14.6366C17.5277 14.6349 17.3915 14.634 17.2552 14.6336C17.1786 14.6331 17.1021 14.6319 17.0255 14.6307C16.4215 14.6305 16.0165 14.845 15.6277 15.2979Z" fill="black"/>
<path d="M6.23355 9.19836C6.27341 9.19806 6.31327 9.19776 6.35435 9.19745C6.48764 9.19665 6.62091 9.19696 6.7542 9.19727C6.84989 9.19693 6.94557 9.19652 7.04125 9.19606C7.274 9.19512 7.50675 9.19492 7.7395 9.19511C7.92876 9.19524 8.11801 9.19511 8.30726 9.19478C8.33422 9.19473 8.36119 9.19468 8.38897 9.19463C8.44375 9.19454 8.49853 9.19444 8.55332 9.19435C9.06677 9.1935 9.58023 9.19367 10.0937 9.19415C10.563 9.19455 11.0323 9.19367 11.5017 9.19218C11.984 9.19067 12.4663 9.19003 12.9487 9.19032C13.2193 9.19047 13.4899 9.19028 13.7605 9.18917C14.0151 9.18814 14.2696 9.18834 14.5241 9.18936C14.6174 9.18954 14.7107 9.18933 14.8041 9.18868C14.9317 9.18787 15.0592 9.1885 15.1867 9.18949C15.2235 9.18891 15.2603 9.18834 15.2982 9.18774C15.5699 9.19217 15.7434 9.27706 15.9495 9.4531C16.1286 9.66276 16.1341 9.86683 16.1257 10.1385C16.0957 10.3409 16.0206 10.4853 15.8713 10.625C15.643 10.7846 15.4715 10.8038 15.1967 10.8016C15.1568 10.8019 15.1169 10.8022 15.0759 10.8025C14.9426 10.8033 14.8093 10.803 14.676 10.8027C14.5803 10.803 14.4846 10.8034 14.389 10.8039C14.1562 10.8048 13.9235 10.805 13.6907 10.8048C13.5014 10.8047 13.3122 10.8048 13.1229 10.8052C13.096 10.8052 13.069 10.8053 13.0412 10.8053C12.9864 10.8054 12.9317 10.8055 12.8769 10.8056C12.3634 10.8065 11.85 10.8063 11.3365 10.8058C10.8672 10.8054 10.3979 10.8063 9.92854 10.8078C9.4462 10.8093 8.96386 10.8099 8.48152 10.8096C8.21089 10.8095 7.94028 10.8097 7.66965 10.8108C7.41514 10.8118 7.16064 10.8116 6.90613 10.8106C6.8128 10.8104 6.71946 10.8106 6.62614 10.8113C6.49855 10.8121 6.37105 10.8115 6.24347 10.8105C6.18829 10.8113 6.18829 10.8113 6.13199 10.8122C5.86028 10.8078 5.68683 10.7229 5.48073 10.5469C5.30164 10.3372 5.2961 10.1331 5.30449 9.86143C5.33448 9.65905 5.40956 9.51463 5.55885 9.37498C5.78723 9.2154 5.9587 9.19616 6.23355 9.19836Z" fill="black"/>
<path d="M6.23355 4.58898C6.27341 4.58869 6.31327 4.58839 6.35435 4.58808C6.48764 4.58727 6.62091 4.58758 6.7542 4.58789C6.84989 4.58755 6.94557 4.58715 7.04125 4.58668C7.274 4.58575 7.50675 4.58555 7.7395 4.58573C7.92876 4.58587 8.11801 4.58573 8.30726 4.5854C8.33422 4.58535 8.36119 4.58531 8.38897 4.58526C8.44375 4.58516 8.49853 4.58507 8.55332 4.58497C9.06677 4.58413 9.58023 4.58429 10.0937 4.58477C10.563 4.58517 11.0323 4.5843 11.5017 4.58281C11.984 4.58129 12.4663 4.58065 12.9487 4.58094C13.2193 4.58109 13.4899 4.5809 13.7605 4.57979C14.0151 4.57877 14.2696 4.57896 14.5241 4.57998C14.6174 4.58017 14.7107 4.57995 14.8041 4.57931C14.9317 4.57849 15.0592 4.57912 15.1867 4.58011C15.2235 4.57954 15.2603 4.57896 15.2982 4.57837C15.5699 4.5828 15.7434 4.66769 15.9495 4.84373C16.1286 5.05339 16.1341 5.25745 16.1257 5.52915C16.0957 5.73152 16.0206 5.87595 15.8713 6.0156C15.643 6.17518 15.4715 6.19441 15.1967 6.19222C15.1568 6.19252 15.1169 6.19282 15.0759 6.19312C14.9426 6.19393 14.8093 6.19362 14.676 6.19331C14.5803 6.19365 14.4846 6.19405 14.389 6.19452C14.1562 6.19546 13.9235 6.19565 13.6907 6.19547C13.5014 6.19533 13.3122 6.19547 13.1229 6.1958C13.096 6.19585 13.069 6.1959 13.0412 6.19594C12.9864 6.19604 12.9317 6.19613 12.8769 6.19623C12.3634 6.19708 11.85 6.19691 11.3365 6.19643C10.8672 6.19603 10.3979 6.19691 9.92854 6.19839C9.4462 6.19991 8.96386 6.20055 8.48152 6.20026C8.21089 6.20011 7.94028 6.2003 7.66965 6.20141C7.41514 6.20244 7.16064 6.20224 6.90613 6.20122C6.8128 6.20103 6.71946 6.20125 6.62614 6.20189C6.49855 6.20271 6.37105 6.20208 6.24347 6.20109C6.18829 6.20195 6.18829 6.20195 6.13199 6.20283C5.86028 6.19841 5.68683 6.11351 5.48073 5.93748C5.30164 5.72782 5.2961 5.52375 5.30449 5.25205C5.33448 5.04968 5.40956 4.90525 5.55885 4.7656C5.78723 4.60603 5.9587 4.58679 6.23355 4.58898Z" fill="black"/>
<path d="M6.33108 13.8067C6.38085 13.8063 6.43061 13.8059 6.48189 13.8055C6.61781 13.8044 6.75371 13.8044 6.88963 13.8046C7.0034 13.8047 7.11716 13.8043 7.23092 13.8039C7.49948 13.803 7.76803 13.803 8.03659 13.8035C8.31297 13.8039 8.58931 13.803 8.86568 13.8013C9.10358 13.7999 9.34147 13.7995 9.57938 13.7997C9.7212 13.7999 9.86299 13.7997 10.0048 13.7986C10.1631 13.7974 10.3213 13.7981 10.4796 13.7991C10.5262 13.7985 10.5727 13.7979 10.6206 13.7972C10.9213 13.801 11.1141 13.8599 11.3401 14.0625C11.5192 14.2722 11.5247 14.4762 11.5163 14.7479C11.4864 14.9503 11.4113 15.0947 11.262 15.2344C11.0129 15.4178 10.7925 15.4134 10.4897 15.4121C10.44 15.4125 10.3902 15.4129 10.3389 15.4133C10.203 15.4143 10.0671 15.4144 9.93119 15.4142C9.81743 15.4141 9.70367 15.4145 9.58991 15.4149C9.32135 15.4157 9.05279 15.4158 8.78423 15.4153C8.50786 15.4148 8.23152 15.4158 7.95515 15.4175C7.71725 15.4188 7.47935 15.4193 7.24145 15.419C7.09963 15.4189 6.95783 15.4191 6.81602 15.4202C6.65772 15.4214 6.49949 15.4206 6.34119 15.4197C6.29467 15.4203 6.24815 15.4209 6.20021 15.4215C5.8995 15.4177 5.70669 15.3589 5.48073 15.1563C5.30164 14.9466 5.2961 14.7425 5.30449 14.4708C5.33448 14.2685 5.40956 14.124 5.55885 13.9844C5.80789 13.8009 6.02834 13.8054 6.33108 13.8067Z" fill="black"/>
</g>
<defs>
<clipPath id="clip0_458_583">
<rect width="20" height="20" fill="white" transform="translate(0.715088)"/>
</clipPath>
</defs>
</svg>
