<?xml version="1.0" encoding="UTF-8"?>
<svg version="1.1" xmlns="http://www.w3.org/2000/svg" width="512" height="512">
<path d="M0 0 C2.37197575 2.16497659 4.70438636 4.36992823 7.03027344 6.58422852 C7.75601562 7.2687207 8.48175781 7.95321289 9.22949219 8.65844727 C14.65120038 13.90972849 19.35210468 19.67046369 24.03027344 25.58422852 C24.84753906 26.59614258 25.66480469 27.60805664 26.50683594 28.65063477 C32.80278492 36.5367536 38.07826647 44.80101228 43.03027344 53.58422852 C43.58497314 54.55005859 43.58497314 54.55005859 44.15087891 55.53540039 C61.40268611 85.74290315 71.1200154 120.79654088 72.03027344 155.58422852 C72.07023437 156.78950195 72.11019531 157.99477539 72.15136719 159.23657227 C73.21435256 220.82719532 48.96639138 276.35003534 7.03027344 320.58422852 C5.96292969 321.71538086 5.96292969 321.71538086 4.87402344 322.86938477 C-0.3531163 328.25719478 -6.05516135 332.9707181 -11.96972656 337.58422852 C-12.51483887 338.01106934 -13.05995117 338.43791016 -13.62158203 338.87768555 C-43.33223954 361.95597248 -78.003992 376.26789778 -114.96972656 382.58422852 C-115.71222656 382.71555176 -116.45472656 382.846875 -117.21972656 382.98217773 C-169.21147021 391.75824621 -228.80200085 378.96008837 -271.88378906 348.52563477 C-278.03372465 343.54759244 -281.07276543 338.10762075 -282.34082031 330.29907227 C-282.74281408 323.39208853 -280.70127013 316.67503564 -276.09863281 311.46704102 C-269.36284872 305.32971033 -263.72051469 303.99576586 -254.65332031 304.14672852 C-248.60920462 304.86458743 -244.1179679 307.47548278 -238.96972656 310.58422852 C-198.02492191 334.59806537 -151.81768685 342.08319482 -105.40722656 330.39672852 C-83.4136314 324.45455906 -63.00491456 314.45133465 -44.96972656 300.58422852 C-44.06222656 299.90102539 -43.15472656 299.21782227 -42.21972656 298.51391602 C-6.84773165 270.82690809 16.13826779 229.58038902 21.76025391 185.04907227 C25.81752729 148.0126961 18.73674914 112.27499321 1.03027344 79.58422852 C0.69157227 78.95661621 0.35287109 78.32900391 0.00390625 77.68237305 C-21.73902214 38.02682322 -60.28742723 10.00717198 -103.22753906 -2.67260742 C-147.35337194 -14.63121099 -194.75275029 -8.85935764 -234.57519531 13.58422852 C-247.54162425 21.22382761 -258.96208176 30.36154014 -269.96972656 40.58422852 C-270.61296875 41.16172852 -271.25621094 41.73922852 -271.91894531 42.33422852 C-294.5991228 63.63552729 -309.46700623 94.3329967 -316.78222656 124.20922852 C-316.9771167 124.99450928 -317.17200684 125.77979004 -317.37280273 126.58886719 C-319.26501268 134.8190214 -320.06833704 143.20014642 -320.96972656 151.58422852 C-319.78419189 151.56851807 -318.59865723 151.55280762 -317.37719727 151.53662109 C-312.96971456 151.48223287 -308.56226142 151.44784606 -304.15454102 151.41943359 C-302.24856575 151.40436724 -300.34262505 151.38391027 -298.43676758 151.35791016 C-295.6937608 151.3214321 -292.95121328 151.3044806 -290.20800781 151.29125977 C-288.9342907 151.26803398 -288.9342907 151.26803398 -287.63484192 151.24433899 C-281.50524207 151.24260381 -278.20288614 152.41310115 -273.71972656 156.77172852 C-271.55341338 160.25330327 -270.5827449 163.51740302 -270.96972656 167.58422852 C-273.380378 174.45772164 -277.36293647 180.54999073 -281.09472656 186.77172852 C-281.80639069 187.96462021 -282.51781157 189.15765705 -283.22900391 190.35083008 C-290.05978441 201.79439782 -296.97573956 213.18680663 -303.91291809 224.56610107 C-306.19158081 228.30431234 -308.46349874 232.04653868 -310.73144531 235.79125977 C-313.58338565 240.49868402 -316.44794818 245.19816304 -319.32324219 249.89135742 C-320.4377723 251.71420249 -321.54833917 253.5394757 -322.65527344 255.36694336 C-324.26992904 258.02961784 -325.89916049 260.68281693 -327.53222656 263.33422852 C-328.00893799 264.12708252 -328.48564941 264.91993652 -328.97680664 265.73681641 C-331.47626361 269.75756592 -333.42093978 272.74339136 -337.96972656 274.58422852 C-340.65332031 275.01782227 -340.65332031 275.01782227 -343.40722656 275.02172852 C-344.76654297 275.05073242 -344.76654297 275.05073242 -346.15332031 275.08032227 C-350.87187184 274.24917657 -354.05871035 271.77620813 -356.94165039 268.00415039 C-357.80052856 266.54332031 -357.80052856 266.54332031 -358.67675781 265.05297852 C-359.33675781 263.94696289 -359.99675781 262.84094727 -360.67675781 261.70141602 C-361.3786873 260.49574889 -362.08050717 259.29001794 -362.78222656 258.08422852 C-363.52821396 256.82558018 -364.27563709 255.56778181 -365.02441406 254.31079102 C-366.57767812 251.70076261 -368.12472326 249.08719879 -369.66748047 246.47094727 C-372.86883034 241.05263105 -376.14473176 235.68000791 -379.42050171 230.30648804 C-381.18009759 227.41818363 -382.93394173 224.52639026 -384.68847656 221.63500977 C-386.86615694 218.04782997 -389.04442031 214.46100511 -391.22363281 210.87475586 C-391.59939453 210.25637344 -391.97515625 209.63799103 -392.36230469 209.00086975 C-393.11871238 207.75620893 -393.87522206 206.51161008 -394.63183594 205.26707458 C-396.46526841 202.25070451 -398.2964007 199.23298995 -400.12207031 196.21191406 C-403.04147656 191.38475309 -405.96296025 186.56441735 -409.00097656 181.81079102 C-416.44601872 170.08582997 -416.44601872 170.08582997 -415.96972656 162.58422852 C-414.45141981 158.3489518 -412.40411751 155.48199587 -408.96972656 152.58422852 C-405.21124482 151.33140127 -401.71481737 151.46041016 -397.80175781 151.48657227 C-396.60953865 151.48869469 -396.60953865 151.48869469 -395.39323425 151.49085999 C-392.85619331 151.49645474 -390.31924081 151.50900624 -387.78222656 151.52172852 C-386.06152471 151.5267442 -384.34082148 151.53130698 -382.62011719 151.53540039 C-378.40328627 151.54642245 -374.18652141 151.56368345 -369.96972656 151.58422852 C-369.87175781 150.30032227 -369.77378906 149.01641602 -369.67285156 147.69360352 C-364.74243125 87.61127228 -337.36889981 33.86481853 -292.11914062 -6.0480957 C-261.43101772 -31.90992178 -223.55927477 -49.1585087 -183.96972656 -55.41577148 C-183.28587891 -55.53146484 -182.60203125 -55.6471582 -181.89746094 -55.76635742 C-116.30653154 -66.52786823 -48.82172465 -43.92906256 0 0 Z " fill="#000000" transform="translate(427.9697265625,92.415771484375)"/>
<path d="M0 0 C5.50328185 3.73103854 10.16803155 9.28081113 11.61108398 15.8503418 C12.24423342 20.71160779 12.29068932 25.52788763 12.35546875 30.42578125 C12.38260704 32.04589111 12.38260704 32.04589111 12.41029358 33.69873047 C12.44873329 36.00986777 12.48526105 38.32103753 12.52005005 40.63223267 C12.61063665 46.6299844 12.71547424 52.62748297 12.8203125 58.625 C12.84077133 59.8097139 12.86123016 60.9944278 12.88230896 62.21504211 C13.05981238 72.21879146 13.31579638 82.21864149 13.63671875 92.21875 C13.65895508 92.9146524 13.68119141 93.61055481 13.70410156 94.32754517 C13.82295537 98.02060576 13.94608696 101.71350004 14.07421875 105.40625 C18.23250868 107.49806436 22.39224436 109.58696952 26.55325317 111.67337036 C28.02318978 112.41076598 29.49281589 113.14878086 30.96212769 113.88742065 C38.14424263 117.49681278 45.32071025 121.09991755 52.62890625 124.44921875 C53.57419189 124.88379395 54.51947754 125.31836914 55.4934082 125.76611328 C57.19411607 126.53989059 58.9006456 127.30106232 60.61401367 128.04638672 C67.3050484 131.09426523 72.07063333 135.23929239 76.01171875 141.46875 C78.45558261 148.21992391 78.44554066 157.34308805 75.51171875 163.90625 C71.74539123 170.09947166 65.98656065 174.36654255 59.07421875 176.40625 C49.34340795 177.6055919 42.4247368 174.97623916 33.82421875 170.65625 C32.59998055 170.06218482 31.37478194 169.4700952 30.14868164 168.87988281 C27.03844599 167.37487354 23.94316739 165.84181443 20.85308838 164.29589844 C18.10084329 162.91944538 15.3426365 161.5550064 12.5859375 160.1875 C8.60764154 158.20734555 4.63976052 156.20784488 0.67578125 154.19921875 C-3.00928432 152.34264519 -6.71575992 150.55564816 -10.46484375 148.83203125 C-11.77086548 148.2302002 -11.77086548 148.2302002 -13.10327148 147.61621094 C-14.71551335 146.87916816 -16.33192882 146.15115051 -17.95336914 145.43457031 C-22.47395046 143.36714762 -25.57944318 141.19712006 -28.92578125 137.40625 C-29.64765625 136.601875 -30.36953125 135.7975 -31.11328125 134.96875 C-34.46062918 130.23629258 -35.17792157 125.6041271 -35.3046875 119.8984375 C-35.32145538 119.24809036 -35.33822327 118.59774323 -35.35549927 117.9276886 C-35.40953946 115.71231293 -35.44932645 113.49693928 -35.48828125 111.28125 C-35.52212054 109.6761792 -35.55639864 108.07111761 -35.59106445 106.46606445 C-35.66900009 102.71755201 -35.73844854 98.96896867 -35.80371094 95.22021484 C-35.89188324 90.18127188 -35.99082884 85.1426397 -36.09472656 80.10400391 C-36.23564857 73.25142896 -36.36669533 66.39872873 -36.48813152 59.54578018 C-36.5564397 55.69176929 -36.6277439 51.83787623 -36.70681763 47.98406982 C-36.78204592 44.29404746 -36.84632858 40.60398028 -36.90285873 36.91362572 C-36.92562794 35.54028877 -36.95205169 34.16700665 -36.98245621 32.79381752 C-37.40757187 13.28950886 -37.40757187 13.28950886 -30.92578125 5.40625 C-22.40023336 -3.24375844 -11.13240784 -5.59618347 0 0 Z " fill="#000000" transform="translate(290.92578125,133.59375)"/>
</svg>
