<?xml version="1.0" encoding="UTF-8"?>
<svg xmlns="http://www.w3.org/2000/svg" xmlns:xlink="http://www.w3.org/1999/xlink" width="24px" height="24px" viewBox="0 0 24 24" version="1.1">
<g id="surface1">
<path style=" stroke:none;fill-rule:nonzero;fill:rgb(0%,0%,0%);fill-opacity:1;" d="M 13.855469 2.152344 C 13.976562 2.257812 14.089844 2.367188 14.203125 2.484375 C 14.304688 2.59375 14.410156 2.695312 14.511719 2.804688 C 14.585938 2.875 14.65625 2.949219 14.726562 3.023438 C 15.25 3.558594 15.71875 3.703125 16.445312 3.710938 C 16.636719 3.71875 16.828125 3.71875 17.023438 3.71875 C 17.980469 3.71875 18.726562 3.957031 19.4375 4.621094 C 19.953125 5.15625 20.257812 5.855469 20.265625 6.59375 C 20.269531 6.632812 20.269531 6.671875 20.269531 6.707031 C 20.269531 6.828125 20.273438 6.953125 20.273438 7.070312 C 20.28125 8.265625 20.28125 8.265625 20.945312 9.234375 C 21.070312 9.355469 21.203125 9.476562 21.328125 9.601562 C 21.976562 10.203125 22.40625 10.914062 22.460938 11.820312 C 22.476562 12.660156 22.246094 13.457031 21.652344 14.070312 C 21.605469 14.113281 21.5625 14.160156 21.515625 14.203125 C 21.40625 14.304688 21.304688 14.410156 21.195312 14.511719 C 21.125 14.585938 21.050781 14.65625 20.976562 14.726562 C 20.40625 15.285156 20.292969 15.792969 20.28125 16.566406 C 20.28125 16.71875 20.277344 16.875 20.277344 17.035156 C 20.273438 17.980469 20.035156 18.78125 19.355469 19.46875 C 18.636719 20.128906 17.835938 20.257812 16.902344 20.273438 C 16.046875 20.28125 15.402344 20.292969 14.765625 20.945312 C 14.644531 21.070312 14.523438 21.203125 14.398438 21.328125 C 13.789062 21.976562 13.09375 22.390625 12.183594 22.460938 C 11.335938 22.484375 10.5625 22.246094 9.933594 21.652344 C 9.820312 21.539062 9.707031 21.425781 9.59375 21.308594 C 9.5625 21.273438 9.523438 21.238281 9.488281 21.195312 C 9.414062 21.125 9.34375 21.050781 9.273438 20.976562 C 8.6875 20.375 8.136719 20.292969 7.335938 20.277344 C 7.21875 20.277344 7.105469 20.277344 6.988281 20.273438 C 6.027344 20.269531 5.226562 20.054688 4.53125 19.355469 C 4.035156 18.8125 3.75 18.160156 3.742188 17.421875 C 3.734375 17.34375 3.734375 17.265625 3.734375 17.1875 C 3.730469 17.066406 3.730469 16.945312 3.726562 16.820312 C 3.710938 15.929688 3.652344 15.34375 2.980469 14.695312 C 2.878906 14.597656 2.773438 14.5 2.671875 14.398438 C 2.023438 13.796875 1.59375 13.085938 1.539062 12.179688 C 1.523438 11.339844 1.753906 10.542969 2.347656 9.929688 C 2.394531 9.886719 2.4375 9.839844 2.484375 9.796875 C 2.59375 9.695312 2.695312 9.589844 2.804688 9.488281 C 2.875 9.414062 2.949219 9.34375 3.023438 9.273438 C 3.59375 8.714844 3.707031 8.207031 3.71875 7.433594 C 3.71875 7.28125 3.722656 7.125 3.722656 6.964844 C 3.726562 6.003906 3.964844 5.242188 4.644531 4.539062 C 5.171875 4.046875 5.859375 3.75 6.578125 3.742188 C 6.65625 3.734375 6.734375 3.734375 6.8125 3.734375 C 6.933594 3.730469 7.054688 3.730469 7.179688 3.726562 C 8.070312 3.710938 8.65625 3.652344 9.304688 2.980469 C 9.402344 2.878906 9.5 2.773438 9.601562 2.671875 C 10.734375 1.460938 12.464844 1.140625 13.855469 2.152344 Z M 10.78125 3.703125 C 9.804688 4.691406 9.039062 5.207031 7.621094 5.226562 C 6.582031 5.21875 6.582031 5.21875 5.679688 5.699219 C 5.300781 6.097656 5.246094 6.613281 5.242188 7.144531 C 5.242188 7.21875 5.234375 7.292969 5.234375 7.367188 C 5.234375 7.484375 5.230469 7.601562 5.230469 7.71875 C 5.21875 8.820312 4.914062 9.585938 4.125 10.359375 C 4.058594 10.421875 3.992188 10.484375 3.929688 10.546875 C 3.894531 10.578125 3.863281 10.613281 3.828125 10.644531 C 3.765625 10.710938 3.699219 10.773438 3.632812 10.832031 C 3.296875 11.15625 3.113281 11.515625 3.085938 11.984375 C 3.09375 12.671875 3.539062 13.070312 4.003906 13.519531 C 4.070312 13.578125 4.070312 13.578125 4.132812 13.640625 C 4.484375 13.988281 4.777344 14.339844 4.984375 14.792969 C 5.007812 14.839844 5.03125 14.886719 5.046875 14.933594 C 5.226562 15.414062 5.222656 15.875 5.226562 16.378906 C 5.21875 17.417969 5.21875 17.417969 5.699219 18.320312 C 6.097656 18.699219 6.613281 18.753906 7.144531 18.757812 C 7.21875 18.757812 7.292969 18.765625 7.367188 18.765625 C 7.484375 18.765625 7.601562 18.769531 7.71875 18.769531 C 8.820312 18.78125 9.585938 19.085938 10.359375 19.875 C 10.421875 19.941406 10.484375 20.007812 10.546875 20.070312 C 10.578125 20.105469 10.613281 20.136719 10.644531 20.171875 C 10.710938 20.234375 10.773438 20.300781 10.832031 20.367188 C 11.148438 20.691406 11.523438 20.90625 11.980469 20.921875 C 12.515625 20.910156 12.859375 20.667969 13.21875 20.296875 C 14.195312 19.308594 14.960938 18.792969 16.378906 18.773438 C 17.417969 18.78125 17.417969 18.78125 18.320312 18.300781 C 18.699219 17.898438 18.753906 17.375 18.757812 16.851562 C 18.757812 16.773438 18.757812 16.695312 18.757812 16.617188 C 18.765625 16.5 18.765625 16.378906 18.765625 16.257812 C 18.773438 15.179688 19.109375 14.394531 19.875 13.640625 C 19.941406 13.578125 20.007812 13.515625 20.070312 13.453125 C 20.105469 13.421875 20.136719 13.386719 20.171875 13.355469 C 20.234375 13.289062 20.300781 13.226562 20.367188 13.167969 C 20.703125 12.84375 20.886719 12.484375 20.914062 12.015625 C 20.90625 11.328125 20.460938 10.929688 19.996094 10.480469 C 19.929688 10.421875 19.929688 10.421875 19.867188 10.359375 C 19.515625 10.011719 19.21875 9.65625 19.015625 9.207031 C 18.984375 9.132812 18.984375 9.132812 18.953125 9.0625 C 18.828125 8.742188 18.78125 8.457031 18.78125 8.125 C 18.777344 8.085938 18.777344 8.046875 18.777344 8.011719 C 18.777344 7.890625 18.773438 7.765625 18.773438 7.648438 C 18.78125 6.589844 18.78125 6.589844 18.300781 5.679688 C 17.902344 5.300781 17.386719 5.246094 16.855469 5.242188 C 16.78125 5.242188 16.707031 5.234375 16.632812 5.234375 C 16.515625 5.234375 16.398438 5.230469 16.28125 5.230469 C 15.179688 5.21875 14.414062 4.914062 13.640625 4.125 C 13.578125 4.058594 13.515625 3.992188 13.453125 3.929688 C 13.421875 3.894531 13.386719 3.863281 13.355469 3.828125 C 13.289062 3.765625 13.226562 3.699219 13.167969 3.632812 C 12.851562 3.308594 12.476562 3.09375 12.019531 3.078125 C 11.484375 3.089844 11.140625 3.332031 10.78125 3.703125 Z M 10.78125 3.703125 "/>
<path style=" stroke:none;fill-rule:nonzero;fill:rgb(0%,0%,0%);fill-opacity:1;" d="M 15.53125 13.09375 C 16.011719 13.457031 16.40625 13.917969 16.5 14.53125 C 16.5625 15.191406 16.519531 15.796875 16.117188 16.355469 C 15.722656 16.808594 15.234375 17.199219 14.617188 17.257812 C 13.828125 17.296875 13.269531 17.171875 12.65625 16.65625 C 12.253906 16.28125 12.015625 15.800781 11.984375 15.25 C 11.957031 14.46875 12.132812 13.90625 12.671875 13.320312 C 13.433594 12.601562 14.65625 12.515625 15.53125 13.09375 Z M 13.621094 14.605469 C 13.519531 14.820312 13.507812 15 13.546875 15.234375 C 13.65625 15.460938 13.789062 15.59375 14.015625 15.703125 C 14.25 15.742188 14.429688 15.730469 14.644531 15.628906 C 14.8125 15.472656 14.933594 15.351562 14.972656 15.121094 C 14.980469 14.855469 14.949219 14.691406 14.765625 14.484375 C 14.558594 14.300781 14.394531 14.269531 14.128906 14.277344 C 13.898438 14.316406 13.777344 14.4375 13.621094 14.605469 Z M 13.621094 14.605469 "/>
<path style=" stroke:none;fill-rule:nonzero;fill:rgb(0%,0%,0%);fill-opacity:1;" d="M 11.03125 7.09375 C 11.53125 7.46875 11.878906 7.90625 12 8.53125 C 12.070312 9.226562 12 9.824219 11.570312 10.398438 C 11.222656 10.824219 10.78125 11.164062 10.21875 11.25 C 9.558594 11.3125 8.953125 11.269531 8.394531 10.867188 C 7.941406 10.472656 7.550781 9.984375 7.492188 9.367188 C 7.453125 8.578125 7.578125 8.019531 8.09375 7.40625 C 8.835938 6.605469 10.128906 6.496094 11.03125 7.09375 Z M 9.121094 8.605469 C 9.019531 8.820312 9.007812 9 9.046875 9.234375 C 9.15625 9.460938 9.289062 9.59375 9.515625 9.703125 C 9.75 9.742188 9.929688 9.730469 10.144531 9.628906 C 10.3125 9.472656 10.433594 9.351562 10.472656 9.121094 C 10.480469 8.855469 10.449219 8.691406 10.265625 8.484375 C 10.058594 8.300781 9.894531 8.269531 9.628906 8.277344 C 9.398438 8.316406 9.277344 8.4375 9.121094 8.605469 Z M 9.121094 8.605469 "/>
<path style=" stroke:none;fill-rule:nonzero;fill:rgb(0%,0%,0%);fill-opacity:1;" d="M 15.09375 8.4375 C 15.324219 8.546875 15.453125 8.675781 15.5625 8.90625 C 15.609375 9.257812 15.585938 9.460938 15.375 9.75 C 15.300781 9.835938 15.21875 9.917969 15.136719 10 C 15.113281 10.023438 15.089844 10.046875 15.066406 10.074219 C 14.992188 10.148438 14.910156 10.226562 14.835938 10.304688 C 14.78125 10.359375 14.722656 10.414062 14.667969 10.472656 C 14.515625 10.625 14.367188 10.777344 14.210938 10.925781 C 14.117188 11.023438 14.023438 11.117188 13.929688 11.210938 C 13.597656 11.546875 13.269531 11.878906 12.9375 12.207031 C 12.628906 12.515625 12.324219 12.824219 12.015625 13.132812 C 11.75 13.398438 11.488281 13.664062 11.222656 13.925781 C 11.0625 14.085938 10.90625 14.246094 10.75 14.40625 C 10.601562 14.554688 10.453125 14.699219 10.304688 14.851562 C 10.25 14.902344 10.195312 14.957031 10.140625 15.015625 C 9.589844 15.566406 9.589844 15.566406 9.164062 15.625 C 8.863281 15.59375 8.679688 15.464844 8.484375 15.234375 C 8.363281 15.015625 8.367188 14.769531 8.4375 14.53125 C 8.558594 14.328125 8.695312 14.164062 8.863281 14 C 8.886719 13.976562 8.910156 13.953125 8.933594 13.925781 C 9.015625 13.851562 9.089844 13.773438 9.167969 13.695312 C 9.226562 13.640625 9.28125 13.585938 9.335938 13.527344 C 9.488281 13.375 9.640625 13.222656 9.792969 13.070312 C 9.953125 12.910156 10.109375 12.75 10.269531 12.589844 C 10.539062 12.324219 10.804688 12.054688 11.070312 11.789062 C 11.382812 11.480469 11.691406 11.175781 12 10.867188 C 12.261719 10.597656 12.53125 10.332031 12.796875 10.070312 C 12.953125 9.910156 13.109375 9.75 13.269531 9.589844 C 13.421875 9.441406 13.570312 9.296875 13.714844 9.144531 C 13.773438 9.089844 13.828125 9.039062 13.878906 8.980469 C 13.953125 8.90625 14.03125 8.832031 14.105469 8.757812 C 14.148438 8.714844 14.1875 8.675781 14.230469 8.628906 C 14.492188 8.394531 14.75 8.398438 15.09375 8.4375 Z M 15.09375 8.4375 "/>
</g>
</svg>
