<svg width="19" height="19" viewBox="0 0 19 19" fill="none" xmlns="http://www.w3.org/2000/svg">
<g clip-path="url(#clip0_460_1477)">
<path d="M7.86922 -0.00547845C7.89881 -0.00574398 7.9284 -0.00600951 7.95889 -0.00628309C7.99102 -0.00638287 8.02316 -0.00648266 8.05627 -0.00658546C8.10744 -0.00695124 8.10744 -0.00695124 8.15965 -0.00732441C8.27253 -0.00805574 8.38542 -0.00848935 8.49831 -0.0088595C8.53697 -0.00901074 8.57563 -0.00916198 8.61546 -0.0093178C8.82021 -0.0100917 9.02496 -0.0106224 9.22971 -0.0109705C9.4405 -0.0113802 9.65128 -0.0126559 9.86206 -0.0141311C10.0247 -0.0151047 10.1874 -0.0154124 10.35 -0.0155454C10.4277 -0.0157254 10.5053 -0.0161547 10.583 -0.0168456C11.2269 -0.0222167 11.6888 0.058175 12.179 0.505598C12.4631 0.808141 12.5861 1.21021 12.7026 1.60053C12.7244 1.67344 12.7467 1.74615 12.7692 1.81885C12.8771 2.17303 12.8771 2.17303 12.8771 2.30076C12.922 2.30035 12.967 2.29994 13.0133 2.29952C13.4386 2.29574 13.8638 2.29297 14.2891 2.29115C14.5077 2.29019 14.7263 2.28888 14.9449 2.28677C15.1561 2.28474 15.3674 2.28364 15.5787 2.28316C15.6589 2.28282 15.7392 2.28215 15.8195 2.28115C16.472 2.27329 16.9375 2.33938 17.4294 2.80479C17.6705 3.06023 17.8519 3.41556 17.8563 3.76961C17.8568 3.80306 17.8573 3.8365 17.8577 3.87096C17.8582 3.92477 17.8582 3.92477 17.8586 3.97967C17.8589 4.01682 17.8592 4.05398 17.8595 4.09225C17.86 4.1708 17.8604 4.24934 17.8607 4.32788C17.8613 4.44777 17.863 4.56763 17.8646 4.68751C17.865 4.7639 17.8653 4.84029 17.8655 4.91669C17.8662 4.95241 17.8668 4.98813 17.8675 5.02494C17.8668 5.24278 17.844 5.36219 17.7013 5.52928C17.5292 5.68622 17.315 5.65303 17.0959 5.64757C17.0578 5.64706 17.0197 5.64656 16.9805 5.64604C16.8868 5.64474 16.7931 5.64281 16.6993 5.64061C16.6997 5.66199 16.7001 5.68336 16.7006 5.70539C16.7032 5.9646 16.6864 6.21986 16.6646 6.47804C16.6609 6.52373 16.6571 6.56942 16.6533 6.6165C16.643 6.74237 16.6325 6.86823 16.622 6.99409C16.6107 7.1302 16.5995 7.26633 16.5883 7.40246C16.5664 7.66881 16.5443 7.93515 16.5221 8.20149C16.5041 8.41814 16.4862 8.63479 16.4683 8.85145C16.4644 8.89779 16.4644 8.89779 16.4605 8.94506C16.4553 9.00783 16.4502 9.0706 16.445 9.13337C16.3964 9.72151 16.3476 10.3096 16.2987 10.8978C16.2569 11.4015 16.2152 11.9052 16.1736 12.409C16.1252 12.9948 16.0768 13.5806 16.0282 14.1664C16.023 14.229 16.0178 14.2916 16.0126 14.3542C16.0101 14.3849 16.0075 14.4157 16.0049 14.4475C15.987 14.6635 15.9691 14.8796 15.9513 15.0957C15.9295 15.3595 15.9076 15.6233 15.8856 15.8871C15.8744 16.0215 15.8633 16.1558 15.8522 16.2902C15.698 18.1674 15.698 18.1674 15.129 18.6673C14.7818 18.9298 14.4055 19.0227 13.9761 19.0188C13.936 19.0191 13.8959 19.0193 13.8546 19.0195C13.7217 19.0201 13.5887 19.0197 13.4558 19.0192C13.3599 19.0194 13.264 19.0197 13.1682 19.02C12.9356 19.0206 12.703 19.0205 12.4705 19.0201C12.2813 19.0197 12.0922 19.0197 11.9031 19.0198C11.8761 19.0199 11.8491 19.0199 11.8212 19.0199C11.7664 19.02 11.7115 19.02 11.6566 19.0201C11.1431 19.0205 10.6296 19.02 10.1161 19.0192C9.67622 19.0185 9.23636 19.0186 8.79649 19.0193C8.28471 19.0201 7.77294 19.0204 7.26116 19.02C7.2065 19.0199 7.15185 19.0199 7.09719 19.0198C7.0703 19.0198 7.04342 19.0198 7.01572 19.0198C6.82698 19.0196 6.63824 19.0199 6.4495 19.0202C6.1951 19.0207 5.94071 19.0203 5.68631 19.0195C5.59314 19.0193 5.49998 19.0193 5.40681 19.0197C5.27925 19.0201 5.15172 19.0196 5.02417 19.0188C4.98765 19.0192 4.95113 19.0195 4.9135 19.0198C4.46387 19.0148 4.07897 18.858 3.74817 18.5547C3.16639 17.9005 3.20951 17.0391 3.14159 16.2121C3.13036 16.0757 3.11897 15.9393 3.1076 15.803C3.08541 15.5366 3.06338 15.2702 3.0414 15.0038C3.02353 14.7873 3.0056 14.5707 2.98764 14.3542C2.98507 14.3232 2.98251 14.2923 2.97987 14.2605C2.97465 14.1976 2.96944 14.1348 2.96423 14.072C2.91548 13.4842 2.86691 12.8964 2.81839 12.3087C2.7768 11.8048 2.73505 11.3011 2.6932 10.7973C2.6445 10.2112 2.59591 9.62513 2.54748 9.03904C2.54231 8.97651 2.53714 8.91398 2.53197 8.85145C2.52943 8.82069 2.52689 8.78992 2.52427 8.75823C2.50638 8.54196 2.48843 8.32569 2.47045 8.10942C2.44853 7.84584 2.42673 7.58226 2.40506 7.31866C2.39401 7.1843 2.38292 7.04994 2.37169 6.9156C2.3595 6.76976 2.34755 6.6239 2.33562 6.47804C2.33206 6.4359 2.32851 6.39375 2.32484 6.35033C2.30567 6.11312 2.29642 5.87859 2.3009 5.64061C2.27497 5.64143 2.24903 5.64225 2.22231 5.64309C2.11709 5.64621 2.01187 5.64803 1.90662 5.64989C1.86954 5.65113 1.83247 5.65237 1.79427 5.65365C1.57352 5.65658 1.43143 5.64946 1.26184 5.49217C1.12143 5.31831 1.13316 5.14553 1.13312 4.93205C1.13283 4.89557 1.13255 4.85909 1.13226 4.8215C1.13186 4.74427 1.13175 4.66704 1.13192 4.5898C1.13196 4.47308 1.13042 4.35644 1.12877 4.23973C1.12506 3.6204 1.21669 3.18386 1.65453 2.72114C1.9037 2.48592 2.25936 2.29586 2.60666 2.2963C2.63778 2.29625 2.6689 2.2962 2.70096 2.29615C2.73477 2.29628 2.76859 2.29641 2.80344 2.29655C2.85722 2.29654 2.85722 2.29654 2.91209 2.29654C3.03056 2.29656 3.14902 2.29685 3.26749 2.29714C3.34964 2.29721 3.4318 2.29726 3.51395 2.2973C3.73016 2.29744 3.94637 2.29781 4.16258 2.29822C4.38322 2.2986 4.60385 2.29877 4.82449 2.29895C5.25738 2.29935 5.69027 2.29998 6.12317 2.30076C6.12811 2.27547 6.13306 2.25018 6.13815 2.22412C6.14472 2.19084 6.15129 2.15756 6.15806 2.12327C6.16453 2.09032 6.17101 2.05737 6.17768 2.02343C6.22051 1.81966 6.28971 1.62377 6.3551 1.42637C6.36883 1.38306 6.38256 1.33974 6.39671 1.29511C6.55266 0.822716 6.79868 0.420719 7.24986 0.18562C7.45693 0.0825649 7.63634 -0.00403604 7.86922 -0.00547845ZM7.75598 1.22459C7.48931 1.51527 7.48931 1.51527 7.31067 2.30076C8.75571 2.30076 10.2007 2.30076 11.6896 2.30076C11.5562 1.66869 11.5562 1.66869 11.17 1.18748C10.9846 1.12409 10.8227 1.10376 10.6272 1.10307C10.6002 1.10288 10.5732 1.10269 10.5453 1.1025C10.4568 1.10198 10.3683 1.10202 10.2797 1.1021C10.2176 1.10196 10.1556 1.1018 10.0935 1.10162C9.9637 1.10134 9.83388 1.10135 9.70406 1.10155C9.5384 1.10176 9.37276 1.10114 9.20711 1.10028C9.07899 1.09973 8.95088 1.0997 8.82277 1.09981C8.76173 1.09979 8.70069 1.0996 8.63965 1.09923C8.17885 1.07855 8.17885 1.07855 7.75598 1.22459ZM2.4563 3.57872C2.19962 3.8794 2.26379 4.10906 2.26379 4.52733C7.03977 4.52733 11.8157 4.52733 16.7365 4.52733C16.7704 4.0292 16.7704 4.0292 16.5718 3.60655C16.3664 3.43126 16.2131 3.40944 15.9491 3.40927C15.9023 3.40915 15.8556 3.40903 15.8074 3.40891C15.7556 3.40896 15.7039 3.40902 15.6521 3.40908C15.597 3.40901 15.5419 3.40893 15.4868 3.40883C15.3354 3.4086 15.184 3.40861 15.0326 3.40865C14.8694 3.40866 14.7061 3.40845 14.5428 3.40828C14.223 3.40797 13.9031 3.40787 13.5832 3.40785C13.3233 3.40783 13.0633 3.40775 12.8033 3.40763C12.0665 3.40731 11.3296 3.40714 10.5927 3.40716C10.553 3.40717 10.5133 3.40717 10.4723 3.40717C10.4127 3.40717 10.4127 3.40717 10.3518 3.40717C9.70695 3.40719 9.0621 3.40683 8.41725 3.40631C7.75531 3.40578 7.09338 3.40552 6.43144 3.40555C6.05974 3.40557 5.68803 3.40546 5.31633 3.40506C4.99989 3.40473 4.68344 3.40465 4.367 3.4049C4.20553 3.40502 4.04406 3.40502 3.88259 3.4047C3.73476 3.40441 3.58694 3.40446 3.43911 3.40478C3.38565 3.40484 3.33218 3.40477 3.27872 3.40457C2.83654 3.3884 2.83654 3.3884 2.4563 3.57872ZM3.45129 5.64061C3.48186 6.26076 3.48186 6.26076 3.52618 6.87952C3.52979 6.92399 3.53341 6.96845 3.53714 7.01427C3.54698 7.13501 3.55692 7.25574 3.56692 7.37646C3.57776 7.50769 3.58845 7.63892 3.59917 7.77016C3.6201 8.02608 3.64115 8.28199 3.66226 8.53789C3.67942 8.74594 3.69654 8.95398 3.71363 9.16203C3.76749 9.81752 3.82149 10.473 3.87559 11.1285C3.9182 11.6447 3.96058 12.1609 4.00286 12.6772C4.04639 13.2087 4.09008 13.7402 4.13395 14.2717C4.15852 14.5695 4.18304 14.8673 4.20738 15.1652C4.22807 15.4184 4.24891 15.6716 4.26995 15.9248C4.28066 16.0538 4.29131 16.1828 4.30177 16.3118C4.31316 16.4519 4.32482 16.592 4.33654 16.732C4.33977 16.7725 4.34299 16.8129 4.34631 16.8545C4.37878 17.3415 4.37878 17.3415 4.60081 17.7615C4.81831 17.9093 5.09772 17.8974 5.35023 17.8961C5.38725 17.8962 5.42427 17.8964 5.46241 17.8965C5.58593 17.8968 5.70944 17.8965 5.83296 17.8963C5.92173 17.8964 6.0105 17.8965 6.09927 17.8967C6.31504 17.897 6.5308 17.897 6.74656 17.8967C6.92198 17.8966 7.0974 17.8966 7.27281 17.8966C7.31032 17.8967 7.31032 17.8967 7.34859 17.8967C7.39939 17.8967 7.45019 17.8967 7.50099 17.8967C7.97691 17.897 8.45284 17.8967 8.92876 17.8963C9.33677 17.896 9.74479 17.896 10.1528 17.8964C10.6271 17.8968 11.1013 17.8969 11.5756 17.8967C11.6262 17.8967 11.6768 17.8967 11.7274 17.8966C11.7523 17.8966 11.7772 17.8966 11.8029 17.8966C11.978 17.8965 12.1531 17.8966 12.3283 17.8968C12.5641 17.897 12.8 17.8969 13.0359 17.8965C13.1224 17.8964 13.2089 17.8964 13.2955 17.8965C13.4136 17.8968 13.5318 17.8965 13.65 17.8961C13.6842 17.8963 13.7183 17.8965 13.7535 17.8966C14.098 17.8953 14.098 17.8953 14.4007 17.751C14.4176 17.7284 14.4345 17.7059 14.4519 17.6826C14.4695 17.66 14.487 17.6374 14.5051 17.6142C14.5856 17.4961 14.5941 17.4063 14.6063 17.2646C14.6103 17.2185 14.6144 17.1725 14.6185 17.125C14.6229 17.0733 14.6272 17.0215 14.6316 16.9697C14.6363 16.9147 14.6411 16.8597 14.6458 16.8048C14.659 16.6519 14.672 16.4989 14.685 16.346C14.6962 16.2139 14.7075 16.0818 14.7188 15.9497C14.8751 14.124 15.0257 12.2977 15.1766 10.4715C15.207 10.1033 15.2376 9.73518 15.2682 9.36702C15.3021 8.95782 15.336 8.54862 15.3698 8.1394C15.3886 7.91216 15.4074 7.68491 15.4263 7.45767C15.4439 7.24653 15.4613 7.03538 15.4787 6.82423C15.485 6.74709 15.4914 6.66996 15.4979 6.59283C15.5067 6.48756 15.5153 6.38227 15.5239 6.27698C15.5265 6.24669 15.5291 6.21639 15.5317 6.18518C15.534 6.15671 15.5363 6.12824 15.5387 6.09891C15.5417 6.06263 15.5417 6.06263 15.5447 6.02562C15.5509 5.89742 15.549 5.76895 15.549 5.64061C11.5567 5.64061 7.5645 5.64061 3.45129 5.64061Z" fill="#000000"/>
<path d="M13.0624 6.75393C13.2325 6.83449 13.3184 6.91814 13.3964 7.08791C13.4128 7.21319 13.4116 7.33756 13.4108 7.46375C13.411 7.50194 13.4112 7.54013 13.4114 7.57948C13.4119 7.70762 13.4116 7.83575 13.4114 7.96389C13.4116 8.05569 13.4119 8.14749 13.4122 8.23929C13.4128 8.46285 13.4128 8.68642 13.4126 8.90999C13.4125 9.09171 13.4125 9.27343 13.4127 9.45514C13.4128 9.48101 13.4128 9.50687 13.4128 9.53352C13.4129 9.58607 13.4129 9.63861 13.413 9.69115C13.4135 10.1839 13.4133 10.6766 13.4129 11.1694C13.4125 11.6201 13.413 12.0708 13.4139 12.5216C13.4148 12.9844 13.4151 13.4473 13.4149 13.9102C13.4148 14.17 13.4148 14.4299 13.4155 14.6897C13.4161 14.934 13.4159 15.1784 13.4152 15.4227C13.4151 15.5124 13.4152 15.6021 13.4156 15.6919C13.4161 15.8142 13.4156 15.9366 13.415 16.0589C13.4153 16.0945 13.4157 16.1302 13.4161 16.1668C13.4138 16.3753 13.3888 16.4976 13.248 16.6621C13.0541 16.8127 12.8526 16.8022 12.6171 16.7735C12.447 16.6929 12.361 16.6093 12.2831 16.4395C12.2667 16.3142 12.2679 16.1898 12.2687 16.0636C12.2684 16.0064 12.2684 16.0064 12.2681 15.9479C12.2676 15.8198 12.2678 15.6916 12.2681 15.5635C12.2679 15.4717 12.2676 15.3799 12.2673 15.2881C12.2667 15.0645 12.2667 14.841 12.2669 14.6174C12.267 14.4357 12.267 14.254 12.2668 14.0722C12.2667 14.0464 12.2667 14.0205 12.2667 13.9939C12.2666 13.9413 12.2666 13.8888 12.2665 13.8362C12.266 13.3435 12.2662 12.8508 12.2666 12.358C12.267 11.9073 12.2665 11.4566 12.2656 11.0058C12.2647 10.5429 12.2644 10.0801 12.2646 9.6172C12.2647 9.35735 12.2647 9.0975 12.264 8.83766C12.2634 8.59334 12.2636 8.34904 12.2643 8.10472C12.2644 8.015 12.2643 7.92527 12.2639 7.83554C12.2634 7.71317 12.2639 7.59083 12.2645 7.46846C12.2642 7.43285 12.2638 7.39724 12.2634 7.36055C12.2657 7.15209 12.2907 7.02982 12.4315 6.86526C12.6254 6.71473 12.8269 6.72521 13.0624 6.75393Z" fill="#000000"/>
<path d="M9.72256 6.75393C9.89263 6.83449 9.97861 6.91814 10.0565 7.08791C10.0729 7.21319 10.0717 7.33756 10.0709 7.46375C10.0711 7.50194 10.0713 7.54013 10.0715 7.57948C10.0721 7.70762 10.0718 7.83575 10.0715 7.96389C10.0718 8.05569 10.072 8.14749 10.0723 8.23929C10.0729 8.46285 10.073 8.68642 10.0728 8.90999C10.0726 9.09171 10.0727 9.27343 10.0729 9.45514C10.0729 9.48101 10.0729 9.50687 10.073 9.53352C10.073 9.58607 10.0731 9.63861 10.0731 9.69115C10.0737 10.1839 10.0735 10.6766 10.073 11.1694C10.0727 11.6201 10.0731 12.0708 10.074 12.5216C10.0749 12.9844 10.0753 13.4473 10.075 13.9102C10.0749 14.17 10.075 14.4299 10.0756 14.6897C10.0762 14.934 10.0761 15.1784 10.0754 15.4227C10.0752 15.5124 10.0754 15.6021 10.0757 15.6919C10.0762 15.8142 10.0758 15.9366 10.0751 16.0589C10.0755 16.0945 10.0759 16.1302 10.0762 16.1668C10.0739 16.3753 10.0489 16.4976 9.90811 16.6621C9.7143 16.8127 9.51277 16.8022 9.27725 16.7735C9.10717 16.6929 9.0212 16.6093 8.94326 16.4395C8.92687 16.3142 8.92809 16.1898 8.92888 16.0636C8.92858 16.0064 8.92858 16.0064 8.92827 15.9479C8.92774 15.8198 8.92801 15.6916 8.92827 15.5635C8.92806 15.4717 8.9278 15.3799 8.9275 15.2881C8.9269 15.0645 8.92683 14.841 8.92702 14.6174C8.92717 14.4357 8.92712 14.254 8.92692 14.0722C8.92689 14.0464 8.92687 14.0205 8.92684 13.9939C8.92678 13.9413 8.92672 13.8888 8.92667 13.8362C8.92616 13.3435 8.92636 12.8508 8.92678 12.358C8.92715 11.9073 8.92667 11.4566 8.92578 11.0058C8.92488 10.5429 8.92452 10.0801 8.92477 9.6172C8.9249 9.35735 8.92482 9.0975 8.92417 8.83766C8.92356 8.59334 8.92374 8.34904 8.92444 8.10472C8.92457 8.015 8.92446 7.92527 8.92407 7.83554C8.92358 7.71317 8.92401 7.59083 8.92466 7.46846C8.92431 7.43285 8.92395 7.39724 8.92358 7.36055C8.92589 7.15209 8.95089 7.02982 9.0917 6.86526C9.28551 6.71473 9.48704 6.72521 9.72256 6.75393Z" fill="#000000"/>
<path d="M6.38272 6.75393C6.55279 6.83449 6.63876 6.91814 6.7167 7.08791C6.7331 7.21319 6.73188 7.33756 6.73109 7.46375C6.73129 7.50194 6.73149 7.54013 6.73169 7.57948C6.73222 7.70762 6.73196 7.83575 6.7317 7.96389C6.73191 8.05569 6.73217 8.14749 6.73247 8.23929C6.73306 8.46285 6.73314 8.68642 6.73294 8.90999C6.73279 9.09171 6.73285 9.27343 6.73304 9.45514C6.73307 9.48101 6.7331 9.50687 6.73313 9.53352C6.73318 9.58607 6.73324 9.63861 6.7333 9.69115C6.73381 10.1839 6.73361 10.6766 6.73318 11.1694C6.73281 11.6201 6.73329 12.0708 6.73418 12.5216C6.73509 12.9844 6.73544 13.4473 6.7352 13.9102C6.73507 14.17 6.73515 14.4299 6.7358 14.6897C6.7364 14.934 6.73623 15.1784 6.73553 15.4227C6.73539 15.5124 6.73551 15.6021 6.73589 15.6919C6.73638 15.8142 6.73596 15.9366 6.7353 16.0589C6.73566 16.0945 6.73601 16.1302 6.73638 16.1668C6.73407 16.3753 6.70907 16.4976 6.56826 16.6621C6.37446 16.8127 6.17292 16.8022 5.9374 16.7735C5.76733 16.6929 5.68136 16.6093 5.60342 16.4395C5.58702 16.3142 5.58824 16.1898 5.58903 16.0636C5.58873 16.0064 5.58873 16.0064 5.58843 15.9479C5.5879 15.8198 5.58816 15.6916 5.58843 15.5635C5.58821 15.4717 5.58796 15.3799 5.58765 15.2881C5.58706 15.0645 5.58698 14.841 5.58718 14.6174C5.58733 14.4357 5.58728 14.254 5.58708 14.0722C5.58705 14.0464 5.58702 14.0205 5.58699 13.9939C5.58694 13.9413 5.58688 13.8888 5.58682 13.8362C5.58631 13.3435 5.58651 12.8508 5.58694 12.358C5.58731 11.9073 5.58683 11.4566 5.58594 11.0058C5.58504 10.5429 5.58468 10.0801 5.58493 9.6172C5.58506 9.35735 5.58497 9.0975 5.58432 8.83766C5.58372 8.59334 5.58389 8.34904 5.58459 8.10472C5.58473 8.015 5.58461 7.92527 5.58423 7.83554C5.58374 7.71317 5.58416 7.59083 5.58482 7.46846C5.58446 7.43285 5.58411 7.39724 5.58374 7.36055C5.58605 7.15209 5.61105 7.02982 5.75186 6.86526C5.94566 6.71473 6.1472 6.72521 6.38272 6.75393Z" fill="#000000"/>
</g>
<defs>
<clipPath id="clip0_460_1477">
<rect width="19" height="19" fill="white"/>
</clipPath>
</defs>
</svg>
