<?xml version="1.0" encoding="UTF-8"?>
<svg version="1.1" xmlns="http://www.w3.org/2000/svg" width="512" height="512">
<path d="M0 0 C1.48932781 -0.00462203 2.97865105 -0.0109836 4.46796495 -0.01890898 C8.5156011 -0.03544639 12.56285498 -0.02742804 16.61049163 -0.0149641 C20.99293654 -0.00585153 25.37531924 -0.01991371 29.75775146 -0.03088379 C38.32435668 -0.04860649 46.89082118 -0.04485741 55.45743176 -0.03323323 C62.42208566 -0.02417624 69.3867003 -0.02298467 76.35135841 -0.02732849 C77.34499144 -0.02794142 78.33862446 -0.02855436 79.36236757 -0.02918586 C81.3812758 -0.03046484 83.40018401 -0.03176169 85.41909222 -0.03307623 C104.31882203 -0.04446325 123.21847405 -0.03139692 142.1181911 -0.00987476 C158.31884863 0.0080028 174.51939152 0.00488304 190.720047 -0.0135498 C209.55974011 -0.03497543 228.39936521 -0.0433735 247.23906881 -0.03110075 C249.24936854 -0.02982662 251.25966828 -0.02856914 253.26996803 -0.02732849 C254.75341754 -0.02640284 254.75341754 -0.02640284 256.26683572 -0.02545848 C263.22094902 -0.02201128 270.175019 -0.02782015 277.1291256 -0.0372467 C285.60672066 -0.04848652 294.08416765 -0.04538466 302.56174584 -0.02412373 C306.88331321 -0.01364124 311.20463403 -0.00944355 315.52619934 -0.02272034 C319.48815614 -0.03470796 323.44963968 -0.02797791 327.41155402 -0.00681013 C328.83862667 -0.00237097 330.26573996 -0.00454935 331.69278612 -0.01431328 C346.08450793 -0.10516895 357.5410283 3.18961969 368.29743958 12.94543457 C369.06056458 13.79105957 369.82368958 14.63668457 370.60993958 15.50793457 C371.33117004 16.22336426 371.33117004 16.22336426 372.06697083 16.95324707 C379.40728595 24.64664064 382.7422678 34.93344028 382.72346497 45.38781738 C382.72361099 46.07115143 382.72375702 46.75448547 382.72390747 47.45852661 C382.72321273 49.70940361 382.7154409 51.96019709 382.70759583 54.21105957 C382.70573009 55.77475947 382.70430692 57.33845995 382.70330811 58.90216064 C382.69949519 63.01210146 382.68967537 67.12200678 382.67860413 71.23193359 C382.66836365 75.4280957 382.66380484 79.62426356 382.6587677 83.82043457 C382.648052 92.0496175 382.6309903 100.27877162 382.60993958 108.50793457 C383.75591614 108.55546875 384.9018927 108.60300293 386.08259583 108.65197754 C387.61256624 108.72589482 389.14251302 108.80030246 390.67243958 108.87512207 C391.80069153 108.91995728 391.80069153 108.91995728 392.95173645 108.96569824 C406.26486318 109.65008517 416.39399968 115.77728825 425.35993958 125.32043457 C433.68592882 135.28844026 435.91277927 145.69552535 435.87736511 158.32318115 C435.88189623 159.50971464 435.88642734 160.69624813 435.89109576 161.91873717 C435.90154373 165.19958527 435.9030694 168.48029503 435.90070701 171.76115441 C435.90029796 175.30457637 435.91134638 178.84796592 435.92082214 182.39137268 C435.93741433 189.32906752 435.94293089 196.26672837 435.9440469 203.2044414 C435.94499826 208.84587101 435.94911294 214.48728944 435.95544815 220.12871552 C435.97305602 236.13486263 435.98228778 252.14098295 435.9807872 268.14713982 C435.98066733 269.44069172 435.98066733 269.44069172 435.98054504 270.76037598 C435.98046328 271.62380095 435.98038152 272.48722592 435.98029728 273.37681529 C435.9794846 287.36578185 435.9986189 301.35464069 436.02682178 315.3435761 C436.05557386 329.71874625 436.06936078 344.0938639 436.06763422 358.46906352 C436.06697111 366.53503772 436.07242902 374.60089899 436.09399033 382.66684723 C436.1122328 389.53508861 436.11652442 396.40316588 436.10297148 403.27142105 C436.09645708 406.77260804 436.09626866 410.27348047 436.11367798 413.77463722 C436.12913972 417.57828871 436.11981455 421.38111929 436.10441589 425.18475342 C436.11470302 426.28020328 436.12499015 427.37565314 436.135589 428.50429845 C436.04141185 439.06363349 432.79124988 447.98136241 426.60993958 456.50793457 C426.19228333 457.10219238 425.77462708 457.6964502 425.34431458 458.30871582 C418.51772798 467.15581511 408.26401654 471.94524747 397.60993958 474.50793457 C391.93002805 475.06377573 386.29105307 475.04972972 380.58874512 475.01586914 C378.88553089 475.02048518 377.18232065 475.02684279 375.47911865 475.03477812 C370.8262303 475.05139857 366.17367224 475.04325833 361.52078307 475.03083324 C356.49200804 475.02175491 351.46328843 475.0357664 346.43452454 475.04675293 C336.59314883 475.06451423 326.75189535 475.06070846 316.91051491 475.04910237 C308.90844032 475.04005738 300.90639991 475.03884866 292.90432167 475.04319763 C291.19392047 475.04411703 291.19392047 475.04411703 289.4489657 475.045055 C287.13226907 475.04633395 284.81557245 475.0476308 282.49887583 475.04894537 C260.78778806 475.06034457 239.0767679 475.0472486 217.36569122 475.0257439 C198.75542307 475.00788075 180.14525475 475.01097188 161.5349884 475.02941895 C139.90458671 475.05084974 118.27424428 475.05923841 96.64383346 475.04696989 C94.33489057 475.04569575 92.02594768 475.04443827 89.71700478 475.04319763 C88.01311427 475.04227198 88.01311427 475.04227198 86.27480173 475.04132763 C78.28819443 475.03788082 70.30162487 475.04368878 62.31502342 475.05311584 C52.57336048 475.06436207 42.83182638 475.061241 33.09017809 475.03999287 C28.12423592 475.02951664 23.15850817 475.02530181 18.19256783 475.03858948 C13.63822155 475.05059098 9.08428652 475.04382419 4.52997706 475.02267927 C2.89078367 475.01824575 1.25155486 475.02040541 -0.38761536 475.03018242 C-22.86277819 475.15385473 -41.13001933 468.15353942 -57.56584167 452.42590332 C-76.58593934 432.51943217 -77.14311201 408.6439099 -77.02902472 382.8118273 C-77.01553537 378.50844687 -77.03112868 374.2051513 -77.04284668 369.90177917 C-77.06114074 361.49382792 -77.05276695 353.08611043 -77.03475846 344.67816667 C-77.02068501 337.84133789 -77.01684981 331.00457221 -77.02020073 324.16773033 C-77.02067817 323.1915979 -77.02115561 322.21546547 -77.02164752 321.20975327 C-77.02267393 319.22628157 -77.0237293 317.24280989 -77.02481329 315.25933822 C-77.03336334 297.75597549 -77.01675905 280.25272505 -76.98698425 262.74938965 C-76.95813772 245.79133389 -76.95107183 228.83343978 -76.96647644 211.87536621 C-76.98326011 193.37403393 -76.98725176 174.87277823 -76.96976608 156.37144393 C-76.96792183 154.39652646 -76.9660871 152.42160899 -76.96426201 150.44669151 C-76.96334992 149.47518124 -76.96243783 148.50367096 -76.9614981 147.50272099 C-76.95590719 140.67776832 -76.95918624 133.85285322 -76.96580696 127.0279026 C-76.97356038 118.70557934 -76.96671504 110.38341481 -76.94163192 102.06112341 C-76.9291849 97.82030871 -76.92293177 93.57974057 -76.93417358 89.33891678 C-76.94429148 85.44847392 -76.93559795 81.55852039 -76.9125924 77.66813656 C-76.90747767 76.26935519 -76.90891331 74.87052917 -76.91798706 73.47176788 C-77.03509062 53.76295096 -70.13127409 35.76444375 -56.39006042 21.50793457 C-40.38125943 6.04488816 -21.89644186 -0.15058944 0 0 Z M-34.75334167 47.37902832 C-41.54195434 56.20908537 -44.40368323 65.52940027 -43.39006042 76.50793457 C-40.590155 88.17154062 -34.48014042 97.08663447 -24.39006042 103.50793457 C-15.379721 108.38654089 -7.30324164 109.21947032 2.7959137 109.10920715 C4.2994527 109.11139185 5.80298981 109.11577765 7.30651689 109.12215298 C11.40702279 109.13325812 15.50686754 109.11343827 19.60728931 109.08826268 C24.04065628 109.06656723 28.47398926 109.0739845 32.90739441 109.07777405 C40.57822678 109.08038932 48.24884565 109.06476995 55.91962433 109.03658485 C67.0100949 108.99586126 78.10046278 108.98291858 89.19100001 108.9766449 C107.18682477 108.9657156 125.18253587 108.93247846 143.17829895 108.88513184 C160.65420465 108.8392009 178.13007942 108.80382629 195.60603333 108.78259277 C197.2232429 108.78062235 197.2232429 108.78062235 198.87312338 108.77861211 C204.28210936 108.77208669 209.69109557 108.7657682 215.10008192 108.7595526 C259.93677983 108.70776209 304.77335382 108.61973401 349.60993958 108.50793457 C349.70277004 100.13666854 349.77377008 91.76561888 349.81718826 83.39396477 C349.83803078 79.50631354 349.86628638 75.61901542 349.91169739 71.73156738 C349.95527576 67.97735262 349.97910177 64.22347671 349.98944855 60.46902847 C349.99681856 59.03931471 350.01121071 57.60961874 350.0328598 56.1800499 C350.06204718 54.17217976 350.06357477 52.163966 350.06404114 50.15588379 C350.07292358 49.01448944 350.08180603 47.87309509 350.09095764 46.69711304 C349.33890766 41.71097681 346.75534796 38.63650071 343.23128891 35.16425991 C337.53613967 32.55942422 331.83633315 32.9608368 325.66835022 33.00672913 C324.22661311 33.00283516 322.78487984 32.99719394 321.34315562 32.98995823 C317.38533024 32.97519846 313.42790251 32.98538783 309.47008991 32.99969494 C305.20000563 33.01079835 300.92997742 32.99886405 296.65989685 32.98985291 C288.29525576 32.97591269 279.93076554 32.98348307 271.56613162 32.99852849 C261.82290396 33.01538628 252.07971391 33.01217846 242.33647618 33.00843441 C224.94778245 33.00255407 207.5591611 33.01673252 190.17048645 33.04138184 C173.30392237 33.06528831 156.43745505 33.07239206 139.57087708 33.06188965 C121.20334855 33.05047311 102.83586481 33.04856062 84.46833682 33.06298774 C82.50848564 33.06451356 80.54863445 33.06603392 78.58878326 33.06754875 C77.14239095 33.06868547 77.14239095 33.06868547 75.66677858 33.06984516 C68.8786528 33.07458346 62.09054704 33.07273966 55.30242157 33.06848335 C47.0243927 33.06354983 38.74645522 33.06957119 30.46844724 33.08937765 C26.24646729 33.09923125 22.02462632 33.10437579 17.80263901 33.09648514 C13.93363211 33.08940235 10.064905 33.09629334 6.19593486 33.11408877 C4.80025771 33.11811662 3.40455484 33.11716146 2.00888744 33.1105699 C-12.93248706 33.04607301 -24.22869186 36.41278481 -34.75334167 47.37902832 Z M-43.39006042 130.50793457 C-43.48167259 165.86362293 -43.55212789 201.21928722 -43.59432174 236.57506936 C-43.5993244 240.75182866 -43.60450171 244.92858773 -43.60978699 249.10534668 C-43.61083623 249.93684279 -43.61188547 250.76833889 -43.61296651 251.62503185 C-43.63035829 265.07771185 -43.66188919 278.53032328 -43.69867161 291.98296265 C-43.73611522 305.79289303 -43.7583035 319.60278757 -43.7664144 333.41276664 C-43.7718951 341.93008941 -43.78918758 350.44721835 -43.82172629 358.96448144 C-43.84291644 364.80993942 -43.84925032 370.6552976 -43.84406593 376.50079117 C-43.84151105 379.87038025 -43.84755493 383.23935958 -43.86688232 386.6089344 C-43.88685224 390.27062895 -43.88197301 393.93150144 -43.87107849 397.59321594 C-43.88272986 398.64674926 -43.89438122 399.70028258 -43.90638566 400.78574115 C-43.80978811 412.83914485 -39.64567404 422.07527528 -31.31974792 430.63684082 C-23.01652678 438.49163016 -14.87666792 441.62546097 -3.4977808 441.64215565 C-2.47120144 441.64568399 -2.47120144 441.64568399 -1.42388311 441.64928362 C0.87418588 441.65595166 3.17219804 441.65551606 5.47027588 441.65510559 C7.13261042 441.65840555 8.79494416 441.66213139 10.45727688 441.66624707 C15.02923191 441.67625954 19.60117382 441.67998263 24.17313826 441.68263638 C29.10232388 441.68654146 34.03149911 441.69611941 38.9606781 441.70484924 C50.86380119 441.72460408 62.76692511 441.73467695 74.67006049 441.74357703 C80.27338869 441.74796005 85.87671595 441.75332669 91.48004341 441.7585659 C110.10127663 441.7755744 128.72250926 441.79007043 147.34374905 441.79731464 C152.17507363 441.79922457 157.00639821 441.8011449 161.83772278 441.80310059 C163.03853916 441.80358433 164.23935554 441.80406807 165.4765603 441.80456647 C184.94616282 441.81287384 204.41570404 441.83822438 223.88527977 441.87068126 C243.86634754 441.90371993 263.84738411 441.92176036 283.82847935 441.92495888 C295.05050113 441.92712654 306.27243343 441.93591299 317.49442863 441.96142006 C327.04728996 441.98308315 336.60004006 441.99119903 346.15292316 441.98145328 C351.02860475 441.97689631 355.9040566 441.97887581 360.77970695 441.99821472 C365.24132273 442.01575906 369.70253969 442.01492013 374.16415919 441.99931743 C375.77985758 441.99692807 377.39558296 442.00133326 379.01123994 442.01314608 C381.20525341 442.02819652 383.39784115 442.01864203 385.59181881 442.0029192 C386.81104847 442.00389601 388.03027813 442.00487281 389.28645414 442.00587922 C394.32363879 441.25117781 398.37316011 438.42614129 401.60993958 434.50793457 C402.67776444 431.30445998 402.73052264 429.02605635 402.72346497 425.6595459 C402.72335167 423.85801811 402.72335167 423.85801811 402.72323608 422.02009583 C402.7180748 420.72315292 402.71291351 419.42621002 402.70759583 418.08996582 C402.70573035 416.74903923 402.70430706 415.40811196 402.70330811 414.06718445 C402.69949313 410.54084384 402.68967156 407.01454453 402.67860413 403.48822021 C402.66836808 399.88867756 402.66380578 396.28912822 402.6587677 392.6895752 C402.64804838 385.62901144 402.63098419 378.56847571 402.60993958 371.50793457 C401.64116332 371.50435204 401.64116332 371.50435204 400.65281582 371.50069714 C384.87500978 371.44133816 369.09737682 371.36565645 353.31973934 371.27221966 C345.68951748 371.22741874 338.05934067 371.18796876 330.42903137 371.16149902 C323.7717629 371.13839079 317.11463887 371.1048522 310.45748526 371.05923301 C306.93862523 371.03547194 303.41990672 371.01663199 299.90096855 371.01032066 C272.82879661 370.95541935 249.51852192 368.82704947 229.11775208 349.09777832 C212.83293355 331.79858558 207.91262419 312.73770399 208.30525208 289.62512207 C208.57267834 282.34714951 209.74069272 276.25958043 212.60993958 269.50793457 C213.01261047 268.55249756 213.01261047 268.55249756 213.42341614 267.57775879 C221.6355824 248.55699939 234.78824181 235.16240798 253.93415833 226.94543457 C266.39213763 222.07345117 278.79429726 221.37101488 292.03620911 221.3026123 C293.23735855 221.29271271 294.438508 221.28281311 295.67605591 221.27261353 C298.93774421 221.24662237 302.19942821 221.22468075 305.46115732 221.20461154 C308.88177895 221.18258316 312.30235857 221.15527778 315.72294617 221.1285553 C322.18600407 221.07885426 328.64908556 221.03383269 335.11218917 220.99053293 C342.47627486 220.94096614 349.84031835 220.88612079 357.20436311 220.83085334 C372.33951586 220.71738057 387.47470846 220.61046745 402.60993958 220.50793457 C402.70274706 211.61514662 402.77375872 202.72252618 402.81718826 193.82935905 C402.83803563 189.69958222 402.86630047 185.57013748 402.91169739 181.44055176 C402.95525791 177.45292028 402.97909812 173.46560761 402.98944855 169.4777565 C402.99682171 167.95873117 403.01121999 166.43972267 403.0328598 164.92083359 C403.06203133 162.78786696 403.06589012 160.6562063 403.06404114 158.52307129 C403.07292358 157.31061737 403.08180603 156.09816345 403.09095764 154.84896851 C402.50102771 150.75145935 401.24460083 148.67888453 398.60993958 145.50793457 C394.62020541 142.54282286 391.73206097 142.13209816 386.80806255 142.12876034 C385.79610739 142.12193427 385.79610739 142.12193427 384.76370868 142.1149703 C382.49852399 142.10334101 380.23393698 142.1130791 377.96875 142.12266541 C376.33003883 142.11865906 374.69133043 142.11333315 373.05262738 142.10679966 C368.5455291 142.09262278 364.03861071 142.0970882 359.53150332 142.10451281 C354.67164397 142.10924491 349.81182649 142.0966959 344.95198059 142.08615112 C336.52702917 142.07015868 328.10212586 142.06490194 319.67716026 142.066679 C307.4786164 142.06906188 295.2801494 142.05307558 283.08162562 142.03222645 C263.26790841 141.9986775 243.45419807 141.97703259 223.64045715 141.9642334 C222.45422633 141.96346391 221.26799551 141.96269442 220.04581831 141.96190161 C215.24026224 141.95879975 210.43470617 141.95571692 205.62915007 141.95266157 C192.42393302 141.94414339 179.21871837 141.93323948 166.01350403 141.92126465 C164.83205286 141.92019663 163.65060169 141.91912861 162.43334898 141.91802823 C142.70760626 141.89991174 122.98187979 141.87390253 103.25615293 141.84313351 C91.09567942 141.82461233 78.9352425 141.81366578 66.77475468 141.81261159 C58.4320409 141.81150487 50.08935213 141.80352261 41.74664893 141.79022794 C36.9386577 141.78283706 32.1307212 141.77869099 27.3227253 141.78334618 C22.91125537 141.78757629 18.49989222 141.7825162 14.08843771 141.77043832 C12.50217792 141.76769657 10.91590785 141.76824079 9.32965174 141.77261942 C-7.45662079 141.81517081 -23.32912319 140.59745985 -38.58000183 132.92712402 C-39.48070404 132.47472855 -40.38140625 132.02233307 -41.30940247 131.55622864 C-41.99601959 131.2102916 -42.68263672 130.86435455 -43.39006042 130.50793457 Z M248.18025208 271.25793457 C241.11759637 281.37756065 239.7903406 291.48714959 240.60993958 303.50793457 C242.56218337 313.9033219 248.14847126 323.17690211 256.35993958 329.88293457 C267.18158608 337.26132992 277.94385992 338.66168074 290.67390442 338.62145996 C292.48938278 338.621679 292.48938278 338.621679 294.34153748 338.62190247 C297.64688661 338.62132665 300.95217268 338.61632366 304.25751066 338.60932851 C307.7168328 338.60306211 311.17615585 338.60248857 314.63548279 338.6013031 C321.18016178 338.59819946 327.72482399 338.58999913 334.26949561 338.57995361 C342.45458829 338.56766385 350.63968371 338.56220229 358.82478333 338.5567627 C373.41984846 338.54703314 388.01487702 338.52699924 402.60993958 338.50793457 C402.60993958 310.78793457 402.60993958 283.06793457 402.60993958 254.50793457 C379.95078766 254.39131955 379.95078766 254.39131955 357.2915802 254.31262207 C348.04580265 254.28892471 338.80017135 254.26112752 329.55451965 254.20617676 C322.81973333 254.16616838 316.08506611 254.14046861 309.35016423 254.13158059 C305.78770747 254.12638935 302.22559129 254.11428507 298.66324425 254.08501434 C294.67551778 254.05251756 290.68837439 254.05198406 286.70051575 254.05383301 C285.53381851 254.0394519 284.36712128 254.0250708 283.16506958 254.01025391 C268.39871618 254.08403095 257.60335717 260.03786524 248.18025208 271.25793457 Z " fill="#000000" transform="translate(76.39006042480469,18.4920654296875)"/>
<path d="M0 0 C5.46678282 3.28238123 9.6880853 8.11056681 11.84765625 14.109375 C13.43395268 21.13440207 13.22165277 27.96406839 9.5859375 34.3125 C5.87816109 39.56761617 2.03106287 43.04823946 -4.15234375 45.109375 C-12.0612373 45.72238962 -19.70078973 46.27639142 -26.15234375 41.109375 C-32.32551648 35.34120167 -35.11373365 30.34603758 -35.58984375 21.859375 C-35.4519928 15.11386832 -33.17427257 9.57130994 -28.73046875 4.48046875 C-20.78939519 -2.67076685 -9.76219463 -4.24966173 0 0 Z " fill="#000000" transform="translate(376.15234375,292.890625)"/>
</svg>
